NotoSansBengali.glyphspackage
{
color = 11;
export = 0;
glyphname = exclam.beng;
layers = (
{
background = {
shapes = (
{
closed = 1;
nodes = (
(238,201,l),
(263,714,l),
(156,714,l),
(181,201,l)
);
},
{
closed = 1;
nodes = (
(147,6,o),
(174,-14,o),
(209,-14,cs),
(242,-14,o),
(271,6,o),
(271,54,cs),
(271,103,o),
(242,121,o),
(209,121,cs),
(174,121,o),
(147,103,o),
(147,54,cs)
);
}
);
};
layerId = UUID0;
shapes = (
{
closed = 1;
nodes = (
(238,201,l),
(263,714,l),
(156,714,l),
(181,201,l)
);
},
{
closed = 1;
nodes = (
(147,6,o),
(174,-14,o),
(209,-14,cs),
(242,-14,o),
(271,6,o),
(271,54,cs),
(271,103,o),
(242,121,o),
(209,121,cs),
(174,121,o),
(147,103,o),
(147,54,cs)
);
}
);
width = 383;
},
{
background = {
shapes = (
{
closed = 1;
nodes = (
(191,174,l),
(193,714,l),
(165,714,l),
(167,174,l)
);
},
{
closed = 1;
nodes = (
(152,6,o),
(157,-8,o),
(177,-8,cs),
(201,-8,o),
(204,6,o),
(204,23,cs),
(204,39,o),
(201,54,o),
(177,54,cs),
(157,54,o),
(152,39,o),
(152,23,cs)
);
}
);
};
layerId = "28FB090A-653E-4199-B7BE-FAE23D31B682";
shapes = (
{
closed = 1;
nodes = (
(191,174,l),
(193,714,l),
(165,714,l),
(167,174,l)
);
},
{
closed = 1;
nodes = (
(152,6,o),
(157,-8,o),
(177,-8,cs),
(201,-8,o),
(204,6,o),
(204,23,cs),
(204,39,o),
(201,54,o),
(177,54,cs),
(157,54,o),
(152,39,o),
(152,23,cs)
);
}
);
width = 322;
},
{
background = {
shapes = (
{
closed = 1;
nodes = (
(308,252,l),
(333,714,l),
(122,714,l),
(147,252,l)
);
},
{
closed = 1;
nodes = (
(124,15,o),
(171,-12,o),
(227,-12,cs),
(282,-12,o),
(328,15,o),
(328,81,cs),
(328,150,o),
(282,175,o),
(227,175,cs),
(171,175,o),
(124,150,o),
(124,81,cs)
);
}
);
};
layerId = "F455777D-7EDD-47E2-866A-D8A5173CE243";
shapes = (
{
closed = 1;
nodes = (
(308,252,l),
(333,714,l),
(122,714,l),
(147,252,l)
);
},
{
closed = 1;
nodes = (
(124,15,o),
(171,-12,o),
(227,-12,cs),
(282,-12,o),
(328,15,o),
(328,81,cs),
(328,150,o),
(282,175,o),
(227,175,cs),
(171,175,o),
(124,150,o),
(124,81,cs)
);
}
);
width = 429;
},
{
background = {
shapes = (
{
closed = 1;
nodes = (
(164,170,l),
(172,714,l),
(146,714,l),
(153,170,l)
);
},
{
closed = 1;
nodes = (
(136,10,o),
(138,-7,o),
(158,-7,cs),
(178,-7,o),
(182,8,o),
(182,29,cs),
(182,49,o),
(180,65,o),
(158,65,cs),
(137,65,o),
(136,46,o),
(136,29,cs)
);
}
);
};
layerId = "ADAF9463-560A-4353-9B5A-2FAD12EBF6B5";
shapes = (
{
closed = 1;
nodes = (
(164,170,l),
(172,714,l),
(146,714,l),
(153,170,l)
);
},
{
closed = 1;
nodes = (
(136,10,o),
(138,-7,o),
(158,-7,cs),
(178,-7,o),
(182,8,o),
(182,29,cs),
(182,49,o),
(180,65,o),
(158,65,cs),
(137,65,o),
(136,46,o),
(136,29,cs)
);
}
);
width = 292;
},
{
background = {
shapes = (
{
closed = 1;
nodes = (
(205,198,l),
(226,714,l),
(132,714,l),
(152,198,l)
);
},
{
closed = 1;
nodes = (
(128,12,o),
(145,-10,o),
(179,-10,cs),
(209,-10,o),
(230,10,o),
(230,52,cs),
(230,95,o),
(211,113,o),
(179,113,cs),
(144,113,o),
(128,92,o),
(128,52,cs)
);
}
);
};
layerId = "D7742CE6-1B18-47A0-AEB5-463D77EA217C";
shapes = (
{
closed = 1;
nodes = (
(205,198,l),
(226,714,l),
(132,714,l),
(152,198,l)
);
},
{
closed = 1;
nodes = (
(128,12,o),
(145,-10,o),
(179,-10,cs),
(209,-10,o),
(230,10,o),
(230,52,cs),
(230,95,o),
(211,113,o),
(179,113,cs),
(144,113,o),
(128,92,o),
(128,52,cs)
);
}
);
width = 333;
},
{
background = {
shapes = (
{
closed = 1;
nodes = (
(274,246,l),
(317,714,l),
(110,714,l),
(150,246,l)
);
},
{
closed = 1;
nodes = (
(114,15,o),
(158,-15,o),
(215,-15,cs),
(261,-15,o),
(312,13,o),
(312,90,cs),
(312,172,o),
(263,195,o),
(215,195,cs),
(157,195,o),
(114,169,o),
(114,90,cs)
);
}
);
};
layerId = "F138D99C-4E28-42C5-9F3E-22494052B08F";
shapes = (
{
closed = 1;
nodes = (
(274,246,l),
(317,714,l),
(110,714,l),
(150,246,l)
);
},
{
closed = 1;
nodes = (
(114,15,o),
(158,-15,o),
(215,-15,cs),
(261,-15,o),
(312,13,o),
(312,90,cs),
(312,172,o),
(263,195,o),
(215,195,cs),
(157,195,o),
(114,169,o),
(114,90,cs)
);
}
);
width = 402;
}
);
unicode = 33;
}
{
category = Punctuation;
glyphname = exclam;
layers = (
{
layerId = "F455777D-7EDD-47E2-866A-D8A5173CE243";
shapes = (
{
closed = 1;
nodes = (
(271,714,l),
(60,714,l),
(85,252,l),
(246,252,l)
);
},
{
closed = 1;
nodes = (
(62,15,o),
(109,-12,o),
(165,-12,cs),
(220,-12,o),
(266,15,o),
(266,81,cs),
(266,150,o),
(220,175,o),
(165,175,cs),
(109,175,o),
(62,150,o),
(62,81,cs)
);
}
);
width = 330;
},
{
layerId = "F138D99C-4E28-42C5-9F3E-22494052B08F";
shapes = (
{
closed = 1;
nodes = (
(239,714,l),
(52,714,l),
(76,252,l),
(216,252,l)
);
},
{
closed = 1;
nodes = (
(53,22,o),
(89,-12,o),
(146,-12,cs),
(202,-12,o),
(236,22,o),
(236,81,cs),
(236,141,o),
(204,175,o),
(146,175,cs),
(85,175,o),
(53,141,o),
(53,81,cs)
);
}
);
width = 291;
},
{
layerId = UUID0;
shapes = (
{
closed = 1;
nodes = (
(198,714,l),
(91,714,l),
(116,201,l),
(173,201,l)
);
},
{
closed = 1;
nodes = (
(82,6,o),
(109,-14,o),
(144,-14,cs),
(177,-14,o),
(206,6,o),
(206,54,cs),
(206,103,o),
(177,121,o),
(144,121,cs),
(109,121,o),
(82,103,o),
(82,54,cs)
);
}
);
width = 289;
},
{
layerId = "D7742CE6-1B18-47A0-AEB5-463D77EA217C";
shapes = (
{
closed = 1;
nodes = (
(176,714,l),
(78,714,l),
(97,201,l),
(158,201,l)
);
},
{
closed = 1;
nodes = (
(74,13,o),
(93,-9,o),
(128,-9,cs),
(159,-9,o),
(182,11,o),
(182,55,cs),
(182,100,o),
(161,119,o),
(128,119,cs),
(92,119,o),
(74,97,o),
(74,55,cs)
);
}
);
width = 255;
},
{
layerId = "28FB090A-653E-4199-B7BE-FAE23D31B682";
shapes = (
{
closed = 1;
nodes = (
(137,714,l),
(108,714,l),
(110,174,l),
(135,174,l)
);
},
{
closed = 1;
nodes = (
(95,6,o),
(100,-8,o),
(120,-8,cs),
(144,-8,o),
(147,6,o),
(147,23,cs),
(147,39,o),
(144,54,o),
(120,54,cs),
(100,54,o),
(95,39,o),
(95,23,cs)
);
}
);
width = 243;
},
{
layerId = "ADAF9463-560A-4353-9B5A-2FAD12EBF6B5";
shapes = (
{
closed = 1;
nodes = (
(124,714,l),
(92,714,l),
(95,170,l),
(119,170,l)
);
},
{
closed = 1;
nodes = (
(82,9,o),
(87,-6,o),
(107,-6,cs),
(125,-6,o),
(133,7,o),
(133,30,cs),
(133,53,o),
(126,65,o),
(107,65,cs),
(87,65,o),
(82,49,o),
(82,30,cs)
);
}
);
width = 214;
}
);
script = "";
subCategory = Other;
unicode = 33;
}
{
color = 11;
export = 0;
glyphname = quotedbl.beng;
layers = (
{
background = {
shapes = (
{
closed = 1;
nodes = (
(201,471,l),
(226,729,l),
(115,729,l),
(140,471,l)
);
},
{
closed = 1;
nodes = (
(376,471,l),
(401,729,l),
(291,729,l),
(316,471,l)
);
}
);
};
layerId = UUID0;
shapes = (
{
closed = 1;
nodes = (
(201,471,l),
(226,729,l),
(115,729,l),
(140,471,l)
);
},
{
closed = 1;
nodes = (
(376,471,l),
(401,729,l),
(291,729,l),
(316,471,l)
);
}
);
width = 502;
},
{
background = {
shapes = (
{
closed = 1;
nodes = (
(147,471,l),
(150,729,l),
(121,729,l),
(124,471,l)
);
},
{
closed = 1;
nodes = (
(293,471,l),
(296,729,l),
(267,729,l),
(270,471,l)
);
}
);
};
layerId = "28FB090A-653E-4199-B7BE-FAE23D31B682";
shapes = (
{
closed = 1;
nodes = (
(147,471,l),
(150,729,l),
(121,729,l),
(124,471,l)
);
},
{
closed = 1;
nodes = (
(293,471,l),
(296,729,l),
(267,729,l),
(270,471,l)
);
}
);
width = 400;
},
{
background = {
shapes = (
{
closed = 1;
nodes = (
(250,471,l),
(270,729,l),
(96,729,l),
(116,471,l)
);
},
{
closed = 1;
nodes = (
(482,471,l),
(502,729,l),
(328,729,l),
(348,471,l)
);
}
);
};
layerId = "F455777D-7EDD-47E2-866A-D8A5173CE243";
shapes = (
{
closed = 1;
nodes = (
(250,471,l),
(270,729,l),
(96,729,l),
(116,471,l)
);
},
{
closed = 1;
nodes = (
(482,471,l),
(502,729,l),
(328,729,l),
(348,471,l)
);
}
);
width = 582;
},
{
background = {
shapes = (
{
closed = 1;
nodes = (
(135,471,l),
(141,729,l),
(106,729,l),
(112,471,l)
);
},
{
closed = 1;
nodes = (
(268,471,l),
(274,729,l),
(240,729,l),
(246,471,l)
);
}
);
};
layerId = "ADAF9463-560A-4353-9B5A-2FAD12EBF6B5";
shapes = (
{
closed = 1;
nodes = (
(135,471,l),
(141,729,l),
(106,729,l),
(112,471,l)
);
},
{
closed = 1;
nodes = (
(268,471,l),
(274,729,l),
(240,729,l),
(246,471,l)
);
}
);
width = 365;
},
{
background = {
shapes = (
{
closed = 1;
nodes = (
(173,471,l),
(189,729,l),
(101,729,l),
(117,471,l)
);
},
{
closed = 1;
nodes = (
(335,471,l),
(351,729,l),
(262,729,l),
(278,471,l)
);
}
);
};
layerId = "D7742CE6-1B18-47A0-AEB5-463D77EA217C";
shapes = (
{
closed = 1;
nodes = (
(173,471,l),
(189,729,l),
(101,729,l),
(117,471,l)
);
},
{
closed = 1;
nodes = (
(335,471,l),
(351,729,l),
(262,729,l),
(278,471,l)
);
}
);
width = 437;
},
{
background = {
shapes = (
{
closed = 1;
nodes = (
(239,471,l),
(271,729,l),
(92,729,l),
(124,471,l)
);
},
{
closed = 1;
nodes = (
(447,471,l),
(480,729,l),
(299,729,l),
(332,471,l)
);
}
);
};
layerId = "F138D99C-4E28-42C5-9F3E-22494052B08F";
shapes = (
{
closed = 1;
nodes = (
(239,471,l),
(271,729,l),
(92,729,l),
(124,471,l)
);
},
{
closed = 1;
nodes = (
(447,471,l),
(480,729,l),
(299,729,l),
(332,471,l)
);
}
);
width = 560;
}
);
unicode = 34;
}
{
color = 11;
export = 0;
glyphname = numbersign.beng;
layers = (
{
background = {
shapes = (
{
closed = 1;
nodes = (
(126,0,l),
(195,0,l),
(229,176,l),
(369,176,l),
(334,0,l),
(404,0,l),
(438,176,l),
(584,176,l),
(584,242,l),
(451,242,l),
(480,394,l),
(619,394,l),
(619,459,l),
(493,459,l),
(527,632,l),
(458,632,l),
(424,459,l),
(284,459,l),
(317,632,l),
(247,632,l),
(213,459,l),
(70,459,l),
(70,394,l),
(202,394,l),
(171,242,l),
(34,242,l),
(34,176,l),
(159,176,l)
);
},
{
closed = 1;
nodes = (
(242,242,l),
(271,394,l),
(411,394,l),
(381,242,l)
);
}
);
};
layerId = UUID0;
shapes = (
{
closed = 1;
nodes = (
(126,0,l),
(195,0,l),
(229,176,l),
(369,176,l),
(334,0,l),
(404,0,l),
(438,176,l),
(584,176,l),
(584,242,l),
(451,242,l),
(480,394,l),
(619,394,l),
(619,459,l),
(493,459,l),
(527,632,l),
(458,632,l),
(424,459,l),
(284,459,l),
(317,632,l),
(247,632,l),
(213,459,l),
(70,459,l),
(70,394,l),
(202,394,l),
(171,242,l),
(34,242,l),
(34,176,l),
(159,176,l)
);
},
{
closed = 1;
nodes = (
(242,242,l),
(271,394,l),
(411,394,l),
(381,242,l)
);
}
);
width = 653;
},
{
background = {
shapes = (
{
closed = 1;
nodes = (
(130,0,l),
(157,0,l),
(194,194,l),
(377,194,l),
(340,0,l),
(367,0,l),
(404,194,l),
(547,194,l),
(547,220,l),
(409,220,l),
(447,414,l),
(584,414,l),
(584,440,l),
(452,440,l),
(489,632,l),
(462,632,l),
(425,440,l),
(242,440,l),
(279,632,l),
(252,632,l),
(215,440,l),
(72,440,l),
(72,414,l),
(210,414,l),
(172,220,l),
(35,220,l),
(35,194,l),
(167,194,l)
);
},
{
closed = 1;
nodes = (
(199,220,l),
(237,414,l),
(420,414,l),
(382,220,l)
);
}
);
};
layerId = "28FB090A-653E-4199-B7BE-FAE23D31B682";
shapes = (
{
closed = 1;
nodes = (
(130,0,l),
(157,0,l),
(194,194,l),
(377,194,l),
(340,0,l),
(367,0,l),
(404,194,l),
(547,194,l),
(547,220,l),
(409,220,l),
(447,414,l),
(584,414,l),
(584,440,l),
(452,440,l),
(489,632,l),
(462,632,l),
(425,440,l),
(242,440,l),
(279,632,l),
(252,632,l),
(215,440,l),
(72,440,l),
(72,414,l),
(210,414,l),
(172,220,l),
(35,220,l),
(35,194,l),
(167,194,l)
);
},
{
closed = 1;
nodes = (
(199,220,l),
(237,414,l),
(420,414,l),
(382,220,l)
);
}
);
width = 619;
},
{
background = {
shapes = (
{
closed = 1;
nodes = (
(112,0,l),
(246,0,l),
(274,153,l),
(341,153,l),
(313,0,l),
(447,0,l),
(475,153,l),
(600,153,l),
(600,272,l),
(497,272,l),
(514,366,l),
(632,366,l),
(632,485,l),
(536,485,l),
(563,632,l),
(429,632,l),
(402,485,l),
(335,485,l),
(362,632,l),
(228,632,l),
(201,485,l),
(76,485,l),
(76,366,l),
(179,366,l),
(162,272,l),
(44,272,l),
(44,153,l),
(140,153,l)
);
},
{
closed = 1;
nodes = (
(292,269,l),
(311,369,l),
(383,369,l),
(364,269,l)
);
}
);
};
layerId = "F455777D-7EDD-47E2-866A-D8A5173CE243";
shapes = (
{
closed = 1;
nodes = (
(112,0,l),
(246,0,l),
(274,153,l),
(341,153,l),
(313,0,l),
(447,0,l),
(475,153,l),
(600,153,l),
(600,272,l),
(497,272,l),
(514,366,l),
(632,366,l),
(632,485,l),
(536,485,l),
(563,632,l),
(429,632,l),
(402,485,l),
(335,485,l),
(362,632,l),
(228,632,l),
(201,485,l),
(76,485,l),
(76,366,l),
(179,366,l),
(162,272,l),
(44,272,l),
(44,153,l),
(140,153,l)
);
},
{
closed = 1;
nodes = (
(292,269,l),
(311,369,l),
(383,369,l),
(364,269,l)
);
}
);
width = 676;
},
{
background = {
shapes = (
{
closed = 1;
nodes = (
(97,0,l),
(118,0,l),
(144,194,l),
(284,194,l),
(257,0,l),
(278,0,l),
(305,194,l),
(408,194,l),
(408,219,l),
(309,219,l),
(336,415,l),
(434,415,l),
(434,439,l),
(339,439,l),
(365,632,l),
(345,632,l),
(319,439,l),
(179,439,l),
(205,632,l),
(184,632,l),
(157,439,l),
(54,439,l),
(54,415,l),
(154,415,l),
(127,219,l),
(28,219,l),
(28,194,l),
(123,194,l)
);
},
{
closed = 1;
nodes = (
(148,219,l),
(174,415,l),
(314,415,l),
(289,219,l)
);
}
);
};
layerId = "ADAF9463-560A-4353-9B5A-2FAD12EBF6B5";
shapes = (
{
closed = 1;
nodes = (
(97,0,l),
(118,0,l),
(144,194,l),
(284,194,l),
(257,0,l),
(278,0,l),
(305,194,l),
(408,194,l),
(408,219,l),
(309,219,l),
(336,415,l),
(434,415,l),
(434,439,l),
(339,439,l),
(365,632,l),
(345,632,l),
(319,439,l),
(179,439,l),
(205,632,l),
(184,632,l),
(157,439,l),
(54,439,l),
(54,415,l),
(154,415,l),
(127,219,l),
(28,219,l),
(28,194,l),
(123,194,l)
);
},
{
closed = 1;
nodes = (
(148,219,l),
(174,415,l),
(314,415,l),
(289,219,l)
);
}
);
width = 462;
},
{
background = {
shapes = (
{
closed = 1;
nodes = (
(92,0,l),
(150,0,l),
(172,178,l),
(272,178,l),
(248,0,l),
(306,0,l),
(331,178,l),
(432,178,l),
(432,238,l),
(341,238,l),
(361,397,l),
(456,397,l),
(456,456,l),
(371,456,l),
(393,632,l),
(336,632,l),
(314,456,l),
(214,456,l),
(236,632,l),
(178,632,l),
(154,456,l),
(55,456,l),
(55,397,l),
(145,397,l),
(125,238,l),
(30,238,l),
(30,178,l),
(115,178,l)
);
},
{
closed = 1;
nodes = (
(184,238,l),
(202,397,l),
(302,397,l),
(284,238,l)
);
}
);
};
layerId = "D7742CE6-1B18-47A0-AEB5-463D77EA217C";
shapes = (
{
closed = 1;
nodes = (
(92,0,l),
(150,0,l),
(172,178,l),
(272,178,l),
(248,0,l),
(306,0,l),
(331,178,l),
(432,178,l),
(432,238,l),
(341,238,l),
(361,397,l),
(456,397,l),
(456,456,l),
(371,456,l),
(393,632,l),
(336,632,l),
(314,456,l),
(214,456,l),
(236,632,l),
(178,632,l),
(154,456,l),
(55,456,l),
(55,397,l),
(145,397,l),
(125,238,l),
(30,238,l),
(30,178,l),
(115,178,l)
);
},
{
closed = 1;
nodes = (
(184,238,l),
(202,397,l),
(302,397,l),
(284,238,l)
);
}
);
width = 486;
},
{
background = {
shapes = (
{
closed = 1;
nodes = (
(85,0,l),
(204,0,l),
(220,152,l),
(252,152,l),
(232,0,l),
(354,0,l),
(374,152,l),
(472,152,l),
(472,271,l),
(395,271,l),
(402,366,l),
(493,366,l),
(493,486,l),
(425,486,l),
(441,632,l),
(320,632,l),
(305,486,l),
(272,486,l),
(288,632,l),
(167,632,l),
(149,486,l),
(57,486,l),
(57,366,l),
(129,366,l),
(122,271,l),
(33,271,l),
(33,152,l),
(101,152,l)
);
},
{
closed = 1;
nodes = (
(244,271,l),
(250,366,l),
(282,366,l),
(275,271,l)
);
}
);
};
layerId = "F138D99C-4E28-42C5-9F3E-22494052B08F";
shapes = (
{
closed = 1;
nodes = (
(85,0,l),
(204,0,l),
(220,152,l),
(252,152,l),
(232,0,l),
(354,0,l),
(374,152,l),
(472,152,l),
(472,271,l),
(395,271,l),
(402,366,l),
(493,366,l),
(493,486,l),
(425,486,l),
(441,632,l),
(320,632,l),
(305,486,l),
(272,486,l),
(288,632,l),
(167,632,l),
(149,486,l),
(57,486,l),
(57,366,l),
(129,366,l),
(122,271,l),
(33,271,l),
(33,152,l),
(101,152,l)
);
},
{
closed = 1;
nodes = (
(244,271,l),
(250,366,l),
(282,366,l),
(275,271,l)
);
}
);
width = 525;
}
);
unicode = 35;
}
{
color = 11;
export = 0;
glyphname = percent.beng;
layers = (
{
background = {
shapes = (
{
closed = 1;
nodes = (
(183,0,l),
(261,0,l),
(646,622,l),
(569,622,l)
);
},
{
closed = 1;
nodes = (
(304,271,o),
(349,338,o),
(349,452,cs),
(349,566,o),
(298,632,o),
(202,632,cs),
(101,632,o),
(57,566,o),
(57,452,cs),
(57,338,o),
(107,271,o),
(202,271,cs)
);
},
{
closed = 1;
nodes = (
(150,334,o),
(129,374,o),
(129,452,cs),
(129,530,o),
(150,569,o),
(201,569,cs),
(251,569,o),
(276,530,o),
(276,452,cs),
(276,374,o),
(251,334,o),
(201,334,cs)
);
},
{
closed = 1;
nodes = (
(726,-10,o),
(770,59,o),
(770,171,cs),
(770,285,o),
(721,352,o),
(624,352,cs),
(523,352,o),
(479,285,o),
(479,171,cs),
(479,59,o),
(528,-10,o),
(624,-10,cs)
);
},
{
closed = 1;
nodes = (
(573,55,o),
(552,93,o),
(552,171,cs),
(552,250,o),
(573,289,o),
(624,289,cs),
(674,289,o),
(699,250,o),
(699,171,cs),
(699,94,o),
(674,55,o),
(624,55,cs)
);
}
);
};
layerId = UUID0;
shapes = (
{
closed = 1;
nodes = (
(183,0,l),
(261,0,l),
(646,622,l),
(569,622,l)
);
},
{
closed = 1;
nodes = (
(304,271,o),
(349,338,o),
(349,452,cs),
(349,566,o),
(298,632,o),
(202,632,cs),
(101,632,o),
(57,566,o),
(57,452,cs),
(57,338,o),
(107,271,o),
(202,271,cs)
);
},
{
closed = 1;
nodes = (
(150,334,o),
(129,374,o),
(129,452,cs),
(129,530,o),
(150,569,o),
(201,569,cs),
(251,569,o),
(276,530,o),
(276,452,cs),
(276,374,o),
(251,334,o),
(201,334,cs)
);
},
{
closed = 1;
nodes = (
(726,-10,o),
(770,59,o),
(770,171,cs),
(770,285,o),
(721,352,o),
(624,352,cs),
(523,352,o),
(479,285,o),
(479,171,cs),
(479,59,o),
(528,-10,o),
(624,-10,cs)
);
},
{
closed = 1;
nodes = (
(573,55,o),
(552,93,o),
(552,171,cs),
(552,250,o),
(573,289,o),
(624,289,cs),
(674,289,o),
(699,250,o),
(699,171,cs),
(699,94,o),
(674,55,o),
(624,55,cs)
);
}
);
width = 828;
},
{
background = {
shapes = (
{
closed = 1;
nodes = (
(185,0,l),
(216,0,l),
(609,622,l),
(577,622,l)
);
},
{
closed = 1;
nodes = (
(281,276,o),
(333,339,o),
(333,455,cs),
(333,566,o),
(289,632,o),
(197,632,cs),
(112,632,o),
(59,568,o),
(59,455,cs),
(59,341,o),
(107,276,o),
(195,276,cs)
);
},
{
closed = 1;
nodes = (
(125,301,o),
(86,353,o),
(86,455,cs),
(86,557,o),
(127,607,o),
(197,607,cs),
(273,607,o),
(306,553,o),
(306,455,cs),
(306,355,o),
(269,301,o),
(195,301,cs)
);
},
{
closed = 1;
nodes = (
(682,-10,o),
(734,53,o),
(734,169,cs),
(734,280,o),
(690,346,o),
(598,346,cs),
(513,346,o),
(460,282,o),
(460,169,cs),
(460,55,o),
(508,-10,o),
(596,-10,cs)
);
},
{
closed = 1;
nodes = (
(526,15,o),
(487,67,o),
(487,169,cs),
(487,271,o),
(528,321,o),
(598,321,cs),
(674,321,o),
(707,267,o),
(707,169,cs),
(707,69,o),
(670,15,o),
(596,15,cs)
);
}
);
};
layerId = "28FB090A-653E-4199-B7BE-FAE23D31B682";
shapes = (
{
closed = 1;
nodes = (
(185,0,l),
(216,0,l),
(609,622,l),
(577,622,l)
);
},
{
closed = 1;
nodes = (
(281,276,o),
(333,339,o),
(333,455,cs),
(333,566,o),
(289,632,o),
(197,632,cs),
(112,632,o),
(59,568,o),
(59,455,cs),
(59,341,o),
(107,276,o),
(195,276,cs)
);
},
{
closed = 1;
nodes = (
(125,301,o),
(86,353,o),
(86,455,cs),
(86,557,o),
(127,607,o),
(197,607,cs),
(273,607,o),
(306,553,o),
(306,455,cs),
(306,355,o),
(269,301,o),
(195,301,cs)
);
},
{
closed = 1;
nodes = (
(682,-10,o),
(734,53,o),
(734,169,cs),
(734,280,o),
(690,346,o),
(598,346,cs),
(513,346,o),
(460,282,o),
(460,169,cs),
(460,55,o),
(508,-10,o),
(596,-10,cs)
);
},
{
closed = 1;
nodes = (
(526,15,o),
(487,67,o),
(487,169,cs),
(487,271,o),
(528,321,o),
(598,321,cs),
(674,321,o),
(707,267,o),
(707,169,cs),
(707,69,o),
(670,15,o),
(596,15,cs)
);
}
);
width = 793;
},
{
background = {
shapes = (
{
closed = 1;
nodes = (
(211,0,l),
(351,0,l),
(747,622,l),
(607,622,l)
);
},
{
closed = 1;
nodes = (
(341,258,o),
(406,328,o),
(406,446,cs),
(406,564,o),
(338,632,o),
(220,632,cs),
(106,632,o),
(38,564,o),
(38,446,cs),
(38,328,o),
(105,258,o),
(220,258,cs)
);
},
{
closed = 1;
nodes = (
(194,376,o),
(185,403,o),
(185,445,cs),
(185,487,o),
(194,514,o),
(222,514,cs),
(250,514,o),
(259,487,o),
(259,445,cs),
(259,403,o),
(250,376,o),
(222,376,cs)
);
},
{
closed = 1;
nodes = (
(857,-8,o),
(922,60,o),
(922,178,cs),
(922,296,o),
(855,366,o),
(740,366,cs),
(622,366,o),
(554,298,o),
(554,180,cs),
(554,62,o),
(621,-8,o),
(740,-8,cs)
);
},
{
closed = 1;
nodes = (
(710,110,o),
(701,137,o),
(701,179,cs),
(701,221,o),
(710,248,o),
(738,248,cs),
(766,248,o),
(775,223,o),
(775,179,cs),
(775,137,o),
(766,110,o),
(738,110,cs)
);
}
);
};
layerId = "F455777D-7EDD-47E2-866A-D8A5173CE243";
shapes = (
{
closed = 1;
nodes = (
(211,0,l),
(351,0,l),
(747,622,l),
(607,622,l)
);
},
{
closed = 1;
nodes = (
(341,258,o),
(406,328,o),
(406,446,cs),
(406,564,o),
(338,632,o),
(220,632,cs),
(106,632,o),
(38,564,o),
(38,446,cs),
(38,328,o),
(105,258,o),
(220,258,cs)
);
},
{
closed = 1;
nodes = (
(194,376,o),
(185,403,o),
(185,445,cs),
(185,487,o),
(194,514,o),
(222,514,cs),
(250,514,o),
(259,487,o),
(259,445,cs),
(259,403,o),
(250,376,o),
(222,376,cs)
);
},
{
closed = 1;
nodes = (
(857,-8,o),
(922,60,o),
(922,178,cs),
(922,296,o),
(855,366,o),
(740,366,cs),
(622,366,o),
(554,298,o),
(554,180,cs),
(554,62,o),
(621,-8,o),
(740,-8,cs)
);
},
{
closed = 1;
nodes = (
(710,110,o),
(701,137,o),
(701,179,cs),
(701,221,o),
(710,248,o),
(738,248,cs),
(766,248,o),
(775,223,o),
(775,179,cs),
(775,137,o),
(766,110,o),
(738,110,cs)
);
}
);
width = 960;
},
{
background = {
shapes = (
{
closed = 1;
nodes = (
(144,0,l),
(169,0,l),
(448,622,l),
(423,622,l)
);
},
{
closed = 1;
nodes = (
(215,273,o),
(250,338,o),
(250,454,cs),
(250,566,o),
(219,632,o),
(154,632,cs),
(94,632,o),
(57,567,o),
(57,454,cs),
(57,339,o),
(92,273,o),
(153,273,cs)
);
},
{
closed = 1;
nodes = (
(104,295,o),
(77,348,o),
(77,453,cs),
(77,558,o),
(105,610,o),
(154,610,cs),
(207,610,o),
(230,556,o),
(230,453,cs),
(230,351,o),
(205,295,o),
(153,295,cs)
);
},
{
closed = 1;
nodes = (
(498,-10,o),
(533,55,o),
(533,169,cs),
(533,282,o),
(502,348,o),
(437,348,cs),
(376,348,o),
(341,283,o),
(341,169,cs),
(341,57,o),
(374,-10,o),
(436,-10,cs)
);
},
{
closed = 1;
nodes = (
(388,11,o),
(361,64,o),
(361,169,cs),
(361,275,o),
(389,327,o),
(437,327,cs),
(491,327,o),
(514,272,o),
(514,169,cs),
(514,66,o),
(488,11,o),
(436,11,cs)
);
}
);
};
layerId = "ADAF9463-560A-4353-9B5A-2FAD12EBF6B5";
shapes = (
{
closed = 1;
nodes = (
(144,0,l),
(169,0,l),
(448,622,l),
(423,622,l)
);
},
{
closed = 1;
nodes = (
(215,273,o),
(250,338,o),
(250,454,cs),
(250,566,o),
(219,632,o),
(154,632,cs),
(94,632,o),
(57,567,o),
(57,454,cs),
(57,339,o),
(92,273,o),
(153,273,cs)
);
},
{
closed = 1;
nodes = (
(104,295,o),
(77,348,o),
(77,453,cs),
(77,558,o),
(105,610,o),
(154,610,cs),
(207,610,o),
(230,556,o),
(230,453,cs),
(230,351,o),
(205,295,o),
(153,295,cs)
);
},
{
closed = 1;
nodes = (
(498,-10,o),
(533,55,o),
(533,169,cs),
(533,282,o),
(502,348,o),
(437,348,cs),
(376,348,o),
(341,283,o),
(341,169,cs),
(341,57,o),
(374,-10,o),
(436,-10,cs)
);
},
{
closed = 1;
nodes = (
(388,11,o),
(361,64,o),
(361,169,cs),
(361,275,o),
(389,327,o),
(437,327,cs),
(491,327,o),
(514,272,o),
(514,169,cs),
(514,66,o),
(488,11,o),
(436,11,cs)
);
}
);
width = 590;
},
{
background = {
shapes = (
{
closed = 1;
nodes = (
(149,0,l),
(212,0,l),
(489,622,l),
(426,622,l)
);
},
{
closed = 1;
nodes = (
(236,270,o),
(270,337,o),
(270,452,cs),
(270,566,o),
(233,632,o),
(159,632,cs),
(84,632,o),
(50,566,o),
(50,452,cs),
(50,337,o),
(88,270,o),
(159,270,cs)
);
},
{
closed = 1;
nodes = (
(127,328,o),
(112,369,o),
(112,451,cs),
(112,533,o),
(127,574,o),
(159,574,cs),
(192,574,o),
(208,533,o),
(208,451,cs),
(208,370,o),
(192,328,o),
(159,328,cs)
);
},
{
closed = 1;
nodes = (
(554,-10,o),
(588,59,o),
(588,171,cs),
(588,285,o),
(550,352,o),
(476,352,cs),
(401,352,o),
(368,285,o),
(368,171,cs),
(368,59,o),
(405,-10,o),
(476,-10,cs)
);
},
{
closed = 1;
nodes = (
(445,48,o),
(430,88,o),
(430,170,cs),
(430,254,o),
(445,294,o),
(476,294,cs),
(510,294,o),
(526,253,o),
(526,170,cs),
(526,89,o),
(510,48,o),
(476,48,cs)
);
}
);
};
layerId = "D7742CE6-1B18-47A0-AEB5-463D77EA217C";
shapes = (
{
closed = 1;
nodes = (
(149,0,l),
(212,0,l),
(489,622,l),
(426,622,l)
);
},
{
closed = 1;
nodes = (
(236,270,o),
(270,337,o),
(270,452,cs),
(270,566,o),
(233,632,o),
(159,632,cs),
(84,632,o),
(50,566,o),
(50,452,cs),
(50,337,o),
(88,270,o),
(159,270,cs)
);
},
{
closed = 1;
nodes = (
(127,328,o),
(112,369,o),
(112,451,cs),
(112,533,o),
(127,574,o),
(159,574,cs),
(192,574,o),
(208,533,o),
(208,451,cs),
(208,370,o),
(192,328,o),
(159,328,cs)
);
},
{
closed = 1;
nodes = (
(554,-10,o),
(588,59,o),
(588,171,cs),
(588,285,o),
(550,352,o),
(476,352,cs),
(401,352,o),
(368,285,o),
(368,171,cs),
(368,59,o),
(405,-10,o),
(476,-10,cs)
);
},
{
closed = 1;
nodes = (
(445,48,o),
(430,88,o),
(430,170,cs),
(430,254,o),
(445,294,o),
(476,294,cs),
(510,294,o),
(526,253,o),
(526,170,cs),
(526,89,o),
(510,48,o),
(476,48,cs)
);
}
);
width = 637;
},
{
background = {
shapes = (
{
closed = 1;
nodes = (
(156,0,l),
(284,0,l),
(558,622,l),
(431,622,l)
);
},
{
closed = 1;
nodes = (
(272,265,o),
(304,335,o),
(304,449,cs),
(304,566,o),
(255,632,o),
(168,632,cs),
(67,632,o),
(38,564,o),
(38,449,cs),
(38,334,o),
(82,265,o),
(170,265,cs)
);
},
{
closed = 1;
nodes = (
(165,383,o),
(170,405,o),
(170,448,cs),
(170,492,o),
(164,514,o),
(168,514,cs),
(168,514,o),
(172,495,o),
(172,448,cs),
(172,403,o),
(171,383,o),
(170,383,cs)
);
},
{
closed = 1;
nodes = (
(648,-10,o),
(681,65,o),
(681,174,cs),
(681,290,o),
(632,358,o),
(542,358,cs),
(442,358,o),
(412,288,o),
(412,174,cs),
(412,62,o),
(457,-10,o),
(544,-10,cs)
);
},
{
closed = 1;
nodes = (
(540,110,o),
(545,128,o),
(545,172,cs),
(545,218,o),
(539,239,o),
(542,239,cs),
(543,239,o),
(546,220,o),
(546,172,cs),
(546,127,o),
(547,110,o),
(544,110,cs)
);
}
);
};
layerId = "F138D99C-4E28-42C5-9F3E-22494052B08F";
shapes = (
{
closed = 1;
nodes = (
(156,0,l),
(284,0,l),
(558,622,l),
(431,622,l)
);
},
{
closed = 1;
nodes = (
(272,265,o),
(304,335,o),
(304,449,cs),
(304,566,o),
(255,632,o),
(168,632,cs),
(67,632,o),
(38,564,o),
(38,449,cs),
(38,334,o),
(82,265,o),
(170,265,cs)
);
},
{
closed = 1;
nodes = (
(165,383,o),
(170,405,o),
(170,448,cs),
(170,492,o),
(164,514,o),
(168,514,cs),
(168,514,o),
(172,495,o),
(172,448,cs),
(172,403,o),
(171,383,o),
(170,383,cs)
);
},
{
closed = 1;
nodes = (
(648,-10,o),
(681,65,o),
(681,174,cs),
(681,290,o),
(632,358,o),
(542,358,cs),
(442,358,o),
(412,288,o),
(412,174,cs),
(412,62,o),
(457,-10,o),
(544,-10,cs)
);
},
{
closed = 1;
nodes = (
(540,110,o),
(545,128,o),
(545,172,cs),
(545,218,o),
(539,239,o),
(542,239,cs),
(543,239,o),
(546,220,o),
(546,172,cs),
(546,127,o),
(547,110,o),
(544,110,cs)
);
}
);
width = 716;
}
);
unicode = 37;
}
{
color = 11;
export = 0;
glyphname = parenright.beng;
layers = (
{
background = {
shapes = (
{
closed = 1;
nodes = (
(163,-135,l),
(261,-10,o),
(308,153,o),
(308,324,cs),
(308,494,o),
(261,664,o),
(163,792,c),
(81,792,l),
(174,657,o),
(222,496,o),
(222,325,cs),
(222,156,o),
(172,-4,o),
(82,-135,c)
);
}
);
};
layerId = UUID0;
shapes = (
{
closed = 1;
nodes = (
(163,-135,l),
(261,-10,o),
(308,153,o),
(308,324,cs),
(308,494,o),
(261,664,o),
(163,792,c),
(81,792,l),
(174,657,o),
(222,496,o),
(222,325,cs),
(222,156,o),
(172,-4,o),
(82,-135,c)
);
}
);
width = 419;
},
{
background = {
shapes = (
{
closed = 1;
nodes = (
(111,-135,l),
(200,-21,o),
(259,145,o),
(259,333,cs),
(259,519,o),
(200,673,o),
(111,792,c),
(81,792,l),
(178,666,o),
(232,508,o),
(232,332,cs),
(232,153,o),
(178,-9,o),
(81,-135,c)
);
}
);
};
layerId = "28FB090A-653E-4199-B7BE-FAE23D31B682";
shapes = (
{
closed = 1;
nodes = (
(111,-135,l),
(200,-21,o),
(259,145,o),
(259,333,cs),
(259,519,o),
(200,673,o),
(111,792,c),
(81,792,l),
(178,666,o),
(232,508,o),
(232,332,cs),
(232,153,o),
(178,-9,o),
(81,-135,c)
);
}
);
width = 375;
},
{
background = {
shapes = (
{
closed = 1;
nodes = (
(230,-125,l),
(324,1,o),
(367,170,o),
(367,334,cs),
(367,503,o),
(323,670,o),
(230,792,c),
(72,792,l),
(156,665,o),
(199,496,o),
(199,336,cs),
(199,174,o),
(156,4,o),
(71,-125,c)
);
}
);
};
layerId = "F455777D-7EDD-47E2-866A-D8A5173CE243";
shapes = (
{
closed = 1;
nodes = (
(230,-125,l),
(324,1,o),
(367,170,o),
(367,334,cs),
(367,503,o),
(323,670,o),
(230,792,c),
(72,792,l),
(156,665,o),
(199,496,o),
(199,336,cs),
(199,174,o),
(156,4,o),
(71,-125,c)
);
}
);
width = 467;
},
{
background = {
shapes = (
{
closed = 1;
nodes = (
(99,-139,l),
(172,-21,o),
(219,140,o),
(219,326,cs),
(219,518,o),
(172,671,o),
(99,792,c),
(71,792,l),
(150,665,o),
(194,509,o),
(194,327,cs),
(194,145,o),
(150,-13,o),
(72,-139,c)
);
}
);
};
layerId = "ADAF9463-560A-4353-9B5A-2FAD12EBF6B5";
shapes = (
{
closed = 1;
nodes = (
(99,-139,l),
(172,-21,o),
(219,140,o),
(219,326,cs),
(219,518,o),
(172,671,o),
(99,792,c),
(71,792,l),
(150,665,o),
(194,509,o),
(194,327,cs),
(194,145,o),
(150,-13,o),
(72,-139,c)
);
}
);
width = 333;
},
{
background = {
shapes = (
{
closed = 1;
nodes = (
(143,-135,l),
(220,-10,o),
(262,150,o),
(262,327,cs),
(262,507,o),
(220,666,o),
(143,792,c),
(71,792,l),
(147,661,o),
(188,504,o),
(188,328,cs),
(188,153,o),
(147,-5,o),
(72,-135,c)
);
}
);
};
layerId = "D7742CE6-1B18-47A0-AEB5-463D77EA217C";
shapes = (
{
closed = 1;
nodes = (
(143,-135,l),
(220,-10,o),
(262,150,o),
(262,327,cs),
(262,507,o),
(220,666,o),
(143,792,c),
(71,792,l),
(147,661,o),
(188,504,o),
(188,328,cs),
(188,153,o),
(147,-5,o),
(72,-135,c)
);
}
);
width = 371;
},
{
background = {
shapes = (
{
closed = 1;
nodes = (
(217,-129,l),
(299,9,o),
(334,167,o),
(334,329,cs),
(334,488,o),
(299,659,o),
(217,792,c),
(71,792,l),
(142,655,o),
(177,495,o),
(177,330,cs),
(177,167,o),
(142,9,o),
(72,-129,c)
);
}
);
};
layerId = "F138D99C-4E28-42C5-9F3E-22494052B08F";
shapes = (
{
closed = 1;
nodes = (
(217,-129,l),
(299,9,o),
(334,167,o),
(334,329,cs),
(334,488,o),
(299,659,o),
(217,792,c),
(71,792,l),
(142,655,o),
(177,495,o),
(177,330,cs),
(177,167,o),
(142,9,o),
(72,-129,c)
);
}
);
width = 436;
}
);
unicode = 41;
}
{
color = 11;
export = 0;
glyphname = plus.beng;
layers = (
{
background = {
shapes = (
{
closed = 1;
nodes = (
(259,97,l),
(332,97,l),
(332,286,l),
(521,286,l),
(521,359,l),
(332,359,l),
(332,548,l),
(259,548,l),
(259,359,l),
(70,359,l),
(70,286,l),
(259,286,l)
);
}
);
};
layerId = UUID0;
shapes = (
{
closed = 1;
nodes = (
(259,97,l),
(332,97,l),
(332,286,l),
(521,286,l),
(521,359,l),
(332,359,l),
(332,548,l),
(259,548,l),
(259,359,l),
(70,359,l),
(70,286,l),
(259,286,l)
);
}
);
width = 592;
},
{
background = {
shapes = (
{
closed = 1;
nodes = (
(283,94,l),
(309,94,l),
(309,309,l),
(522,309,l),
(522,335,l),
(309,335,l),
(309,546,l),
(283,546,l),
(283,335,l),
(70,335,l),
(70,309,l),
(283,309,l)
);
}
);
};
layerId = "28FB090A-653E-4199-B7BE-FAE23D31B682";
shapes = (
{
closed = 1;
nodes = (
(283,94,l),
(309,94,l),
(309,309,l),
(522,309,l),
(522,335,l),
(309,335,l),
(309,546,l),
(283,546,l),
(283,335,l),
(70,335,l),
(70,309,l),
(283,309,l)
);
}
);
width = 592;
},
{
background = {
shapes = (
{
closed = 1;
nodes = (
(251,88,l),
(385,88,l),
(385,259,l),
(564,259,l),
(564,388,l),
(385,388,l),
(385,563,l),
(251,563,l),
(251,388,l),
(72,388,l),
(72,259,l),
(251,259,l)
);
}
);
};
layerId = "F455777D-7EDD-47E2-866A-D8A5173CE243";
shapes = (
{
closed = 1;
nodes = (
(251,88,l),
(385,88,l),
(385,259,l),
(564,259,l),
(564,388,l),
(385,388,l),
(385,563,l),
(251,563,l),
(251,388,l),
(72,388,l),
(72,259,l),
(251,259,l)
);
}
);
width = 637;
},
{
background = {
shapes = (
{
closed = 1;
nodes = (
(199,121,l),
(226,121,l),
(226,308,l),
(377,308,l),
(377,336,l),
(226,336,l),
(226,519,l),
(199,519,l),
(199,336,l),
(48,336,l),
(48,308,l),
(199,308,l)
);
}
);
};
layerId = "ADAF9463-560A-4353-9B5A-2FAD12EBF6B5";
shapes = (
{
closed = 1;
nodes = (
(199,121,l),
(226,121,l),
(226,308,l),
(377,308,l),
(377,336,l),
(226,336,l),
(226,519,l),
(199,519,l),
(199,336,l),
(48,336,l),
(48,308,l),
(199,308,l)
);
}
);
width = 425;
},
{
background = {
shapes = (
{
closed = 1;
nodes = (
(185,117,l),
(251,117,l),
(251,290,l),
(388,290,l),
(388,355,l),
(251,355,l),
(251,526,l),
(185,526,l),
(185,355,l),
(48,355,l),
(48,290,l),
(185,290,l)
);
}
);
};
layerId = "D7742CE6-1B18-47A0-AEB5-463D77EA217C";
shapes = (
{
closed = 1;
nodes = (
(185,117,l),
(251,117,l),
(251,290,l),
(388,290,l),
(388,355,l),
(251,355,l),
(251,526,l),
(185,526,l),
(185,355,l),
(48,355,l),
(48,290,l),
(185,290,l)
);
}
);
width = 436;
},
{
background = {
shapes = (
{
closed = 1;
nodes = (
(163,111,l),
(292,111,l),
(292,259,l),
(407,259,l),
(407,388,l),
(292,388,l),
(292,539,l),
(163,539,l),
(163,388,l),
(48,388,l),
(48,259,l),
(163,259,l)
);
}
);
};
layerId = "F138D99C-4E28-42C5-9F3E-22494052B08F";
shapes = (
{
closed = 1;
nodes = (
(163,111,l),
(292,111,l),
(292,259,l),
(407,259,l),
(407,388,l),
(292,388,l),
(292,539,l),
(163,539,l),
(163,388,l),
(48,388,l),
(48,259,l),
(163,259,l)
);
}
);
width = 455;
}
);
unicode = 43;
}
{
glyphname = zero.beng;
layers = (
{
background = {
shapes = (
{
closed = 1;
nodes = (
(441,-10,o),
(504,127,o),
(504,358,cs),
(504,590,o),
(429,725,o),
(275,725,cs),
(111,725,o),
(48,589,o),
(48,358,cs),
(48,127,o),
(121,-10,o),
(275,-10,cs)
);
},
{
closed = 1;
nodes = (
(175,66,o),
(138,163,o),
(138,358,cs),
(138,553,o),
(175,649,o),
(275,649,cs),
(375,649,o),
(414,553,o),
(414,358,cs),
(414,161,o),
(375,66,o),
(275,66,cs)
);
}
);
};
layerId = UUID0;
shapes = (
{
closed = 1;
nodes = (
(441,-10,o),
(504,127,o),
(504,358,cs),
(504,590,o),
(429,725,o),
(275,725,cs),
(111,725,o),
(48,589,o),
(48,358,cs),
(48,127,o),
(121,-10,o),
(275,-10,cs)
);
},
{
closed = 1;
nodes = (
(175,66,o),
(138,163,o),
(138,358,cs),
(138,553,o),
(175,649,o),
(275,649,cs),
(375,649,o),
(414,553,o),
(414,358,cs),
(414,161,o),
(375,66,o),
(275,66,cs)
);
}
);
width = 551;
},
{
background = {
shapes = (
{
closed = 1;
nodes = (
(427,-10,o),
(487,121,o),
(487,358,cs),
(487,595,o),
(416,724,o),
(275,724,cs),
(125,724,o),
(65,594,o),
(65,358,cs),
(65,120,o),
(136,-10,o),
(275,-10,cs)
);
},
{
closed = 1;
nodes = (
(145,16,o),
(92,138,o),
(92,358,cs),
(92,579,o),
(142,698,o),
(275,698,cs),
(407,698,o),
(460,577,o),
(460,358,cs),
(460,136,o),
(410,16,o),
(275,16,cs)
);
}
);
};
layerId = "28FB090A-653E-4199-B7BE-FAE23D31B682";
shapes = (
{
closed = 1;
nodes = (
(427,-10,o),
(487,121,o),
(487,358,cs),
(487,595,o),
(416,724,o),
(275,724,cs),
(125,724,o),
(65,594,o),
(65,358,cs),
(65,120,o),
(136,-10,o),
(275,-10,cs)
);
},
{
closed = 1;
nodes = (
(145,16,o),
(92,138,o),
(92,358,cs),
(92,579,o),
(142,698,o),
(275,698,cs),
(407,698,o),
(460,577,o),
(460,358,cs),
(460,136,o),
(410,16,o),
(275,16,cs)
);
}
);
width = 551;
},
{
background = {
shapes = (
{
closed = 1;
nodes = (
(478,-10,o),
(543,129,o),
(543,356,cs),
(543,589,o),
(464,724,o),
(289,724,cs),
(102,724,o),
(35,589,o),
(35,356,cs),
(35,126,o),
(113,-10,o),
(289,-10,cs)
);
},
{
closed = 1;
nodes = (
(237,143,o),
(225,215,o),
(225,356,cs),
(225,498,o),
(237,571,o),
(289,571,cs),
(341,571,o),
(353,498,o),
(353,356,cs),
(353,214,o),
(341,143,o),
(289,143,cs)
);
}
);
};
layerId = "F455777D-7EDD-47E2-866A-D8A5173CE243";
shapes = (
{
closed = 1;
nodes = (
(478,-10,o),
(543,129,o),
(543,356,cs),
(543,589,o),
(464,724,o),
(289,724,cs),
(102,724,o),
(35,589,o),
(35,356,cs),
(35,126,o),
(113,-10,o),
(289,-10,cs)
);
},
{
closed = 1;
nodes = (
(237,143,o),
(225,215,o),
(225,356,cs),
(225,498,o),
(237,571,o),
(289,571,cs),
(341,571,o),
(353,498,o),
(353,356,cs),
(353,214,o),
(341,143,o),
(289,143,cs)
);
}
);
width = 578;
},
{
background = {
shapes = (
{
closed = 1;
nodes = (
(296,-10,o),
(356,77,o),
(356,357,cs),
(356,617,o),
(308,723,o),
(206,723,cs),
(115,723,o),
(54,634,o),
(54,357,cs),
(54,114,o),
(99,-10,o),
(206,-10,cs)
);
},
{
closed = 1;
nodes = (
(109,13,o),
(74,134,o),
(74,357,cs),
(74,581,o),
(110,701,o),
(205,701,cs),
(303,701,o),
(336,583,o),
(336,357,cs),
(336,133,o),
(304,13,o),
(206,13,cs)
);
}
);
};
layerId = "ADAF9463-560A-4353-9B5A-2FAD12EBF6B5";
shapes = (
{
closed = 1;
nodes = (
(296,-10,o),
(356,77,o),
(356,357,cs),
(356,617,o),
(308,723,o),
(206,723,cs),
(115,723,o),
(54,634,o),
(54,357,cs),
(54,114,o),
(99,-10,o),
(206,-10,cs)
);
},
{
closed = 1;
nodes = (
(109,13,o),
(74,134,o),
(74,357,cs),
(74,581,o),
(110,701,o),
(205,701,cs),
(303,701,o),
(336,583,o),
(336,357,cs),
(336,133,o),
(304,13,o),
(206,13,cs)
);
}
);
width = 411;
},
{
background = {
shapes = (
{
closed = 1;
nodes = (
(308,-10,o),
(372,81,o),
(372,357,cs),
(372,614,o),
(319,724,o),
(206,724,cs),
(103,724,o),
(38,630,o),
(38,357,cs),
(38,118,o),
(86,-10,o),
(206,-10,cs)
);
},
{
closed = 1;
nodes = (
(137,58,o),
(116,160,o),
(116,357,cs),
(116,554,o),
(140,656,o),
(205,656,cs),
(273,656,o),
(294,557,o),
(294,357,cs),
(294,159,o),
(273,58,o),
(206,58,cs)
);
}
);
};
layerId = "D7742CE6-1B18-47A0-AEB5-463D77EA217C";
shapes = (
{
closed = 1;
nodes = (
(308,-10,o),
(372,81,o),
(372,357,cs),
(372,614,o),
(319,724,o),
(206,724,cs),
(103,724,o),
(38,630,o),
(38,357,cs),
(38,118,o),
(86,-10,o),
(206,-10,cs)
);
},
{
closed = 1;
nodes = (
(137,58,o),
(116,160,o),
(116,357,cs),
(116,554,o),
(140,656,o),
(205,656,cs),
(273,656,o),
(294,557,o),
(294,357,cs),
(294,159,o),
(273,58,o),
(206,58,cs)
);
}
);
width = 411;
},
{
background = {
shapes = (
{
closed = 1;
nodes = (
(328,-10,o),
(398,87,o),
(398,357,cs),
(398,609,o),
(338,726,o),
(206,726,cs),
(83,726,o),
(12,624,o),
(12,357,cs),
(12,124,o),
(65,-10,o),
(206,-10,cs)
);
},
{
closed = 1;
nodes = (
(185,134,o),
(187,203,o),
(187,357,cs),
(187,507,o),
(191,580,o),
(205,580,cs),
(222,580,o),
(223,514,o),
(223,357,cs),
(223,202,o),
(221,134,o),
(206,134,cs)
);
}
);
};
layerId = "F138D99C-4E28-42C5-9F3E-22494052B08F";
shapes = (
{
closed = 1;
nodes = (
(328,-10,o),
(398,87,o),
(398,357,cs),
(398,609,o),
(338,726,o),
(206,726,cs),
(83,726,o),
(12,624,o),
(12,357,cs),
(12,124,o),
(65,-10,o),
(206,-10,cs)
);
},
{
closed = 1;
nodes = (
(185,134,o),
(187,203,o),
(187,357,cs),
(187,507,o),
(191,580,o),
(205,580,cs),
(222,580,o),
(223,514,o),
(223,357,cs),
(223,202,o),
(221,134,o),
(206,134,cs)
);
}
);
width = 411;
}
);
unicode = 48;
}
{
glyphname = one.beng;
layers = (
{
background = {
shapes = (
{
closed = 1;
nodes = (
(347,0,l),
(347,714,l),
(274,714,l),
(87,568,l),
(134,508,l),
(206,567,ls),
(233,590,o),
(243,599,o),
(265,622,c),
(264,578,o),
(261,502,o),
(261,446,cs),
(261,0,l)
);
}
);
};
layerId = UUID0;
shapes = (
{
closed = 1;
nodes = (
(347,0,l),
(347,714,l),
(274,714,l),
(87,568,l),
(134,508,l),
(206,567,ls),
(233,590,o),
(243,599,o),
(265,622,c),
(264,578,o),
(261,502,o),
(261,446,cs),
(261,0,l)
);
}
);
width = 551;
},
{
background = {
shapes = (
{
closed = 1;
nodes = (
(323,0,l),
(323,714,l),
(300,714,l),
(105,572,l),
(121,551,l),
(244,642,ls),
(269,661,o),
(282,671,o),
(298,685,c),
(297,658,o),
(297,620,o),
(297,563,cs),
(297,0,l)
);
}
);
};
layerId = "28FB090A-653E-4199-B7BE-FAE23D31B682";
shapes = (
{
closed = 1;
nodes = (
(323,0,l),
(323,714,l),
(300,714,l),
(105,572,l),
(121,551,l),
(244,642,ls),
(269,661,o),
(282,671,o),
(298,685,c),
(297,658,o),
(297,620,o),
(297,563,cs),
(297,0,l)
);
}
);
width = 551;
},
{
background = {
shapes = (
{
closed = 1;
nodes = (
(455,0,l),
(455,714,l),
(283,714,l),
(41,512,l),
(141,391,l),
(220,458,ls),
(234,470,o),
(248,484,o),
(264,504,c),
(262,454,o),
(262,376,o),
(262,355,cs),
(262,0,l)
);
}
);
};
layerId = "F455777D-7EDD-47E2-866A-D8A5173CE243";
shapes = (
{
closed = 1;
nodes = (
(455,0,l),
(455,714,l),
(283,714,l),
(41,512,l),
(141,391,l),
(220,458,ls),
(234,470,o),
(248,484,o),
(264,504,c),
(262,454,o),
(262,376,o),
(262,355,cs),
(262,0,l)
);
}
);
width = 578;
},
{
background = {
shapes = (
{
closed = 1;
nodes = (
(240,0,l),
(240,714,l),
(225,714,l),
(79,575,l),
(97,559,l),
(184,636,ls),
(206,657,o),
(211,662,o),
(221,675,c),
(220,642,o),
(220,586,o),
(220,520,cs),
(220,0,l)
);
}
);
};
layerId = "ADAF9463-560A-4353-9B5A-2FAD12EBF6B5";
shapes = (
{
closed = 1;
nodes = (
(240,0,l),
(240,714,l),
(225,714,l),
(79,575,l),
(97,559,l),
(184,636,ls),
(206,657,o),
(211,662,o),
(221,675,c),
(220,642,o),
(220,586,o),
(220,520,cs),
(220,0,l)
);
}
);
width = 411;
},
{
background = {
shapes = (
{
closed = 1;
nodes = (
(273,0,l),
(273,714,l),
(211,714,l),
(52,559,l),
(98,509,l),
(161,571,ls),
(181,591,o),
(191,603,o),
(198,615,c),
(197,573,o),
(195,501,o),
(195,444,cs),
(195,0,l)
);
}
);
};
layerId = "D7742CE6-1B18-47A0-AEB5-463D77EA217C";
shapes = (
{
closed = 1;
nodes = (
(273,0,l),
(273,714,l),
(211,714,l),
(52,559,l),
(98,509,l),
(161,571,ls),
(181,591,o),
(191,603,o),
(198,615,c),
(197,573,o),
(195,501,o),
(195,444,cs),
(195,0,l)
);
}
);
width = 411;
},
{
background = {
shapes = (
{
closed = 1;
nodes = (
(328,0,l),
(328,714,l),
(189,714,l),
(8,531,l),
(100,424,l),
(123,462,ls),
(140,481,o),
(157,502,o),
(160,513,c),
(159,455,o),
(154,358,o),
(154,316,cs),
(154,0,l)
);
}
);
};
layerId = "F138D99C-4E28-42C5-9F3E-22494052B08F";
shapes = (
{
closed = 1;
nodes = (
(328,0,l),
(328,714,l),
(189,714,l),
(8,531,l),
(100,424,l),
(123,462,ls),
(140,481,o),
(157,502,o),
(160,513,c),
(159,455,o),
(154,358,o),
(154,316,cs),
(154,0,l)
);
}
);
width = 411;
}
);
unicode = 49;
}
{
glyphname = three.beng;
layers = (
{
background = {
shapes = (
{
closed = 1;
nodes = (
(408,-10,o),
(491,78,o),
(491,203,cs),
(491,297,o),
(430,359,o),
(315,373,c),
(315,376,l),
(407,392,o),
(469,451,o),
(469,547,cs),
(469,650,o),
(396,724,o),
(256,724,cs),
(165,724,o),
(92,691,o),
(43,651,c),
(88,590,l),
(136,625,o),
(186,649,o),
(256,649,cs),
(329,649,o),
(378,609,o),
(378,541,cs),
(378,461,o),
(320,406,o),
(214,406,cs),
(149,406,l),
(149,332,l),
(214,332,ls),
(329,332,o),
(400,294,o),
(400,206,cs),
(400,118,o),
(347,65,o),
(227,65,cs),
(166,65,o),
(97,82,o),
(40,112,c),
(40,29,l),
(95,0,o),
(158,-10,o),
(229,-10,cs)
);
}
);
};
layerId = UUID0;
shapes = (
{
closed = 1;
nodes = (
(408,-10,o),
(491,78,o),
(491,203,cs),
(491,297,o),
(430,359,o),
(315,373,c),
(315,376,l),
(407,392,o),
(469,451,o),
(469,547,cs),
(469,650,o),
(396,724,o),
(256,724,cs),
(165,724,o),
(92,691,o),
(43,651,c),
(88,590,l),
(136,625,o),
(186,649,o),
(256,649,cs),
(329,649,o),
(378,609,o),
(378,541,cs),
(378,461,o),
(320,406,o),
(214,406,cs),
(149,406,l),
(149,332,l),
(214,332,ls),
(329,332,o),
(400,294,o),
(400,206,cs),
(400,118,o),
(347,65,o),
(227,65,cs),
(166,65,o),
(97,82,o),
(40,112,c),
(40,29,l),
(95,0,o),
(158,-10,o),
(229,-10,cs)
);
}
);
width = 551;
},
{
background = {
shapes = (
{
closed = 1;
nodes = (
(389,-10,o),
(466,70,o),
(466,194,cs),
(466,292,o),
(401,360,o),
(291,371,c),
(291,372,l),
(376,390,o),
(443,445,o),
(443,550,cs),
(443,642,o),
(383,724,o),
(254,724,cs),
(169,724,o),
(109,692,o),
(50,657,c),
(65,634,l),
(129,675,o),
(181,698,o),
(255,698,cs),
(343,698,o),
(416,653,o),
(416,548,cs),
(416,450,o),
(347,384,o),
(207,384,cs),
(150,384,l),
(150,358,l),
(208,358,ls),
(335,358,o),
(439,316,o),
(439,193,cs),
(439,77,o),
(367,16,o),
(227,16,cs),
(149,16,o),
(96,28,o),
(42,56,c),
(42,27,l),
(95,1,o),
(159,-10,o),
(229,-10,cs)
);
}
);
};
layerId = "28FB090A-653E-4199-B7BE-FAE23D31B682";
shapes = (
{
closed = 1;
nodes = (
(389,-10,o),
(466,70,o),
(466,194,cs),
(466,292,o),
(401,360,o),
(291,371,c),
(291,372,l),
(376,390,o),
(443,445,o),
(443,550,cs),
(443,642,o),
(383,724,o),
(254,724,cs),
(169,724,o),
(109,692,o),
(50,657,c),
(65,634,l),
(129,675,o),
(181,698,o),
(255,698,cs),
(343,698,o),
(416,653,o),
(416,548,cs),
(416,450,o),
(347,384,o),
(207,384,cs),
(150,384,l),
(150,358,l),
(208,358,ls),
(335,358,o),
(439,316,o),
(439,193,cs),
(439,77,o),
(367,16,o),
(227,16,cs),
(149,16,o),
(96,28,o),
(42,56,c),
(42,27,l),
(95,1,o),
(159,-10,o),
(229,-10,cs)
);
}
);
width = 551;
},
{
background = {
shapes = (
{
closed = 1;
nodes = (
(446,-10,o),
(537,86,o),
(537,204,cs),
(537,304,o),
(474,358,o),
(362,373,c),
(362,376,l),
(446,400,o),
(517,458,o),
(517,557,cs),
(517,662,o),
(428,724,o),
(283,724,cs),
(163,724,o),
(94,693,o),
(35,652,c),
(113,524,l),
(136,539,o),
(190,570,o),
(253,570,cs),
(301,570,o),
(332,552,o),
(332,514,cs),
(332,468,o),
(294,438,o),
(187,438,cs),
(143,438,l),
(143,293,l),
(186,293,ls),
(306,293,o),
(336,265,o),
(336,216,cs),
(336,170,o),
(308,141,o),
(216,141,cs),
(163,141,o),
(95,156,o),
(34,188,c),
(34,29,l),
(95,4,o),
(154,-10,o),
(244,-10,cs)
);
}
);
};
layerId = "F455777D-7EDD-47E2-866A-D8A5173CE243";
shapes = (
{
closed = 1;
nodes = (
(446,-10,o),
(537,86,o),
(537,204,cs),
(537,304,o),
(474,358,o),
(362,373,c),
(362,376,l),
(446,400,o),
(517,458,o),
(517,557,cs),
(517,662,o),
(428,724,o),
(283,724,cs),
(163,724,o),
(94,693,o),
(35,652,c),
(113,524,l),
(136,539,o),
(190,570,o),
(253,570,cs),
(301,570,o),
(332,552,o),
(332,514,cs),
(332,468,o),
(294,438,o),
(187,438,cs),
(143,438,l),
(143,293,l),
(186,293,ls),
(306,293,o),
(336,265,o),
(336,216,cs),
(336,170,o),
(308,141,o),
(216,141,cs),
(163,141,o),
(95,156,o),
(34,188,c),
(34,29,l),
(95,4,o),
(154,-10,o),
(244,-10,cs)
);
}
);
width = 578;
},
{
background = {
shapes = (
{
closed = 1;
nodes = (
(282,-10,o),
(345,65,o),
(345,188,cs),
(345,288,o),
(290,353,o),
(204,369,c),
(204,372,l),
(289,397,o),
(331,460,o),
(331,549,cs),
(331,641,o),
(286,724,o),
(185,724,cs),
(131,724,o),
(92,702,o),
(34,662,c),
(43,644,l),
(98,684,o),
(135,702,o),
(181,702,cs),
(256,702,o),
(312,653,o),
(312,554,cs),
(312,452,o),
(251,385,o),
(145,385,cs),
(108,385,l),
(108,358,l),
(143,358,ls),
(246,358,o),
(325,305,o),
(325,185,cs),
(325,74,o),
(269,13,o),
(175,13,cs),
(109,13,o),
(76,23,o),
(35,48,c),
(35,18,l),
(75,-2,o),
(119,-10,o),
(175,-10,cs)
);
}
);
};
layerId = "ADAF9463-560A-4353-9B5A-2FAD12EBF6B5";
shapes = (
{
closed = 1;
nodes = (
(282,-10,o),
(345,65,o),
(345,188,cs),
(345,288,o),
(290,353,o),
(204,369,c),
(204,372,l),
(289,397,o),
(331,460,o),
(331,549,cs),
(331,641,o),
(286,724,o),
(185,724,cs),
(131,724,o),
(92,702,o),
(34,662,c),
(43,644,l),
(98,684,o),
(135,702,o),
(181,702,cs),
(256,702,o),
(312,653,o),
(312,554,cs),
(312,452,o),
(251,385,o),
(145,385,cs),
(108,385,l),
(108,358,l),
(143,358,ls),
(246,358,o),
(325,305,o),
(325,185,cs),
(325,74,o),
(269,13,o),
(175,13,cs),
(109,13,o),
(76,23,o),
(35,48,c),
(35,18,l),
(75,-2,o),
(119,-10,o),
(175,-10,cs)
);
}
);
width = 411;
},
{
background = {
shapes = (
{
closed = 1;
nodes = (
(298,-10,o),
(367,71,o),
(367,194,cs),
(367,293,o),
(315,352,o),
(226,370,c),
(226,374,l),
(313,400,o),
(354,465,o),
(354,550,cs),
(354,650,o),
(294,724,o),
(187,724,cs),
(126,724,o),
(79,703,o),
(25,660,c),
(62,606,l),
(102,637,o),
(136,657,o),
(176,657,cs),
(242,657,o),
(278,615,o),
(278,542,cs),
(278,459,o),
(232,402,o),
(139,402,cs),
(103,402,l),
(103,336,l),
(137,336,ls),
(238,336,o),
(288,286,o),
(288,196,cs),
(288,111,o),
(251,57,o),
(170,57,cs),
(115,57,o),
(72,70,o),
(30,96,c),
(30,19,l),
(72,-1,o),
(117,-10,o),
(176,-10,cs)
);
}
);
};
layerId = "D7742CE6-1B18-47A0-AEB5-463D77EA217C";
shapes = (
{
closed = 1;
nodes = (
(298,-10,o),
(367,71,o),
(367,194,cs),
(367,293,o),
(315,352,o),
(226,370,c),
(226,374,l),
(313,400,o),
(354,465,o),
(354,550,cs),
(354,650,o),
(294,724,o),
(187,724,cs),
(126,724,o),
(79,703,o),
(25,660,c),
(62,606,l),
(102,637,o),
(136,657,o),
(176,657,cs),
(242,657,o),
(278,615,o),
(278,542,cs),
(278,459,o),
(232,402,o),
(139,402,cs),
(103,402,l),
(103,336,l),
(137,336,ls),
(238,336,o),
(288,286,o),
(288,196,cs),
(288,111,o),
(251,57,o),
(170,57,cs),
(115,57,o),
(72,70,o),
(30,96,c),
(30,19,l),
(72,-1,o),
(117,-10,o),
(176,-10,cs)
);
}
);
width = 411;
},
{
background = {
shapes = (
{
closed = 1;
nodes = (
(326,-10,o),
(404,82,o),
(404,205,cs),
(404,300,o),
(356,350,o),
(263,372,c),
(263,377,l),
(353,405,o),
(392,474,o),
(392,552,cs),
(392,666,o),
(308,724,o),
(190,724,cs),
(119,724,o),
(58,705,o),
(9,657,c),
(95,541,l),
(108,558,o),
(138,581,o),
(169,581,cs),
(220,581,o),
(221,550,o),
(221,522,cs),
(221,472,o),
(199,432,o),
(128,432,cs),
(96,432,l),
(96,300,l),
(126,300,ls),
(224,300,o),
(227,253,o),
(227,215,cs),
(227,173,o),
(220,131,o),
(163,131,cs),
(126,131,o),
(66,149,o),
(21,175,c),
(21,21,l),
(67,1,o),
(114,-10,o),
(178,-10,cs)
);
}
);
};
layerId = "F138D99C-4E28-42C5-9F3E-22494052B08F";
shapes = (
{
closed = 1;
nodes = (
(326,-10,o),
(404,82,o),
(404,205,cs),
(404,300,o),
(356,350,o),
(263,372,c),
(263,377,l),
(353,405,o),
(392,474,o),
(392,552,cs),
(392,666,o),
(308,724,o),
(190,724,cs),
(119,724,o),
(58,705,o),
(9,657,c),
(95,541,l),
(108,558,o),
(138,581,o),
(169,581,cs),
(220,581,o),
(221,550,o),
(221,522,cs),
(221,472,o),
(199,432,o),
(128,432,cs),
(96,432,l),
(96,300,l),
(126,300,ls),
(224,300,o),
(227,253,o),
(227,215,cs),
(227,173,o),
(220,131,o),
(163,131,cs),
(126,131,o),
(66,149,o),
(21,175,c),
(21,21,l),
(67,1,o),
(114,-10,o),
(178,-10,cs)
);
}
);
width = 411;
}
);
unicode = 51;
}
{
glyphname = four.beng;
layers = (
{
background = {
shapes = (
{
closed = 1;
nodes = (
(341,0,l),
(427,0,l),
(427,160,l),
(531,160,l),
(531,241,l),
(427,241,l),
(427,718,l),
(335,718,l),
(11,238,l),
(11,160,l),
(341,160,l)
);
},
{
closed = 1;
nodes = (
(98,241,l),
(299,538,ls),
(313,560,o),
(333,600,o),
(343,626,c),
(347,626,l),
(346,582,o),
(341,488,o),
(341,415,cs),
(341,241,l)
);
}
);
};
layerId = UUID0;
shapes = (
{
closed = 1;
nodes = (
(341,0,l),
(427,0,l),
(427,160,l),
(531,160,l),
(531,241,l),
(427,241,l),
(427,718,l),
(335,718,l),
(11,238,l),
(11,160,l),
(341,160,l)
);
},
{
closed = 1;
nodes = (
(98,241,l),
(299,538,ls),
(313,560,o),
(333,600,o),
(343,626,c),
(347,626,l),
(346,582,o),
(341,488,o),
(341,415,cs),
(341,241,l)
);
}
);
width = 551;
},
{
background = {
shapes = (
{
closed = 1;
nodes = (
(377,0,l),
(404,0,l),
(404,193,l),
(527,193,l),
(527,219,l),
(404,219,l),
(404,721,l),
(375,721,l),
(25,214,l),
(25,193,l),
(377,193,l)
);
},
{
closed = 1;
nodes = (
(60,219,l),
(333,614,ls),
(353,643,o),
(367,665,o),
(380,690,c),
(382,689,l),
(378,627,o),
(378,577,o),
(378,448,cs),
(378,219,l)
);
}
);
};
layerId = "28FB090A-653E-4199-B7BE-FAE23D31B682";
shapes = (
{
closed = 1;
nodes = (
(377,0,l),
(404,0,l),
(404,193,l),
(527,193,l),
(527,219,l),
(404,219,l),
(404,721,l),
(375,721,l),
(25,214,l),
(25,193,l),
(377,193,l)
);
},
{
closed = 1;
nodes = (
(60,219,l),
(333,614,ls),
(353,643,o),
(367,665,o),
(380,690,c),
(382,689,l),
(378,627,o),
(378,577,o),
(378,448,cs),
(378,219,l)
);
}
);
width = 551;
},
{
background = {
shapes = (
{
closed = 1;
nodes = (
(297,0,l),
(485,0,l),
(485,138,l),
(563,138,l),
(563,281,l),
(485,281,l),
(485,714,l),
(309,714,l),
(17,279,l),
(17,138,l),
(297,138,l)
);
},
{
closed = 1;
nodes = (
(179,278,l),
(258,401,ls),
(274,427,o),
(284,442,o),
(296,471,c),
(301,471,l),
(300,469,o),
(297,394,o),
(297,366,cs),
(297,278,l)
);
}
);
};
layerId = "F455777D-7EDD-47E2-866A-D8A5173CE243";
shapes = (
{
closed = 1;
nodes = (
(297,0,l),
(485,0,l),
(485,138,l),
(563,138,l),
(563,281,l),
(485,281,l),
(485,714,l),
(309,714,l),
(17,279,l),
(17,138,l),
(297,138,l)
);
},
{
closed = 1;
nodes = (
(179,278,l),
(258,401,ls),
(274,427,o),
(284,442,o),
(296,471,c),
(301,471,l),
(300,469,o),
(297,394,o),
(297,366,cs),
(297,278,l)
);
}
);
width = 578;
},
{
background = {
shapes = (
{
closed = 1;
nodes = (
(286,0,l),
(307,0,l),
(307,188,l),
(390,188,l),
(390,214,l),
(307,214,l),
(307,723,l),
(275,723,l),
(23,210,l),
(23,188,l),
(286,188,l)
);
},
{
closed = 1;
nodes = (
(48,214,l),
(247,591,ls),
(270,637,o),
(277,656,o),
(287,688,c),
(289,687,l),
(286,638,o),
(287,615,o),
(287,530,cs),
(287,214,l)
);
}
);
};
layerId = "ADAF9463-560A-4353-9B5A-2FAD12EBF6B5";
shapes = (
{
closed = 1;
nodes = (
(286,0,l),
(307,0,l),
(307,188,l),
(390,188,l),
(390,214,l),
(307,214,l),
(307,723,l),
(275,723,l),
(23,210,l),
(23,188,l),
(286,188,l)
);
},
{
closed = 1;
nodes = (
(48,214,l),
(247,591,ls),
(270,637,o),
(277,656,o),
(287,688,c),
(289,687,l),
(286,638,o),
(287,615,o),
(287,530,cs),
(287,214,l)
);
}
);
width = 411;
},
{
background = {
shapes = (
{
closed = 1;
nodes = (
(249,0,l),
(326,0,l),
(326,165,l),
(392,165,l),
(392,235,l),
(326,235,l),
(326,720,l),
(241,720,l),
(12,229,l),
(12,165,l),
(249,165,l)
);
},
{
closed = 1;
nodes = (
(83,235,l),
(211,514,ls),
(233,559,o),
(240,585,o),
(250,618,c),
(252,618,l),
(251,588,o),
(250,536,o),
(250,501,cs),
(250,235,l)
);
}
);
};
layerId = "D7742CE6-1B18-47A0-AEB5-463D77EA217C";
shapes = (
{
closed = 1;
nodes = (
(249,0,l),
(326,0,l),
(326,165,l),
(392,165,l),
(392,235,l),
(326,235,l),
(326,720,l),
(241,720,l),
(12,229,l),
(12,165,l),
(249,165,l)
);
},
{
closed = 1;
nodes = (
(83,235,l),
(211,514,ls),
(233,559,o),
(240,585,o),
(250,618,c),
(252,618,l),
(251,588,o),
(250,536,o),
(250,501,cs),
(250,235,l)
);
}
);
width = 411;
},
{
background = {
shapes = (
{
closed = 1;
nodes = (
(188,0,l),
(359,0,l),
(359,127,l),
(395,127,l),
(395,271,l),
(359,271,l),
(359,715,l),
(184,715,l),
(-7,262,l),
(-7,127,l),
(188,127,l)
);
},
{
closed = 1;
nodes = (
(141,271,l),
(151,385,ls),
(169,428,o),
(179,464,o),
(186,499,c),
(191,500,l),
(193,503,o),
(186,404,o),
(186,451,cs),
(186,271,l)
);
}
);
};
layerId = "F138D99C-4E28-42C5-9F3E-22494052B08F";
shapes = (
{
closed = 1;
nodes = (
(188,0,l),
(359,0,l),
(359,127,l),
(395,127,l),
(395,271,l),
(359,271,l),
(359,715,l),
(184,715,l),
(-7,262,l),
(-7,127,l),
(188,127,l)
);
},
{
closed = 1;
nodes = (
(141,271,l),
(151,385,ls),
(169,428,o),
(179,464,o),
(186,499,c),
(191,500,l),
(193,503,o),
(186,404,o),
(186,451,cs),
(186,271,l)
);
}
);
width = 411;
}
);
unicode = 52;
}
{
glyphname = six.beng;
layers = (
{
background = {
shapes = (
{
closed = 1;
nodes = (
(421,-10,o),
(505,82,o),
(505,230,cs),
(505,368,o),
(425,447,o),
(302,447,cs),
(225,447,o),
(178,411,o),
(152,364,c),
(146,364,l),
(152,519,o),
(194,651,o),
(370,651,cs),
(398,651,o),
(428,647,o),
(451,639,c),
(451,715,l),
(430,721,o),
(392,724,o),
(367,724,cs),
(107,724,o),
(55,510,o),
(55,305,cs),
(55,91,o),
(157,-10,o),
(288,-10,cs)
);
},
{
closed = 1;
nodes = (
(192,65,o),
(144,160,o),
(144,247,cs),
(144,310,o),
(202,377,o),
(290,377,cs),
(376,377,o),
(419,321,o),
(419,230,cs),
(419,117,o),
(365,65,o),
(287,65,cs)
);
}
);
};
layerId = UUID0;
shapes = (
{
closed = 1;
nodes = (
(421,-10,o),
(505,82,o),
(505,230,cs),
(505,368,o),
(425,447,o),
(302,447,cs),
(225,447,o),
(178,411,o),
(152,364,c),
(146,364,l),
(152,519,o),
(194,651,o),
(370,651,cs),
(398,651,o),
(428,647,o),
(451,639,c),
(451,715,l),
(430,721,o),
(392,724,o),
(367,724,cs),
(107,724,o),
(55,510,o),
(55,305,cs),
(55,91,o),
(157,-10,o),
(288,-10,cs)
);
},
{
closed = 1;
nodes = (
(192,65,o),
(144,160,o),
(144,247,cs),
(144,310,o),
(202,377,o),
(290,377,cs),
(376,377,o),
(419,321,o),
(419,230,cs),
(419,117,o),
(365,65,o),
(287,65,cs)
);
}
);
width = 551;
},
{
background = {
shapes = (
{
closed = 1;
nodes = (
(414,-10,o),
(492,78,o),
(492,221,cs),
(492,340,o),
(421,427,o),
(297,427,cs),
(205,427,o),
(140,379,o),
(105,319,c),
(103,319,l),
(108,529,o),
(169,698,o),
(367,698,cs),
(395,698,o),
(426,696,o),
(448,688,c),
(448,716,l),
(429,721,o),
(395,724,o),
(372,724,cs),
(134,724,o),
(77,512,o),
(77,300,cs),
(77,88,o),
(162,-10,o),
(291,-10,cs)
);
},
{
closed = 1;
nodes = (
(166,16,o),
(106,127,o),
(106,257,cs),
(106,313,o),
(172,401,o),
(295,401,cs),
(405,401,o),
(465,325,o),
(465,221,cs),
(465,86,o),
(397,16,o),
(292,16,cs)
);
}
);
};
layerId = "28FB090A-653E-4199-B7BE-FAE23D31B682";
shapes = (
{
closed = 1;
nodes = (
(414,-10,o),
(492,78,o),
(492,221,cs),
(492,340,o),
(421,427,o),
(297,427,cs),
(205,427,o),
(140,379,o),
(105,319,c),
(103,319,l),
(108,529,o),
(169,698,o),
(367,698,cs),
(395,698,o),
(426,696,o),
(448,688,c),
(448,716,l),
(429,721,o),
(395,724,o),
(372,724,cs),
(134,724,o),
(77,512,o),
(77,300,cs),
(77,88,o),
(162,-10,o),
(291,-10,cs)
);
},
{
closed = 1;
nodes = (
(166,16,o),
(106,127,o),
(106,257,cs),
(106,313,o),
(172,401,o),
(295,401,cs),
(405,401,o),
(465,325,o),
(465,221,cs),
(465,86,o),
(397,16,o),
(292,16,cs)
);
}
);
width = 551;
},
{
background = {
shapes = (
{
closed = 1;
nodes = (
(453,-10,o),
(547,84,o),
(547,244,cs),
(547,392,o),
(474,476,o),
(351,476,cs),
(277,476,o),
(237,441,o),
(212,393,c),
(206,393,l),
(212,508,o),
(258,575,o),
(399,575,cs),
(445,575,o),
(476,571,o),
(503,566,c),
(503,716,l),
(476,720,o),
(430,724,o),
(401,724,cs),
(92,724,o),
(34,508,o),
(34,302,cs),
(34,90,o),
(147,-10,o),
(299,-10,cs)
);
},
{
closed = 1;
nodes = (
(246,142,o),
(224,198,o),
(224,250,cs),
(224,289,o),
(250,328,o),
(297,328,cs),
(343,328,o),
(362,295,o),
(362,240,cs),
(362,172,o),
(335,142,o),
(295,142,cs)
);
}
);
};
layerId = "F455777D-7EDD-47E2-866A-D8A5173CE243";
shapes = (
{
closed = 1;
nodes = (
(453,-10,o),
(547,84,o),
(547,244,cs),
(547,392,o),
(474,476,o),
(351,476,cs),
(277,476,o),
(237,441,o),
(212,393,c),
(206,393,l),
(212,508,o),
(258,575,o),
(399,575,cs),
(445,575,o),
(476,571,o),
(503,566,c),
(503,716,l),
(476,720,o),
(430,724,o),
(401,724,cs),
(92,724,o),
(34,508,o),
(34,302,cs),
(34,90,o),
(147,-10,o),
(299,-10,cs)
);
},
{
closed = 1;
nodes = (
(246,142,o),
(224,198,o),
(224,250,cs),
(224,289,o),
(250,328,o),
(297,328,cs),
(343,328,o),
(362,295,o),
(362,240,cs),
(362,172,o),
(335,142,o),
(295,142,cs)
);
}
);
width = 578;
},
{
background = {
shapes = (
{
closed = 1;
nodes = (
(317,-10,o),
(363,85,o),
(363,217,cs),
(363,329,o),
(321,427,o),
(223,427,cs),
(162,427,o),
(121,393,o),
(93,336,c),
(91,336,l),
(101,574,o),
(160,701,o),
(268,701,cs),
(293,701,o),
(318,698,o),
(337,690,c),
(337,715,l),
(320,720,o),
(298,725,o),
(273,725,cs),
(134,725,o),
(67,570,o),
(67,301,cs),
(67,99,o),
(114,-10,o),
(219,-10,cs)
);
},
{
closed = 1;
nodes = (
(124,13,o),
(89,126,o),
(89,253,cs),
(89,326,o),
(130,406,o),
(220,406,cs),
(300,406,o),
(342,337,o),
(342,216,cs),
(342,81,o),
(298,13,o),
(220,13,cs)
);
}
);
};
layerId = "ADAF9463-560A-4353-9B5A-2FAD12EBF6B5";
shapes = (
{
closed = 1;
nodes = (
(317,-10,o),
(363,85,o),
(363,217,cs),
(363,329,o),
(321,427,o),
(223,427,cs),
(162,427,o),
(121,393,o),
(93,336,c),
(91,336,l),
(101,574,o),
(160,701,o),
(268,701,cs),
(293,701,o),
(318,698,o),
(337,690,c),
(337,715,l),
(320,720,o),
(298,725,o),
(273,725,cs),
(134,725,o),
(67,570,o),
(67,301,cs),
(67,99,o),
(114,-10,o),
(219,-10,cs)
);
},
{
closed = 1;
nodes = (
(124,13,o),
(89,126,o),
(89,253,cs),
(89,326,o),
(130,406,o),
(220,406,cs),
(300,406,o),
(342,337,o),
(342,216,cs),
(342,81,o),
(298,13,o),
(220,13,cs)
);
}
);
width = 411;
},
{
background = {
shapes = (
{
closed = 1;
nodes = (
(324,-10,o),
(377,88,o),
(377,225,cs),
(377,350,o),
(331,444,o),
(234,444,cs),
(180,444,o),
(149,417,o),
(126,367,c),
(122,367,l),
(133,567,o),
(181,657,o),
(277,657,cs),
(302,657,o),
(326,653,o),
(346,646,c),
(346,714,l),
(326,720,o),
(302,724,o),
(275,724,cs),
(115,724,o),
(48,568,o),
(48,303,cs),
(48,100,o),
(108,-10,o),
(217,-10,cs)
);
},
{
closed = 1;
nodes = (
(149,58,o),
(126,153,o),
(126,248,cs),
(126,320,o),
(156,381,o),
(216,381,cs),
(273,381,o),
(300,329,o),
(300,223,cs),
(300,110,o),
(270,58,o),
(216,58,cs)
);
}
);
};
layerId = "D7742CE6-1B18-47A0-AEB5-463D77EA217C";
shapes = (
{
closed = 1;
nodes = (
(324,-10,o),
(377,88,o),
(377,225,cs),
(377,350,o),
(331,444,o),
(234,444,cs),
(180,444,o),
(149,417,o),
(126,367,c),
(122,367,l),
(133,567,o),
(181,657,o),
(277,657,cs),
(302,657,o),
(326,653,o),
(346,646,c),
(346,714,l),
(326,720,o),
(302,724,o),
(275,724,cs),
(115,724,o),
(48,568,o),
(48,303,cs),
(48,100,o),
(108,-10,o),
(217,-10,cs)
);
},
{
closed = 1;
nodes = (
(149,58,o),
(126,153,o),
(126,248,cs),
(126,320,o),
(156,381,o),
(216,381,cs),
(273,381,o),
(300,329,o),
(300,223,cs),
(300,110,o),
(270,58,o),
(216,58,cs)
);
}
);
width = 411;
},
{
background = {
shapes = (
{
closed = 1;
nodes = (
(337,-10,o),
(399,93,o),
(399,239,cs),
(399,386,o),
(348,474,o),
(253,474,cs),
(211,474,o),
(197,457,o),
(181,419,c),
(174,419,l),
(187,555,o),
(217,583,o),
(293,583,cs),
(318,583,o),
(340,577,o),
(362,572,c),
(362,712,l),
(337,720,o),
(308,722,o),
(278,722,cs),
(82,722,o),
(15,565,o),
(15,306,cs),
(15,102,o),
(97,-10,o),
(214,-10,cs)
);
},
{
closed = 1;
nodes = (
(190,134,o),
(190,197,o),
(190,241,cs),
(190,309,o),
(199,340,o),
(210,340,cs),
(226,340,o),
(229,315,o),
(229,236,cs),
(229,160,o),
(222,134,o),
(210,134,cs)
);
}
);
};
layerId = "F138D99C-4E28-42C5-9F3E-22494052B08F";
shapes = (
{
closed = 1;
nodes = (
(337,-10,o),
(399,93,o),
(399,239,cs),
(399,386,o),
(348,474,o),
(253,474,cs),
(211,474,o),
(197,457,o),
(181,419,c),
(174,419,l),
(187,555,o),
(217,583,o),
(293,583,cs),
(318,583,o),
(340,577,o),
(362,572,c),
(362,712,l),
(337,720,o),
(308,722,o),
(278,722,cs),
(82,722,o),
(15,565,o),
(15,306,cs),
(15,102,o),
(97,-10,o),
(214,-10,cs)
);
},
{
closed = 1;
nodes = (
(190,134,o),
(190,197,o),
(190,241,cs),
(190,309,o),
(199,340,o),
(210,340,cs),
(226,340,o),
(229,315,o),
(229,236,cs),
(229,160,o),
(222,134,o),
(210,134,cs)
);
}
);
width = 411;
}
);
unicode = 54;
}
{
glyphname = seven.beng;
layers = (
{
background = {
shapes = (
{
closed = 1;
nodes = (
(137,0,l),
(232,0,l),
(503,643,l),
(503,714,l),
(44,714,l),
(44,633,l),
(412,633,l)
);
}
);
};
layerId = UUID0;
shapes = (
{
closed = 1;
nodes = (
(137,0,l),
(232,0,l),
(503,643,l),
(503,714,l),
(44,714,l),
(44,633,l),
(412,633,l)
);
}
);
width = 551;
},
{
background = {
shapes = (
{
closed = 1;
nodes = (
(168,0,l),
(198,0,l),
(491,692,l),
(491,714,l),
(56,714,l),
(56,688,l),
(461,688,l)
);
}
);
};
layerId = "28FB090A-653E-4199-B7BE-FAE23D31B682";
shapes = (
{
closed = 1;
nodes = (
(168,0,l),
(198,0,l),
(491,692,l),
(491,714,l),
(56,714,l),
(56,688,l),
(461,688,l)
);
}
);
width = 551;
},
{
background = {
shapes = (
{
closed = 1;
nodes = (
(101,0,l),
(299,0,l),
(545,599,l),
(545,713,l),
(38,713,l),
(38,554,l),
(342,554,l)
);
}
);
};
layerId = "F455777D-7EDD-47E2-866A-D8A5173CE243";
shapes = (
{
closed = 1;
nodes = (
(101,0,l),
(299,0,l),
(545,599,l),
(545,713,l),
(38,713,l),
(38,554,l),
(342,554,l)
);
}
);
width = 578;
},
{
background = {
shapes = (
{
closed = 1;
nodes = (
(128,0,l),
(149,0,l),
(362,687,l),
(362,714,l),
(45,714,l),
(45,690,l),
(343,690,l)
);
}
);
};
layerId = "ADAF9463-560A-4353-9B5A-2FAD12EBF6B5";
shapes = (
{
closed = 1;
nodes = (
(128,0,l),
(149,0,l),
(362,687,l),
(362,714,l),
(45,714,l),
(45,690,l),
(343,690,l)
);
}
);
width = 411;
},
{
background = {
shapes = (
{
closed = 1;
nodes = (
(97,0,l),
(178,0,l),
(375,650,l),
(375,714,l),
(32,714,l),
(32,642,l),
(295,642,l)
);
}
);
};
layerId = "D7742CE6-1B18-47A0-AEB5-463D77EA217C";
shapes = (
{
closed = 1;
nodes = (
(97,0,l),
(178,0,l),
(375,650,l),
(375,714,l),
(32,714,l),
(32,642,l),
(295,642,l)
);
}
);
width = 411;
},
{
background = {
shapes = (
{
closed = 1;
nodes = (
(45,0,l),
(228,0,l),
(397,589,l),
(397,714,l),
(11,714,l),
(11,560,l),
(213,560,l)
);
}
);
};
layerId = "F138D99C-4E28-42C5-9F3E-22494052B08F";
shapes = (
{
closed = 1;
nodes = (
(45,0,l),
(228,0,l),
(397,589,l),
(397,714,l),
(11,714,l),
(11,560,l),
(213,560,l)
);
}
);
width = 411;
}
);
unicode = 55;
}
{
glyphname = eight.beng;
layers = (
{
background = {
shapes = (
{
closed = 1;
nodes = (
(409,-10,o),
(500,66,o),
(500,186,cs),
(500,281,o),
(425,337,o),
(349,378,c),
(422,415,o),
(477,466,o),
(477,553,cs),
(477,668,o),
(385,725,o),
(276,725,cs),
(170,725,o),
(75,667,o),
(75,554,cs),
(75,468,o),
(126,415,o),
(190,374,c),
(114,337,o),
(52,279,o),
(52,182,cs),
(52,63,o),
(133,-10,o),
(276,-10,cs)
);
},
{
closed = 1;
nodes = (
(180,64,o),
(139,112,o),
(139,181,cs),
(139,253,o),
(181,301,o),
(263,340,c),
(361,293,o),
(413,252,o),
(413,185,cs),
(413,112,o),
(366,64,o),
(274,64,cs)
);
},
{
closed = 1;
nodes = (
(210,446,o),
(162,477,o),
(162,550,cs),
(162,616,o),
(206,651,o),
(275,651,cs),
(347,651,o),
(390,616,o),
(390,550,cs),
(390,479,o),
(340,443,o),
(277,414,c)
);
}
);
};
layerId = UUID0;
shapes = (
{
closed = 1;
nodes = (
(409,-10,o),
(500,66,o),
(500,186,cs),
(500,281,o),
(425,337,o),
(349,378,c),
(422,415,o),
(477,466,o),
(477,553,cs),
(477,668,o),
(385,725,o),
(276,725,cs),
(170,725,o),
(75,667,o),
(75,554,cs),
(75,468,o),
(126,415,o),
(190,374,c),
(114,337,o),
(52,279,o),
(52,182,cs),
(52,63,o),
(133,-10,o),
(276,-10,cs)
);
},
{
closed = 1;
nodes = (
(180,64,o),
(139,112,o),
(139,181,cs),
(139,253,o),
(181,301,o),
(263,340,c),
(361,293,o),
(413,252,o),
(413,185,cs),
(413,112,o),
(366,64,o),
(274,64,cs)
);
},
{
closed = 1;
nodes = (
(210,446,o),
(162,477,o),
(162,550,cs),
(162,616,o),
(206,651,o),
(275,651,cs),
(347,651,o),
(390,616,o),
(390,550,cs),
(390,479,o),
(340,443,o),
(277,414,c)
);
}
);
width = 551;
},
{
background = {
shapes = (
{
closed = 1;
nodes = (
(401,-10,o),
(486,56,o),
(486,165,cs),
(486,268,o),
(398,332,o),
(303,377,c),
(392,418,o),
(466,461,o),
(466,559,cs),
(466,668,o),
(385,724,o),
(279,724,cs),
(179,724,o),
(92,664,o),
(92,560,cs),
(92,471,o),
(157,423,o),
(245,377,c),
(140,334,o),
(66,270,o),
(66,169,cs),
(66,63,o),
(139,-10,o),
(272,-10,cs)
);
},
{
closed = 1;
nodes = (
(157,16,o),
(93,76,o),
(93,170,cs),
(93,257,o),
(153,316,o),
(270,365,c),
(397,311,o),
(459,244,o),
(459,162,cs),
(459,74,o),
(392,16,o),
(273,16,cs)
);
},
{
closed = 1;
nodes = (
(169,442,o),
(119,480,o),
(119,560,cs),
(119,650,o),
(196,698,o),
(278,698,cs),
(368,698,o),
(439,653,o),
(439,557,cs),
(439,467,o),
(366,431,o),
(273,389,c)
);
}
);
};
layerId = "28FB090A-653E-4199-B7BE-FAE23D31B682";
shapes = (
{
closed = 1;
nodes = (
(401,-10,o),
(486,56,o),
(486,165,cs),
(486,268,o),
(398,332,o),
(303,377,c),
(392,418,o),
(466,461,o),
(466,559,cs),
(466,668,o),
(385,724,o),
(279,724,cs),
(179,724,o),
(92,664,o),
(92,560,cs),
(92,471,o),
(157,423,o),
(245,377,c),
(140,334,o),
(66,270,o),
(66,169,cs),
(66,63,o),
(139,-10,o),
(272,-10,cs)
);
},
{
closed = 1;
nodes = (
(157,16,o),
(93,76,o),
(93,170,cs),
(93,257,o),
(153,316,o),
(270,365,c),
(397,311,o),
(459,244,o),
(459,162,cs),
(459,74,o),
(392,16,o),
(273,16,cs)
);
},
{
closed = 1;
nodes = (
(169,442,o),
(119,480,o),
(119,560,cs),
(119,650,o),
(196,698,o),
(278,698,cs),
(368,698,o),
(439,653,o),
(439,557,cs),
(439,467,o),
(366,431,o),
(273,389,c)
);
}
);
width = 551;
},
{
background = {
shapes = (
{
closed = 1;
nodes = (
(465,-10,o),
(546,74,o),
(546,190,cs),
(546,282,o),
(474,336,o),
(405,376,c),
(477,412,o),
(526,465,o),
(526,550,cs),
(526,666,o),
(431,724,o),
(291,724,cs),
(152,724,o),
(54,666,o),
(54,551,cs),
(54,469,o),
(101,414,o),
(161,373,c),
(86,334,o),
(33,285,o),
(33,188,cs),
(33,70,o),
(112,-10,o),
(289,-10,cs)
);
},
{
closed = 1;
nodes = (
(237,128,o),
(208,155,o),
(208,196,cs),
(208,238,o),
(243,267,o),
(287,291,c),
(329,266,o),
(371,233,o),
(371,192,cs),
(371,152,o),
(344,128,o),
(287,128,cs)
);
},
{
closed = 1;
nodes = (
(256,477,o),
(232,503,o),
(232,533,cs),
(232,565,o),
(258,586,o),
(290,586,cs),
(320,586,o),
(346,566,o),
(346,533,cs),
(346,496,o),
(316,476,o),
(288,459,c)
);
}
);
};
layerId = "F455777D-7EDD-47E2-866A-D8A5173CE243";
shapes = (
{
closed = 1;
nodes = (
(465,-10,o),
(546,74,o),
(546,190,cs),
(546,282,o),
(474,336,o),
(405,376,c),
(477,412,o),
(526,465,o),
(526,550,cs),
(526,666,o),
(431,724,o),
(291,724,cs),
(152,724,o),
(54,666,o),
(54,551,cs),
(54,469,o),
(101,414,o),
(161,373,c),
(86,334,o),
(33,285,o),
(33,188,cs),
(33,70,o),
(112,-10,o),
(289,-10,cs)
);
},
{
closed = 1;
nodes = (
(237,128,o),
(208,155,o),
(208,196,cs),
(208,238,o),
(243,267,o),
(287,291,c),
(329,266,o),
(371,233,o),
(371,192,cs),
(371,152,o),
(344,128,o),
(287,128,cs)
);
},
{
closed = 1;
nodes = (
(256,477,o),
(232,503,o),
(232,533,cs),
(232,565,o),
(258,586,o),
(290,586,cs),
(320,586,o),
(346,566,o),
(346,533,cs),
(346,496,o),
(316,476,o),
(288,459,c)
);
}
);
width = 578;
},
{
background = {
shapes = (
{
closed = 1;
nodes = (
(307,-10,o),
(365,54,o),
(365,162,cs),
(365,257,o),
(308,318,o),
(226,374,c),
(308,423,o),
(356,477,o),
(356,561,cs),
(356,660,o),
(306,724,o),
(211,724,cs),
(121,724,o),
(65,657,o),
(65,560,cs),
(65,487,o),
(105,432,o),
(185,374,c),
(90,316,o),
(48,255,o),
(48,169,cs),
(48,64,o),
(106,-10,o),
(210,-10,cs)
);
},
{
closed = 1;
nodes = (
(119,16,o),
(71,77,o),
(71,166,cs),
(71,251,o),
(107,307,o),
(201,361,c),
(289,314,o),
(339,246,o),
(339,162,cs),
(339,76,o),
(295,16,o),
(207,16,cs)
);
},
{
closed = 1;
nodes = (
(119,441,o),
(88,488,o),
(88,561,cs),
(88,648,o),
(142,698,o),
(209,698,cs),
(282,698,o),
(333,650,o),
(333,559,cs),
(333,483,o),
(291,438,o),
(205,387,c)
);
}
);
};
layerId = "ADAF9463-560A-4353-9B5A-2FAD12EBF6B5";
shapes = (
{
closed = 1;
nodes = (
(307,-10,o),
(365,54,o),
(365,162,cs),
(365,257,o),
(308,318,o),
(226,374,c),
(308,423,o),
(356,477,o),
(356,561,cs),
(356,660,o),
(306,724,o),
(211,724,cs),
(121,724,o),
(65,657,o),
(65,560,cs),
(65,487,o),
(105,432,o),
(185,374,c),
(90,316,o),
(48,255,o),
(48,169,cs),
(48,64,o),
(106,-10,o),
(210,-10,cs)
);
},
{
closed = 1;
nodes = (
(119,16,o),
(71,77,o),
(71,166,cs),
(71,251,o),
(107,307,o),
(201,361,c),
(289,314,o),
(339,246,o),
(339,162,cs),
(339,76,o),
(295,16,o),
(207,16,cs)
);
},
{
closed = 1;
nodes = (
(119,441,o),
(88,488,o),
(88,561,cs),
(88,648,o),
(142,698,o),
(209,698,cs),
(282,698,o),
(333,650,o),
(333,559,cs),
(333,483,o),
(291,438,o),
(205,387,c)
);
}
);
width = 411;
},
{
background = {
shapes = (
{
closed = 1;
nodes = (
(315,-10,o),
(379,59,o),
(379,173,cs),
(379,263,o),
(329,321,o),
(258,374,c),
(331,421,o),
(369,479,o),
(369,557,cs),
(369,659,o),
(310,724,o),
(209,724,cs),
(112,724,o),
(49,658,o),
(49,556,cs),
(49,485,o),
(81,427,o),
(148,372,c),
(69,317,o),
(33,260,o),
(33,175,cs),
(33,64,o),
(98,-10,o),
(212,-10,cs)
);
},
{
closed = 1;
nodes = (
(143,56,o),
(110,106,o),
(110,175,cs),
(110,246,o),
(134,291,o),
(200,336,c),
(256,298,o),
(300,247,o),
(300,176,cs),
(300,106,o),
(271,56,o),
(208,56,cs)
);
},
{
closed = 1;
nodes = (
(151,450,o),
(125,490,o),
(125,552,cs),
(125,618,o),
(158,658,o),
(207,658,cs),
(260,658,o),
(292,618,o),
(292,552,cs),
(292,493,o),
(267,451,o),
(207,411,c)
);
}
);
};
layerId = "D7742CE6-1B18-47A0-AEB5-463D77EA217C";
shapes = (
{
closed = 1;
nodes = (
(315,-10,o),
(379,59,o),
(379,173,cs),
(379,263,o),
(329,321,o),
(258,374,c),
(331,421,o),
(369,479,o),
(369,557,cs),
(369,659,o),
(310,724,o),
(209,724,cs),
(112,724,o),
(49,658,o),
(49,556,cs),
(49,485,o),
(81,427,o),
(148,372,c),
(69,317,o),
(33,260,o),
(33,175,cs),
(33,64,o),
(98,-10,o),
(212,-10,cs)
);
},
{
closed = 1;
nodes = (
(143,56,o),
(110,106,o),
(110,175,cs),
(110,246,o),
(134,291,o),
(200,336,c),
(256,298,o),
(300,247,o),
(300,176,cs),
(300,106,o),
(271,56,o),
(208,56,cs)
);
},
{
closed = 1;
nodes = (
(151,450,o),
(125,490,o),
(125,552,cs),
(125,618,o),
(158,658,o),
(207,658,cs),
(260,658,o),
(292,618,o),
(292,552,cs),
(292,493,o),
(267,451,o),
(207,411,c)
);
}
);
width = 411;
},
{
background = {
shapes = (
{
closed = 1;
nodes = (
(329,-10,o),
(401,68,o),
(401,192,cs),
(401,274,o),
(365,326,o),
(312,374,c),
(369,418,o),
(391,482,o),
(391,551,cs),
(391,657,o),
(316,724,o),
(206,724,cs),
(96,724,o),
(21,660,o),
(21,550,cs),
(21,482,o),
(41,420,o),
(87,369,c),
(33,319,o),
(9,267,o),
(9,186,cs),
(9,64,o),
(84,-10,o),
(215,-10,cs)
);
},
{
closed = 1;
nodes = (
(183,124,o),
(176,156,o),
(176,191,cs),
(176,237,o),
(181,265,o),
(198,295,c),
(201,270,o),
(234,249,o),
(234,198,cs),
(234,157,o),
(231,124,o),
(210,124,cs)
);
},
{
closed = 1;
nodes = (
(205,466,o),
(189,493,o),
(189,536,cs),
(189,567,o),
(184,590,o),
(204,590,cs),
(224,590,o),
(223,564,o),
(223,540,cs),
(223,510,o),
(227,473,o),
(210,451,c)
);
}
);
};
layerId = "F138D99C-4E28-42C5-9F3E-22494052B08F";
shapes = (
{
closed = 1;
nodes = (
(329,-10,o),
(401,68,o),
(401,192,cs),
(401,274,o),
(365,326,o),
(312,374,c),
(369,418,o),
(391,482,o),
(391,551,cs),
(391,657,o),
(316,724,o),
(206,724,cs),
(96,724,o),
(21,660,o),
(21,550,cs),
(21,482,o),
(41,420,o),
(87,369,c),
(33,319,o),
(9,267,o),
(9,186,cs),
(9,64,o),
(84,-10,o),
(215,-10,cs)
);
},
{
closed = 1;
nodes = (
(183,124,o),
(176,156,o),
(176,191,cs),
(176,237,o),
(181,265,o),
(198,295,c),
(201,270,o),
(234,249,o),
(234,198,cs),
(234,157,o),
(231,124,o),
(210,124,cs)
);
},
{
closed = 1;
nodes = (
(205,466,o),
(189,493,o),
(189,536,cs),
(189,567,o),
(184,590,o),
(204,590,cs),
(224,590,o),
(223,564,o),
(223,540,cs),
(223,510,o),
(227,473,o),
(210,451,c)
);
}
);
width = 411;
}
);
unicode = 56;
}
{
color = 11;
export = 0;
glyphname = less.beng;
layers = (
{
background = {
shapes = (
{
closed = 1;
nodes = (
(521,77,l),
(521,155,l),
(162,313,l),
(521,490,l),
(521,568,l),
(70,333,l),
(70,284,l)
);
}
);
};
layerId = UUID0;
shapes = (
{
closed = 1;
nodes = (
(521,77,l),
(521,155,l),
(162,313,l),
(521,490,l),
(521,568,l),
(70,333,l),
(70,284,l)
);
}
);
width = 592;
},
{
background = {
shapes = (
{
closed = 1;
nodes = (
(521,88,l),
(521,118,l),
(100,320,l),
(521,523,l),
(521,553,l),
(69,333,l),
(69,307,l)
);
}
);
};
layerId = "28FB090A-653E-4199-B7BE-FAE23D31B682";
shapes = (
{
closed = 1;
nodes = (
(521,88,l),
(521,118,l),
(100,320,l),
(521,523,l),
(521,553,l),
(69,333,l),
(69,307,l)
);
}
);
width = 592;
},
{
background = {
shapes = (
{
closed = 1;
nodes = (
(564,42,l),
(564,189,l),
(266,325,l),
(564,461,l),
(564,608,l),
(72,368,l),
(72,282,l)
);
}
);
};
layerId = "F455777D-7EDD-47E2-866A-D8A5173CE243";
shapes = (
{
closed = 1;
nodes = (
(564,42,l),
(564,189,l),
(266,325,l),
(564,461,l),
(564,608,l),
(72,368,l),
(72,282,l)
);
}
);
width = 637;
},
{
background = {
shapes = (
{
closed = 1;
nodes = (
(376,131,l),
(376,162,l),
(74,321,l),
(376,479,l),
(376,509,l),
(47,335,l),
(47,309,l)
);
}
);
};
layerId = "ADAF9463-560A-4353-9B5A-2FAD12EBF6B5";
shapes = (
{
closed = 1;
nodes = (
(376,131,l),
(376,162,l),
(74,321,l),
(376,479,l),
(376,509,l),
(47,335,l),
(47,309,l)
);
}
);
width = 425;
},
{
background = {
shapes = (
{
closed = 1;
nodes = (
(388,116,l),
(388,189,l),
(131,322,l),
(388,455,l),
(388,527,l),
(48,345,l),
(48,299,l)
);
}
);
};
layerId = "D7742CE6-1B18-47A0-AEB5-463D77EA217C";
shapes = (
{
closed = 1;
nodes = (
(388,116,l),
(388,189,l),
(131,322,l),
(388,455,l),
(388,527,l),
(48,345,l),
(48,299,l)
);
}
);
width = 436;
},
{
background = {
shapes = (
{
closed = 1;
nodes = (
(408,92,l),
(408,233,l),
(226,324,l),
(408,415,l),
(408,558,l),
(50,362,l),
(50,282,l)
);
}
);
};
layerId = "F138D99C-4E28-42C5-9F3E-22494052B08F";
shapes = (
{
closed = 1;
nodes = (
(408,92,l),
(408,233,l),
(226,324,l),
(408,415,l),
(408,558,l),
(50,362,l),
(50,282,l)
);
}
);
width = 455;
}
);
unicode = 60;
}
{
color = 11;
export = 0;
glyphname = equal.beng;
layers = (
{
background = {
shapes = (
{
closed = 1;
nodes = (
(70,386,l),
(521,386,l),
(521,459,l),
(70,459,l)
);
},
{
closed = 1;
nodes = (
(70,186,l),
(521,186,l),
(521,259,l),
(70,259,l)
);
}
);
};
layerId = UUID0;
shapes = (
{
closed = 1;
nodes = (
(70,386,l),
(521,386,l),
(521,459,l),
(70,459,l)
);
},
{
closed = 1;
nodes = (
(70,186,l),
(521,186,l),
(521,259,l),
(70,259,l)
);
}
);
width = 592;
},
{
background = {
shapes = (
{
closed = 1;
nodes = (
(70,409,l),
(522,409,l),
(522,435,l),
(70,435,l)
);
},
{
closed = 1;
nodes = (
(70,206,l),
(522,206,l),
(522,231,l),
(70,231,l)
);
}
);
};
layerId = "28FB090A-653E-4199-B7BE-FAE23D31B682";
shapes = (
{
closed = 1;
nodes = (
(70,409,l),
(522,409,l),
(522,435,l),
(70,435,l)
);
},
{
closed = 1;
nodes = (
(70,206,l),
(522,206,l),
(522,231,l),
(70,231,l)
);
}
);
width = 592;
},
{
background = {
shapes = (
{
closed = 1;
nodes = (
(72,355,l),
(564,355,l),
(564,484,l),
(72,484,l)
);
},
{
closed = 1;
nodes = (
(72,162,l),
(564,162,l),
(564,291,l),
(72,291,l)
);
}
);
};
layerId = "F455777D-7EDD-47E2-866A-D8A5173CE243";
shapes = (
{
closed = 1;
nodes = (
(72,355,l),
(564,355,l),
(564,484,l),
(72,484,l)
);
},
{
closed = 1;
nodes = (
(72,162,l),
(564,162,l),
(564,291,l),
(72,291,l)
);
}
);
width = 637;
},
{
background = {
shapes = (
{
closed = 1;
nodes = (
(53,405,l),
(372,405,l),
(372,432,l),
(53,432,l)
);
},
{
closed = 1;
nodes = (
(53,210,l),
(372,210,l),
(372,236,l),
(53,236.006,l)
);
}
);
};
layerId = "ADAF9463-560A-4353-9B5A-2FAD12EBF6B5";
shapes = (
{
closed = 1;
nodes = (
(53,405,l),
(372,405,l),
(372,432,l),
(53,432,l)
);
},
{
closed = 1;
nodes = (
(53,210,l),
(372,210,l),
(372,236,l),
(53,236.006,l)
);
}
);
width = 425;
},
{
background = {
shapes = (
{
closed = 1;
nodes = (
(53,384,l),
(383,384,l),
(383,449,l),
(53,449,l)
);
},
{
closed = 1;
nodes = (
(53,194,l),
(383,194,l),
(383,260,l),
(53,260,l)
);
}
);
};
layerId = "D7742CE6-1B18-47A0-AEB5-463D77EA217C";
shapes = (
{
closed = 1;
nodes = (
(53,384,l),
(383,384,l),
(383,449,l),
(53,449,l)
);
},
{
closed = 1;
nodes = (
(53,194,l),
(383,194,l),
(383,260,l),
(53,260,l)
);
}
);
width = 436;
},
{
background = {
shapes = (
{
closed = 1;
nodes = (
(53,348,l),
(402,348,l),
(402,479,l),
(53,479,l)
);
},
{
closed = 1;
nodes = (
(53,168,l),
(402,168,l),
(402,300,l),
(53,300,l)
);
}
);
};
layerId = "F138D99C-4E28-42C5-9F3E-22494052B08F";
shapes = (
{
closed = 1;
nodes = (
(53,348,l),
(402,348,l),
(402,479,l),
(53,479,l)
);
},
{
closed = 1;
nodes = (
(53,168,l),
(402,168,l),
(402,300,l),
(53,300,l)
);
}
);
width = 455;
}
);
unicode = 61;
}
{
category = Punctuation;
glyphname = question;
layers = (
{
layerId = "F455777D-7EDD-47E2-866A-D8A5173CE243";
shapes = (
{
closed = 1;
nodes = (
(184,252,l),
(334,252,l),
(334,277,ls),
(334,308,o),
(352,324,o),
(411,362,cs),
(494,415,o),
(527,469,o),
(527,546,cs),
(527,653,o),
(442,724,o),
(294,724,cs),
(196,724,o),
(113,697,o),
(40,655,c),
(108,522,l),
(173,556,o),
(231,574,o),
(280,574,cs),
(320,574,o),
(347,557,o),
(347,530,cs),
(347,503,o),
(339,481,o),
(273,439,cs),
(203,395,o),
(184,354,o),
(184,294,cs)
);
},
{
closed = 1;
nodes = (
(163,15,o),
(209,-12,o),
(266,-12,cs),
(321,-12,o),
(367,15,o),
(367,81,cs),
(367,150,o),
(321,175,o),
(266,175,cs),
(209,175,o),
(163,150,o),
(163,81,cs)
);
}
);
width = 575;
},
{
layerId = "F138D99C-4E28-42C5-9F3E-22494052B08F";
shapes = (
{
closed = 1;
nodes = (
(137,252,l),
(273,252,l),
(273,277,ls),
(273,306,o),
(275,317,o),
(325,362,cs),
(384,414,o),
(418,460,o),
(418,546,cs),
(418,655,o),
(349,724,o),
(219,724,cs),
(156,724,o),
(93,701,o),
(30,655,c),
(82,528,l),
(128,562,o),
(168,580,o),
(203,580,cs),
(242,580,o),
(260,563,o),
(260,532,cs),
(260,494,o),
(245,476,o),
(205,440,cs),
(156,396,o),
(137,359,o),
(137,294,cs)
);
},
{
closed = 1;
nodes = (
(113,22,o),
(149,-12,o),
(206,-12,cs),
(263,-12,o),
(296,22,o),
(296,81,cs),
(296,141,o),
(264,175,o),
(206,175,cs),
(146,175,o),
(113,141,o),
(113,81,cs)
);
}
);
width = 452;
},
{
layerId = UUID0;
shapes = (
{
closed = 1;
nodes = (
(180,201,l),
(250,201,l),
(250,218,ls),
(250,275,o),
(263,301,o),
(330,358,cs),
(402,418,o),
(448,459,o),
(448,549,cs),
(448,657,o),
(376,724,o),
(249,724,cs),
(169,724,o),
(105,703,o),
(52,675,c),
(83,605,l),
(129,627,o),
(177,647,o),
(243,647,cs),
(321,647,o),
(364,611,o),
(364,547,cs),
(364,487,o),
(341,463,o),
(264,398,cs),
(199,343,o),
(180,303,o),
(180,228,cs)
);
},
{
closed = 1;
nodes = (
(157,6,o),
(183,-14,o),
(219,-14,cs),
(252,-14,o),
(280,6,o),
(280,54,cs),
(280,103,o),
(252,121,o),
(219,121,cs),
(183,121,o),
(157,103,o),
(157,54,cs)
);
}
);
width = 504;
},
{
layerId = "D7742CE6-1B18-47A0-AEB5-463D77EA217C";
shapes = (
{
closed = 1;
nodes = (
(128,201,l),
(193,201,l),
(193,221,ls),
(193,275,o),
(205,306,o),
(245,358,cs),
(302,433,o),
(327,474,o),
(327,560,cs),
(327,665,o),
(273,724,o),
(175,724,cs),
(128,724,o),
(84,709,o),
(42,678,c),
(73,614,l),
(106,637,o),
(134,650,o),
(171,650,cs),
(218,650,o),
(246,617,o),
(246,553,cs),
(246,495,o),
(228,455,o),
(181,394,cs),
(140,342,o),
(128,298,o),
(128,230,cs)
);
},
{
closed = 1;
nodes = (
(108,13,o),
(128,-9,o),
(162,-9,cs),
(194,-9,o),
(216,11,o),
(216,55,cs),
(216,100,o),
(195,119,o),
(162,119,cs),
(127,119,o),
(108,97,o),
(108,55,cs)
);
}
);
width = 368;
},
{
layerId = "28FB090A-653E-4199-B7BE-FAE23D31B682";
shapes = (
{
closed = 1;
nodes = (
(174,174,l),
(199,174,l),
(199,186,ls),
(199,277,o),
(220,314,o),
(272,350,cs),
(351,405,o),
(404,454,o),
(404,554,cs),
(404,668,o),
(330,724,o),
(218,724,cs),
(164,724,o),
(126,715,o),
(68,691,c),
(78,665,l),
(126,689,o),
(169,699,o),
(218,699,cs),
(311,699,o),
(377,654,o),
(377,554,cs),
(377,463,o),
(331,422,o),
(259,371,cs),
(190,322,o),
(174,285,o),
(174,186,cs)
);
},
{
closed = 1;
nodes = (
(163,6,o),
(168,-8,o),
(188,-8,cs),
(212,-8,o),
(215,6,o),
(215,23,cs),
(215,39,o),
(212,54,o),
(188,54,cs),
(168,54,o),
(163,39,o),
(163,23,cs)
);
}
);
width = 473;
},
{
layerId = "ADAF9463-560A-4353-9B5A-2FAD12EBF6B5";
shapes = (
{
closed = 1;
nodes = (
(115,170,l),
(139,170,l),
(139,192,ls),
(139,259,o),
(144,294,o),
(191,363,cs),
(230,420,o),
(270,468,o),
(270,565,cs),
(270,674,o),
(219,724,o),
(145,724,cs),
(106,724,o),
(70,710,o),
(47,693,c),
(60,672,l),
(84,689,o),
(113,699,o),
(144,699,cs),
(207,699,o),
(243,657,o),
(243,567,cs),
(243,483,o),
(212,437,o),
(168,373,cs),
(126,312,o),
(115,274,o),
(115,193,cs)
);
},
{
closed = 1;
nodes = (
(102,9,o),
(107,-6,o),
(127,-6,cs),
(145,-6,o),
(153,7,o),
(153,31,cs),
(153,53,o),
(146,65,o),
(128,65,cs),
(107,65,o),
(102,49,o),
(102,29,cs)
);
}
);
width = 313;
}
);
script = "";
subCategory = Other;
unicode = 63;
}
{
color = 11;
export = 0;
glyphname = bracketleft.beng;
layers = (
{
background = {
shapes = (
{
closed = 1;
nodes = (
(140,-135,l),
(334,-135,l),
(334,-65,l),
(220,-65,l),
(220,722,l),
(334,722,l),
(334,792,l),
(140,792,l)
);
}
);
};
layerId = UUID0;
shapes = (
{
closed = 1;
nodes = (
(140,-135,l),
(334,-135,l),
(334,-65,l),
(220,-65,l),
(220,722,l),
(334,722,l),
(334,792,l),
(140,792,l)
);
}
);
width = 415;
},
{
background = {
shapes = (
{
closed = 1;
nodes = (
(145,-135,l),
(294,-135,l),
(294,-109,l),
(171,-109,l),
(171,766,l),
(294,766,l),
(294,792,l),
(145,792,l)
);
}
);
};
layerId = "28FB090A-653E-4199-B7BE-FAE23D31B682";
shapes = (
{
closed = 1;
nodes = (
(145,-135,l),
(294,-135,l),
(294,-109,l),
(171,-109,l),
(171,766,l),
(294,766,l),
(294,792,l),
(145,792,l)
);
}
);
width = 375;
},
{
background = {
shapes = (
{
closed = 1;
nodes = (
(128,-125,l),
(380,-125,l),
(380,-1,l),
(283,-1,l),
(283,668,l),
(380,668,l),
(380,792,l),
(128,792,l)
);
}
);
};
layerId = "F455777D-7EDD-47E2-866A-D8A5173CE243";
shapes = (
{
closed = 1;
nodes = (
(128,-125,l),
(380,-125,l),
(380,-1,l),
(283,-1,l),
(283,668,l),
(380,668,l),
(380,792,l),
(128,792,l)
);
}
);
width = 451;
},
{
background = {
shapes = (
{
closed = 1;
nodes = (
(144,-139,l),
(268,-139,l),
(268,-112,l),
(168,-112,l),
(168,765,l),
(268,765,l),
(268,792,l),
(144,792,l)
);
}
);
};
layerId = "ADAF9463-560A-4353-9B5A-2FAD12EBF6B5";
shapes = (
{
closed = 1;
nodes = (
(144,-139,l),
(268,-139,l),
(268,-112,l),
(168,-112,l),
(168,765,l),
(268,765,l),
(268,792,l),
(144,792,l)
);
}
);
width = 339;
},
{
background = {
shapes = (
{
closed = 1;
nodes = (
(139,-135,l),
(305,-135,l),
(305,-72,l),
(211,-72,l),
(211,728,l),
(305,728,l),
(305,792,l),
(139,792,l)
);
}
);
};
layerId = "D7742CE6-1B18-47A0-AEB5-463D77EA217C";
shapes = (
{
closed = 1;
nodes = (
(139,-135,l),
(305,-135,l),
(305,-72,l),
(211,-72,l),
(211,728,l),
(305,728,l),
(305,792,l),
(139,792,l)
);
}
);
width = 376;
},
{
background = {
shapes = (
{
closed = 1;
nodes = (
(130,-129,l),
(367,-129,l),
(367,-4,l),
(283,-4,l),
(283,667,l),
(367,667,l),
(367,792,l),
(130,792,l)
);
}
);
};
layerId = "F138D99C-4E28-42C5-9F3E-22494052B08F";
shapes = (
{
closed = 1;
nodes = (
(130,-129,l),
(367,-129,l),
(367,-4,l),
(283,-4,l),
(283,667,l),
(367,667,l),
(367,792,l),
(130,792,l)
);
}
);
width = 437;
}
);
unicode = 91;
}
{
category = Punctuation;
glyphname = bracketleft;
kernRight = paren.left;
layers = (
{
layerId = "F455777D-7EDD-47E2-866A-D8A5173CE243";
shapes = (
{
closed = 1;
nodes = (
(301,-44,l),
(212,-44,l),
(212,610,l),
(301,610,l),
(301,734,l),
(57,734,l),
(57,-168,l),
(301,-168,l)
);
}
);
width = 354;
},
{
layerId = "F138D99C-4E28-42C5-9F3E-22494052B08F";
shapes = (
{
closed = 1;
nodes = (
(286,-44,l),
(191,-44,l),
(191,610,l),
(286,610,l),
(286,734,l),
(41,734,l),
(41,-168,l),
(286,-168,l)
);
}
);
width = 333;
},
{
layerId = UUID0;
shapes = (
{
closed = 1;
nodes = (
(304,-86,l),
(166,-86,l),
(166,642,l),
(304,642,l),
(304,714,l),
(80,714,l),
(80,-158,l),
(304,-158,l)
);
}
);
width = 359;
},
{
associatedMasterId = UUID0;
attr = {
coordinates = (
151,
100
);
};
background = {
shapes = (
{
closed = 1;
nodes = (
(302.17,-60.38,l),
(194.06,-60.38,l),
(194.06,622.48,l),
(302.17,622.48,l),
(302.17,726.2,l),
(65.97,726.2,l),
(65.97,-164.1,l),
(302.17,-164.1,l)
);
}
);
};
layerId = "962572f6-e321-4054-af35-4769f7d38210";
name = "SemiBold (intermediate)";
shapes = (
{
closed = 1;
nodes = (
(306,-55,l),
(197,-55,l),
(197,611,l),
(306,611,l),
(306,714,l),
(70,714,l),
(70,-158,l),
(306,-158,l)
);
}
);
width = 331;
},
{
layerId = "D7742CE6-1B18-47A0-AEB5-463D77EA217C";
shapes = (
{
closed = 1;
nodes = (
(281,-93,l),
(149,-93,l),
(149,652,l),
(281,652,l),
(281,720,l),
(72,720,l),
(72,-161,l),
(281,-161,l)
);
}
);
width = 332;
},
{
layerId = "28FB090A-653E-4199-B7BE-FAE23D31B682";
shapes = (
{
closed = 1;
nodes = (
(288,-133,l),
(113,-133,l),
(113,689,l),
(288,689,l),
(288,714,l),
(88,714,l),
(88,-158,l),
(288,-158,l)
);
}
);
width = 333;
},
{
layerId = "ADAF9463-560A-4353-9B5A-2FAD12EBF6B5";
shapes = (
{
closed = 1;
nodes = (
(270,-134,l),
(109,-134,l),
(109,690,l),
(270,690,l),
(270,714,l),
(84,714,l),
(84,-158,l),
(270,-158,l)
);
}
);
width = 326;
}
);
script = "";
subCategory = Parenthesis;
unicode = 91;
}
{
color = 11;
export = 0;
glyphname = bracketright.beng;
layers = (
{
background = {
shapes = (
{
closed = 1;
nodes = (
(81,-135,l),
(275,-135,l),
(275,782,l),
(81,782,l),
(81,712,l),
(194,712,l),
(194,-65,l),
(81,-65,l)
);
}
);
};
layerId = UUID0;
shapes = (
{
closed = 1;
nodes = (
(81,-135,l),
(275,-135,l),
(275,782,l),
(81,782,l),
(81,712,l),
(194,712,l),
(194,-65,l),
(81,-65,l)
);
}
);
width = 415;
},
{
background = {
shapes = (
{
closed = 1;
nodes = (
(81,-135,l),
(230,-135,l),
(230,792,l),
(81,792,l),
(81,766,l),
(204,766,l),
(204,-109,l),
(81,-109,l)
);
}
);
};
layerId = "28FB090A-653E-4199-B7BE-FAE23D31B682";
shapes = (
{
closed = 1;
nodes = (
(81,-135,l),
(230,-135,l),
(230,792,l),
(81,792,l),
(81,766,l),
(204,766,l),
(204,-109,l),
(81,-109,l)
);
}
);
width = 375;
},
{
background = {
shapes = (
{
closed = 1;
nodes = (
(71,-125,l),
(323,-125,l),
(323,792,l),
(71,792,l),
(71,668,l),
(168,668,l),
(168,-1,l),
(71,-1,l)
);
}
);
};
layerId = "F455777D-7EDD-47E2-866A-D8A5173CE243";
shapes = (
{
closed = 1;
nodes = (
(71,-125,l),
(323,-125,l),
(323,792,l),
(71,792,l),
(71,668,l),
(168,668,l),
(168,-1,l),
(71,-1,l)
);
}
);
width = 451;
},
{
background = {
shapes = (
{
closed = 1;
nodes = (
(73,-139,l),
(198,-139,l),
(198,794,l),
(73,794,l),
(73,767,l),
(171,767,l),
(171,-112,l),
(73,-112,l)
);
}
);
};
layerId = "ADAF9463-560A-4353-9B5A-2FAD12EBF6B5";
shapes = (
{
closed = 1;
nodes = (
(73,-139,l),
(198,-139,l),
(198,794,l),
(73,794,l),
(73,767,l),
(171,767,l),
(171,-112,l),
(73,-112,l)
);
}
);
width = 339;
},
{
background = {
shapes = (
{
closed = 1;
nodes = (
(71,-135,l),
(237,-135,l),
(237,792,l),
(71,792,l),
(71,729,l),
(163,729,l),
(163,-72,l),
(71,-72,l)
);
}
);
};
layerId = "D7742CE6-1B18-47A0-AEB5-463D77EA217C";
shapes = (
{
closed = 1;
nodes = (
(71,-135,l),
(237,-135,l),
(237,792,l),
(71,792,l),
(71,729,l),
(163,729,l),
(163,-72,l),
(71,-72,l)
);
}
);
width = 376;
},
{
background = {
shapes = (
{
closed = 1;
nodes = (
(68,-129,l),
(303,-129,l),
(303,789,l),
(68,789,l),
(68,664,l),
(149,664,l),
(149,-4,l),
(68,-4,l)
);
}
);
};
layerId = "F138D99C-4E28-42C5-9F3E-22494052B08F";
shapes = (
{
closed = 1;
nodes = (
(68,-129,l),
(303,-129,l),
(303,789,l),
(68,789,l),
(68,664,l),
(149,664,l),
(149,-4,l),
(68,-4,l)
);
}
);
width = 437;
}
);
unicode = 93;
}
{
category = Punctuation;
glyphname = bracketright;
kernLeft = Paren.right;
layers = (
{
layerId = "F455777D-7EDD-47E2-866A-D8A5173CE243";
shapes = (
{
closed = 1;
nodes = (
(53,-168,l),
(297,-168,l),
(297,734,l),
(53,734,l),
(53,610,l),
(142,610,l),
(142,-44,l),
(53,-44,l)
);
}
);
width = 354;
},
{
layerId = "F138D99C-4E28-42C5-9F3E-22494052B08F";
shapes = (
{
closed = 1;
nodes = (
(48,-168,l),
(292,-168,l),
(292,734,l),
(48,734,l),
(48,610,l),
(142,610,l),
(142,-44,l),
(48,-44,l)
);
}
);
width = 333;
},
{
layerId = UUID0;
shapes = (
{
closed = 1;
nodes = (
(55,-158,l),
(279,-158,l),
(279,714,l),
(55,714,l),
(55,642,l),
(193,642,l),
(193,-86,l),
(55,-86,l)
);
}
);
width = 359;
},
{
associatedMasterId = UUID0;
attr = {
coordinates = (
151,
100
);
};
background = {
shapes = (
{
closed = 1;
nodes = (
(23.78,-164.1,l),
(259.98,-164.1,l),
(259.98,726.2,l),
(23.78,726.2,l),
(23.78,622.48,l),
(131.89,622.48,l),
(131.89,-60.38,l),
(23.78,-60.38,l)
);
}
);
};
layerId = "08c33b87-b8bf-4b5b-9d92-dbc674ba7f91";
name = "SemiBold (intermediate)";
shapes = (
{
closed = 1;
nodes = (
(25,-158,l),
(261,-158,l),
(261,714,l),
(25,714,l),
(25,611,l),
(134,611,l),
(134,-55,l),
(25,-55,l)
);
}
);
width = 331;
},
{
layerId = "D7742CE6-1B18-47A0-AEB5-463D77EA217C";
shapes = (
{
closed = 1;
nodes = (
(51,-161,l),
(260,-161,l),
(260,720,l),
(51,720,l),
(51,652,l),
(183,652,l),
(183,-93,l),
(51,-93,l)
);
}
);
width = 332;
},
{
layerId = "28FB090A-653E-4199-B7BE-FAE23D31B682";
shapes = (
{
closed = 1;
nodes = (
(45,-158,l),
(245,-158,l),
(245,714,l),
(45,714,l),
(45,689,l),
(220,689,l),
(220,-133,l),
(45,-133,l)
);
}
);
width = 333;
},
{
layerId = "ADAF9463-560A-4353-9B5A-2FAD12EBF6B5";
shapes = (
{
closed = 1;
nodes = (
(56,-158,l),
(242,-158,l),
(242,714,l),
(56,714,l),
(56,690,l),
(217,690,l),
(217,-134,l),
(56,-134,l)
);
}
);
width = 326;
}
);
script = "";
subCategory = Parenthesis;
unicode = 93;
}
{
color = 11;
export = 0;
glyphname = underscore.beng;
layers = (
{
background = {
shapes = (
{
closed = 1;
nodes = (
(-2,-158,l),
(413,-158,l),
(413,-90,l),
(-2,-90,l)
);
}
);
};
layerId = UUID0;
shapes = (
{
closed = 1;
nodes = (
(-2,-158,l),
(413,-158,l),
(413,-90,l),
(-2,-90,l)
);
}
);
width = 411;
},
{
background = {
shapes = (
{
closed = 1;
nodes = (
(-2,-116,l),
(413,-116,l),
(413,-90,l),
(-2,-90,l)
);
}
);
};
layerId = "28FB090A-653E-4199-B7BE-FAE23D31B682";
shapes = (
{
closed = 1;
nodes = (
(-2,-116,l),
(413,-116,l),
(413,-90,l),
(-2,-90,l)
);
}
);
width = 411;
},
{
background = {
shapes = (
{
closed = 1;
nodes = (
(-2,-158,l),
(413,-158,l),
(413,-90,l),
(-2,-90,l)
);
}
);
};
layerId = "F455777D-7EDD-47E2-866A-D8A5173CE243";
shapes = (
{
closed = 1;
nodes = (
(-2,-158,l),
(413,-158,l),
(413,-90,l),
(-2,-90,l)
);
}
);
width = 411;
},
{
background = {
shapes = (
{
closed = 1;
nodes = (
(0,-130,l),
(296,-130,l),
(296,-90,l),
(0,-90,l)
);
}
);
};
layerId = "ADAF9463-560A-4353-9B5A-2FAD12EBF6B5";
shapes = (
{
closed = 1;
nodes = (
(0,-130,l),
(296,-130,l),
(296,-90,l),
(0,-90,l)
);
}
);
width = 296;
},
{
background = {
shapes = (
{
closed = 1;
nodes = (
(0,-153,l),
(296,-153,l),
(296,-90,l),
(0,-90,l)
);
}
);
};
layerId = "D7742CE6-1B18-47A0-AEB5-463D77EA217C";
shapes = (
{
closed = 1;
nodes = (
(0,-153,l),
(296,-153,l),
(296,-90,l),
(0,-90,l)
);
}
);
width = 296;
},
{
background = {
shapes = (
{
closed = 1;
nodes = (
(0,-191,l),
(296,-191,l),
(296,-90,l),
(0,-90,l)
);
}
);
};
layerId = "F138D99C-4E28-42C5-9F3E-22494052B08F";
shapes = (
{
closed = 1;
nodes = (
(0,-191,l),
(296,-191,l),
(296,-90,l),
(0,-90,l)
);
}
);
width = 296;
}
);
unicode = 95;
}
{
glyphname = braceleft.beng;
layers = (
{
background = {
shapes = (
{
closed = 1;
nodes = (
(44,291,l),
(124,291,o),
(167,266,o),
(167,201,cs),
(167,6,ls),
(167,-94,o),
(239,-133,o),
(337,-135,c),
(337,-63,l),
(282,-61,o),
(248,-49,o),
(248,13,cs),
(248,206,ls),
(248,274,o),
(211,312,o),
(142,325,c),
(142,330,l),
(211,344,o),
(248,383,o),
(248,450,cs),
(248,645,ls),
(248,706,o),
(282,719,o),
(337,720,c),
(337,792,l),
(239,790,o),
(167,751,o),
(167,651,cs),
(167,455,ls),
(167,390,o),
(124,365,o),
(44,365,c)
);
}
);
};
layerId = UUID0;
shapes = (
{
closed = 1;
nodes = (
(44,291,l),
(124,291,o),
(167,266,o),
(167,201,cs),
(167,6,ls),
(167,-94,o),
(239,-133,o),
(337,-135,c),
(337,-63,l),
(282,-61,o),
(248,-49,o),
(248,13,cs),
(248,206,ls),
(248,274,o),
(211,312,o),
(142,325,c),
(142,330,l),
(211,344,o),
(248,383,o),
(248,450,cs),
(248,645,ls),
(248,706,o),
(282,719,o),
(337,720,c),
(337,792,l),
(239,790,o),
(167,751,o),
(167,651,cs),
(167,455,ls),
(167,390,o),
(124,365,o),
(44,365,c)
);
}
);
width = 391;
},
{
background = {
shapes = (
{
closed = 1;
nodes = (
(81,315,l),
(162,315,o),
(192,285,o),
(192,200,cs),
(192,-3,ls),
(192,-101,o),
(238,-135,o),
(355,-135,c),
(355,-110,l),
(249,-110,o),
(217,-84,o),
(217,3,cs),
(217,204,ls),
(217,279,o),
(196,313,o),
(139,326,c),
(139,328,l),
(197,339,o),
(217,385,o),
(217,453,cs),
(217,651,ls),
(217,732,o),
(259,767,o),
(355,767,c),
(355,792,l),
(247,792,o),
(192,744,o),
(192,657,cs),
(192,457,ls),
(192,371,o),
(162,339,o),
(81,339,c)
);
}
);
};
layerId = "28FB090A-653E-4199-B7BE-FAE23D31B682";
shapes = (
{
closed = 1;
nodes = (
(81,315,l),
(162,315,o),
(192,285,o),
(192,200,cs),
(192,-3,ls),
(192,-101,o),
(238,-135,o),
(355,-135,c),
(355,-110,l),
(249,-110,o),
(217,-84,o),
(217,3,cs),
(217,204,ls),
(217,279,o),
(196,313,o),
(139,326,c),
(139,328,l),
(197,339,o),
(217,385,o),
(217,453,cs),
(217,651,ls),
(217,732,o),
(259,767,o),
(355,767,c),
(355,792,l),
(247,792,o),
(192,744,o),
(192,657,cs),
(192,457,ls),
(192,371,o),
(162,339,o),
(81,339,c)
);
}
);
width = 436;
},
{
background = {
shapes = (
{
closed = 1;
nodes = (
(71,253,l),
(131,253,o),
(191,230,o),
(191,170,cs),
(191,43,ls),
(191,-74,o),
(237,-125,o),
(442,-125,c),
(442,11,l),
(403,12,o),
(349,14,o),
(349,63,cs),
(349,204,ls),
(349,280,o),
(308,312,o),
(232,324,c),
(232,330,l),
(306,340,o),
(349,372,o),
(349,453,cs),
(349,604,ls),
(349,654,o),
(402,655,o),
(442,656,c),
(442,792,l),
(234,792,o),
(191,740,o),
(191,626,cs),
(191,483,ls),
(191,422,o),
(133,400,o),
(71,400,c)
);
}
);
};
layerId = "F455777D-7EDD-47E2-866A-D8A5173CE243";
shapes = (
{
closed = 1;
nodes = (
(71,253,l),
(131,253,o),
(191,230,o),
(191,170,cs),
(191,43,ls),
(191,-74,o),
(237,-125,o),
(442,-125,c),
(442,11,l),
(403,12,o),
(349,14,o),
(349,63,cs),
(349,204,ls),
(349,280,o),
(308,312,o),
(232,324,c),
(232,330,l),
(306,340,o),
(349,372,o),
(349,453,cs),
(349,604,ls),
(349,654,o),
(402,655,o),
(442,656,c),
(442,792,l),
(234,792,o),
(191,740,o),
(191,626,cs),
(191,483,ls),
(191,422,o),
(133,400,o),
(71,400,c)
);
}
);
width = 513;
},
{
background = {
shapes = (
{
closed = 1;
nodes = (
(77,315,l),
(140,315,o),
(159,287,o),
(159,213,cs),
(159,-12,ls),
(159,-106,o),
(202,-138,o),
(286,-139,c),
(286,-116,l),
(206,-116,o),
(183,-96,o),
(183,-18,cs),
(183,207,ls),
(183,277,o),
(166,310,o),
(124,323,c),
(124,326,l),
(167,338,o),
(183,380,o),
(183,445,cs),
(183,669,ls),
(183,742,o),
(212,768,o),
(286,768,c),
(286,792,l),
(207,790,o),
(159,748,o),
(159,662,cs),
(159,440,ls),
(159,365,o),
(139,335,o),
(77,335,c)
);
}
);
};
layerId = "ADAF9463-560A-4353-9B5A-2FAD12EBF6B5";
shapes = (
{
closed = 1;
nodes = (
(77,315,l),
(140,315,o),
(159,287,o),
(159,213,cs),
(159,-12,ls),
(159,-106,o),
(202,-138,o),
(286,-139,c),
(286,-116,l),
(206,-116,o),
(183,-96,o),
(183,-18,cs),
(183,207,ls),
(183,277,o),
(166,310,o),
(124,323,c),
(124,326,l),
(167,338,o),
(183,380,o),
(183,445,cs),
(183,669,ls),
(183,742,o),
(212,768,o),
(286,768,c),
(286,792,l),
(207,790,o),
(159,748,o),
(159,662,cs),
(159,440,ls),
(159,365,o),
(139,335,o),
(77,335,c)
);
}
);
width = 362;
},
{
background = {
shapes = (
{
closed = 1;
nodes = (
(72,296,l),
(135,296,o),
(161,269,o),
(161,202,cs),
(161,4,ls),
(161,-96,o),
(207,-133,o),
(309,-135,c),
(309,-71,l),
(257,-70,o),
(233,-57,o),
(233,9,cs),
(233,206,ls),
(233,274,o),
(207,312,o),
(157,325,c),
(157,330,l),
(207,343,o),
(233,383,o),
(233,450,cs),
(233,648,ls),
(233,712,o),
(258,727,o),
(309,728,c),
(309,792,l),
(207,790,o),
(161,750,o),
(161,652,cs),
(161,454,ls),
(161,387,o),
(134,360,o),
(72,360,c)
);
}
);
};
layerId = "D7742CE6-1B18-47A0-AEB5-463D77EA217C";
shapes = (
{
closed = 1;
nodes = (
(72,296,l),
(135,296,o),
(161,269,o),
(161,202,cs),
(161,4,ls),
(161,-96,o),
(207,-133,o),
(309,-135,c),
(309,-71,l),
(257,-70,o),
(233,-57,o),
(233,9,cs),
(233,206,ls),
(233,274,o),
(207,312,o),
(157,325,c),
(157,330,l),
(207,343,o),
(233,383,o),
(233,450,cs),
(233,648,ls),
(233,712,o),
(258,727,o),
(309,728,c),
(309,792,l),
(207,790,o),
(161,750,o),
(161,652,cs),
(161,454,ls),
(161,387,o),
(134,360,o),
(72,360,c)
);
}
);
width = 380;
},
{
background = {
shapes = (
{
closed = 1;
nodes = (
(63,263,l),
(126,263,o),
(164,238,o),
(164,183,cs),
(164,30,ls),
(164,-79,o),
(214,-126,o),
(347,-129,c),
(347,5,l),
(344,7,o),
(318,9,o),
(318,53,cs),
(318,204,ls),
(318,269,o),
(276,315,o),
(212,328,c),
(212,336,l),
(275,352,o),
(318,388,o),
(318,457,cs),
(318,612,ls),
(318,661,o),
(335,658,o),
(347,660,c),
(347,792,l),
(207,790,o),
(164,753,o),
(164,635,cs),
(164,476,ls),
(164,424,o),
(125,401,o),
(63,401,c)
);
}
);
};
layerId = "F138D99C-4E28-42C5-9F3E-22494052B08F";
shapes = (
{
closed = 1;
nodes = (
(63,263,l),
(126,263,o),
(164,238,o),
(164,183,cs),
(164,30,ls),
(164,-79,o),
(214,-126,o),
(347,-129,c),
(347,5,l),
(344,7,o),
(318,9,o),
(318,53,cs),
(318,204,ls),
(318,269,o),
(276,315,o),
(212,328,c),
(212,336,l),
(275,352,o),
(318,388,o),
(318,457,cs),
(318,612,ls),
(318,661,o),
(335,658,o),
(347,660,c),
(347,792,l),
(207,790,o),
(164,753,o),
(164,635,cs),
(164,476,ls),
(164,424,o),
(125,401,o),
(63,401,c)
);
}
);
width = 412;
}
);
unicode = 123;
}
{
color = 11;
export = 0;
glyphname = bar.beng;
layers = (
{
background = {
shapes = (
{
closed = 1;
nodes = (
(234,-135,l),
(306,-135,l),
(306,792,l),
(234,792,l)
);
}
);
};
layerId = UUID0;
shapes = (
{
closed = 1;
nodes = (
(234,-135,l),
(306,-135,l),
(306,792,l),
(234,792,l)
);
}
);
width = 540;
},
{
background = {
shapes = (
{
closed = 1;
nodes = (
(257,-135,l),
(283,-135,l),
(283,792,l),
(257,792,l)
);
}
);
};
layerId = "28FB090A-653E-4199-B7BE-FAE23D31B682";
shapes = (
{
closed = 1;
nodes = (
(257,-135,l),
(283,-135,l),
(283,792,l),
(257,792,l)
);
}
);
width = 540;
},
{
background = {
shapes = (
{
closed = 1;
nodes = (
(201,-125,l),
(336,-125,l),
(336,792,l),
(201,792,l)
);
}
);
};
layerId = "F455777D-7EDD-47E2-866A-D8A5173CE243";
shapes = (
{
closed = 1;
nodes = (
(201,-125,l),
(336,-125,l),
(336,792,l),
(201,792,l)
);
}
);
width = 540;
},
{
background = {
shapes = (
{
closed = 1;
nodes = (
(186,-139,l),
(211,-139,l),
(211,792,l),
(186,792,l)
);
}
);
};
layerId = "ADAF9463-560A-4353-9B5A-2FAD12EBF6B5";
shapes = (
{
closed = 1;
nodes = (
(186,-139,l),
(211,-139,l),
(211,792,l),
(186,792,l)
);
}
);
width = 396;
},
{
background = {
shapes = (
{
closed = 1;
nodes = (
(167,-135,l),
(230,-135,l),
(230,792,l),
(167,792,l)
);
}
);
};
layerId = "D7742CE6-1B18-47A0-AEB5-463D77EA217C";
shapes = (
{
closed = 1;
nodes = (
(167,-135,l),
(230,-135,l),
(230,792,l),
(167,792,l)
);
}
);
width = 396;
},
{
background = {
shapes = (
{
closed = 1;
nodes = (
(134,-129,l),
(263,-129,l),
(263,792,l),
(134,792,l)
);
}
);
};
layerId = "F138D99C-4E28-42C5-9F3E-22494052B08F";
shapes = (
{
closed = 1;
nodes = (
(134,-129,l),
(263,-129,l),
(263,792,l),
(134,792,l)
);
}
);
width = 396;
}
);
unicode = 124;
}
{
category = Punctuation;
glyphname = braceright;
kernLeft = Paren.right;
layers = (
{
layerId = "F455777D-7EDD-47E2-866A-D8A5173CE243";
shapes = (
{
closed = 1;
nodes = (
(62,-168,l),
(267,-168,o),
(313,-117,o),
(313,0,cs),
(313,121,ls),
(313,181,o),
(373,204,o),
(433,204,c),
(433,351,l),
(371,351,o),
(313,373,o),
(313,434,cs),
(313,558,ls),
(313,672,o),
(270,724,o),
(62,724,c),
(62,588,l),
(102,587,o),
(155,586,o),
(155,536,cs),
(155,404,ls),
(155,323,o),
(198,291,o),
(272,281,c),
(272,275,l),
(196,263,o),
(155,231,o),
(155,155,cs),
(155,20,ls),
(155,-29,o),
(101,-31,o),
(62,-32,c)
);
}
);
width = 463;
},
{
layerId = "F138D99C-4E28-42C5-9F3E-22494052B08F";
shapes = (
{
closed = 1;
nodes = (
(50,-168,l),
(240,-168,o),
(282,-125,o),
(282,0,cs),
(282,130,ls),
(282,182,o),
(316,213,o),
(384,213,c),
(384,342,l),
(314,342,o),
(282,373,o),
(282,425,cs),
(282,558,ls),
(282,691,o),
(226,724,o),
(50,724,c),
(50,595,l),
(93,593,o),
(130,591,o),
(130,543,cs),
(130,404,ls),
(130,330,o),
(156,292,o),
(219,281,c),
(219,275,l),
(155,262,o),
(130,225,o),
(130,155,cs),
(130,14,ls),
(130,-27,o),
(111,-36,o),
(50,-39,c)
);
}
);
width = 397;
},
{
layerId = UUID0;
shapes = (
{
closed = 1;
nodes = (
(62,-158,l),
(179,-158,o),
(260,-106,o),
(260,0,cs),
(260,149,ls),
(260,216,o),
(303,241,o),
(382,242,c),
(382,315,l),
(303,315,o),
(260,341,o),
(260,409,cs),
(260,555,ls),
(260,662,o),
(185,713,o),
(62,714,c),
(62,642,l),
(133,641,o),
(173,614,o),
(173,549,cs),
(173,403,ls),
(173,335,o),
(208,294,o),
(282,281,c),
(282,275,l),
(209,262,o),
(173,221,o),
(173,153,cs),
(173,8,ls),
(173,-57,o),
(131,-84,o),
(62,-86,c)
);
}
);
width = 410;
},
{
associatedMasterId = UUID0;
attr = {
coordinates = (
151,
100
);
};
background = {
shapes = (
{
closed = 1;
nodes = (
(32,-164.1,l),
(202.68,-164.1,o),
(262.33,-112.71,o),
(262.33,0,cs),
(262.33,131.92,ls),
(262.33,194.65,o),
(315.7,218.43,o),
(383.11,218.82,c),
(383.11,336.96,l),
(314.48,336.96,o),
(262.33,360.52,o),
(262.33,424.25,cs),
(262.33,556.83,ls),
(262.33,668.1,o),
(206.85,719.71,o),
(32,720.1,c),
(32,609.06,l),
(84.09,608.06,o),
(132.02,596.92,o),
(132.02,541.07,cs),
(132.02,403.61,ls),
(132.02,327.68,o),
(171.9,292.17,o),
(245.9,281,c),
(245.9,275,l),
(171.07,262.61,o),
(132.02,227.1,o),
(132.02,154.22,cs),
(132.02,15.32,ls),
(132.02,-39.92,o),
(82.7,-51.67,o),
(32,-53.06,c)
);
}
);
};
layerId = "70e177e3-0b1a-4b3b-8186-8c0c14560f9e";
name = "SemiBold (intermediate)";
shapes = (
{
closed = 1;
nodes = (
(40,-158,l),
(211,-158,o),
(254,-118,o),
(254,-22,cs),
(254,132,l),
(254,195,o),
(298,219,o),
(379,219,c),
(379,336,l),
(298,336,o),
(254,360,o),
(254,423,cs),
(254,578,ls),
(254,674,o),
(211,714,o),
(40,714,c),
(40,604,l),
(92,603,o),
(125,591,o),
(125,535,cs),
(125,389,ls),
(125,328,o),
(165,292,o),
(239,281,c),
(239,275,l),
(165,264,o),
(125,228,o),
(125,167,cs),
(125,21,ls),
(125,-35,o),
(92,-47,o),
(40,-48,c)
);
}
);
width = 394;
},
{
layerId = "D7742CE6-1B18-47A0-AEB5-463D77EA217C";
shapes = (
{
closed = 1;
nodes = (
(61,-161,l),
(187,-159,o),
(239,-106,o),
(239,-1,cs),
(239,149,ls),
(239,219,o),
(266,247,o),
(340,247,c),
(340,309,l),
(260,309,o),
(239,343,o),
(239,407,cs),
(239,558,ls),
(239,665,o),
(181,715,o),
(61,717,c),
(61,651,l),
(125,649,o),
(160,624,o),
(160,555,cs),
(160,405,ls),
(160,331,o),
(186,292,o),
(253,280,c),
(253,276,l),
(186,263,o),
(160,224,o),
(160,151,cs),
(160,1,ls),
(160,-66,o),
(131,-94,o),
(61,-95,c)
);
}
);
width = 382;
},
{
layerId = "28FB090A-653E-4199-B7BE-FAE23D31B682";
shapes = (
{
closed = 1;
nodes = (
(56,-158,l),
(165,-158,o),
(220,-110,o),
(220,-23,cs),
(220,148,ls),
(220,231,o),
(250,266,o),
(330,266,c),
(330,290,l),
(250,290,o),
(220,322,o),
(220,408,cs),
(220,579,ls),
(220,666,o),
(165,714,o),
(56,714,c),
(56,689,l),
(151,689,o),
(193,654,o),
(193,573,cs),
(193,404,ls),
(193,336,o),
(213,290,o),
(272,279,c),
(272,277,l),
(213,266,o),
(193,220,o),
(193,152,cs),
(193,-20,ls),
(193,-98,o),
(151,-133,o),
(56,-133,c)
);
}
);
width = 357;
},
{
layerId = "ADAF9463-560A-4353-9B5A-2FAD12EBF6B5";
shapes = (
{
closed = 1;
nodes = (
(70,-158,l),
(169,-156,o),
(214,-125,o),
(214,-19,cs),
(214,148,ls),
(214,247,o),
(243,265,o),
(313,266,c),
(313,290,l),
(243,291,o),
(214,309,o),
(214,405,cs),
(214,577,ls),
(214,681,o),
(169,712,o),
(70,714,c),
(70,689,l),
(157,689,o),
(187,661,o),
(187,568,cs),
(187,393,ls),
(187,320,o),
(207,289,o),
(254,278,c),
(254,277,l),
(207,267,o),
(187,236,o),
(187,160,cs),
(187,-11,ls),
(187,-105,o),
(157,-133,o),
(70,-133,c)
);
}
);
width = 366;
}
);
script = "";
subCategory = Parenthesis;
unicode = 125;
}
{
color = 0;
glyphname = uni02BC;
layers = (
{
background = {
shapes = (
{
ref = quoteright.beng;
}
);
};
layerId = UUID0;
shapes = (
{
closed = 1;
nodes = (
(148,484,l),
(181,557,o),
(216,647,o),
(234,718,c),
(227,729,l),
(130,729,l),
(120,661,o),
(99,563,o),
(81,484,c)
);
}
);
width = 312;
},
{
background = {
shapes = (
{
ref = quoteright.beng;
}
);
};
layerId = "28FB090A-653E-4199-B7BE-FAE23D31B682";
shapes = (
{
closed = 1;
nodes = (
(104,484,l),
(132,553,o),
(154,643,o),
(169,717,c),
(166,729,l),
(138,729,l),
(127,653,o),
(111,581,o),
(82,484,c)
);
}
);
width = 251;
},
{
background = {
shapes = (
{
ref = quoteright.beng;
}
);
};
layerId = "F455777D-7EDD-47E2-866A-D8A5173CE243";
shapes = (
{
closed = 1;
nodes = (
(219,444,l),
(252,518,o),
(287,646,o),
(305,718,c),
(298,729,l),
(131,729,l),
(122,649,o),
(102,535,o),
(83,444,c)
);
}
);
width = 354;
},
{
background = {
shapes = (
{
alignment = -1;
ref = quoteright.beng;
}
);
};
layerId = "ADAF9463-560A-4353-9B5A-2FAD12EBF6B5";
shapes = (
{
closed = 1;
nodes = (
(94,484,l),
(123,554,o),
(141,632,o),
(158,717,c),
(155,729,l),
(126,729,l),
(118,653,o),
(105,578,o),
(77,484,c)
);
}
);
width = 244;
},
{
background = {
shapes = (
{
alignment = -1;
ref = quoteright.beng;
}
);
};
layerId = "D7742CE6-1B18-47A0-AEB5-463D77EA217C";
shapes = (
{
closed = 1;
nodes = (
(136,484,l),
(168,556,o),
(193,634,o),
(212,718,c),
(206,729,l),
(124,729,l),
(117,658,o),
(101,568,o),
(79,484,c)
);
}
);
width = 286;
},
{
background = {
shapes = (
{
alignment = -1;
ref = quoteright.beng;
}
);
};
layerId = "F138D99C-4E28-42C5-9F3E-22494052B08F";
shapes = (
{
closed = 1;
nodes = (
(207,484,l),
(244,559,o),
(281,637,o),
(303,720,c),
(293,729,l),
(121,729,l),
(115,665,o),
(95,551,o),
(82,484,c)
);
}
);
width = 357;
}
);
unicode = 700;
}
{
category = Mark;
glyphname = uni0951;
layers = (
{
anchors = (
{
name = _top_vedic;
pos = (0,622);
}
);
background = {
anchors = (
{
name = _top_vedic;
pos = (0,622);
}
);
shapes = (
{
closed = 1;
nodes = (
(-35,1228,l),
(-35,937,l),
(36,937,l),
(36,1228,l)
);
}
);
};
layerId = UUID0;
shapes = (
{
closed = 1;
nodes = (
(-35,1228,l),
(-35,937,l),
(36,937,l),
(36,1228,l)
);
}
);
width = 0;
},
{
anchors = (
{
name = _top_vedic;
pos = (0,607);
}
);
background = {
anchors = (
{
name = _top_vedic;
pos = (0,607);
}
);
shapes = (
{
closed = 1;
nodes = (
(-13,1228,l),
(-13,937,l),
(13,937,l),
(13,1228,l)
);
}
);
};
layerId = "28FB090A-653E-4199-B7BE-FAE23D31B682";
shapes = (
{
closed = 1;
nodes = (
(-13,1228,l),
(-13,937,l),
(13,937,l),
(13,1228,l)
);
}
);
width = 0;
},
{
anchors = (
{
name = _top_vedic;
pos = (0,635);
}
);
background = {
anchors = (
{
name = _top_vedic;
pos = (0,635);
}
);
shapes = (
{
closed = 1;
nodes = (
(-55,1231,l),
(-55,937,l),
(55,937,l),
(55,1231,l)
);
}
);
};
layerId = "F455777D-7EDD-47E2-866A-D8A5173CE243";
shapes = (
{
closed = 1;
nodes = (
(-55,1231,l),
(-55,937,l),
(55,937,l),
(55,1231,l)
);
}
);
width = 0;
},
{
anchors = (
{
name = _top_vedic;
pos = (0,607);
}
);
background = {
anchors = (
{
name = _top_vedic;
pos = (0,607);
}
);
shapes = (
{
closed = 1;
nodes = (
(-10,1228,l),
(-10,937,l),
(10,937,l),
(10,1228,l)
);
}
);
};
layerId = "ADAF9463-560A-4353-9B5A-2FAD12EBF6B5";
shapes = (
{
closed = 1;
nodes = (
(-10,1228,l),
(-10,937,l),
(10,937,l),
(10,1228,l)
);
}
);
width = 0;
},
{
anchors = (
{
name = _top_vedic;
pos = (0,620);
}
);
background = {
anchors = (
{
name = _top_vedic;
pos = (0,620);
}
);
shapes = (
{
closed = 1;
nodes = (
(-29,1228,l),
(-29,937,l),
(29,937,l),
(29,1228,l)
);
}
);
};
layerId = "D7742CE6-1B18-47A0-AEB5-463D77EA217C";
shapes = (
{
closed = 1;
nodes = (
(-29,1228,l),
(-29,937,l),
(29,937,l),
(29,1228,l)
);
}
);
width = 0;
},
{
anchors = (
{
name = _top_vedic;
pos = (0,633);
}
);
background = {
anchors = (
{
name = _top_vedic;
pos = (0,633);
}
);
shapes = (
{
closed = 1;
nodes = (
(-48,1231,l),
(-48,937,l),
(48,937,l),
(48,1231,l)
);
}
);
};
layerId = "F138D99C-4E28-42C5-9F3E-22494052B08F";
shapes = (
{
closed = 1;
nodes = (
(-48,1231,l),
(-48,937,l),
(48,937,l),
(48,1231,l)
);
}
);
width = 0;
}
);
subCategory = Nonspacing;
unicode = 2385;
}
{
category = Mark;
glyphname = uni0952;
layers = (
{
anchors = (
{
name = _top_vedic;
pos = (0,714);
}
);
background = {
anchors = (
{
name = _top_vedic;
pos = (0,622);
}
);
shapes = (
{
closed = 1;
nodes = (
(188,-500,l),
(188,-429,l),
(-188,-429,l),
(-188,-500,l)
);
}
);
};
layerId = UUID0;
shapes = (
{
closed = 1;
nodes = (
(188,-408,l),
(188,-337,l),
(-188,-337,l),
(-188,-408,l)
);
}
);
width = 0;
},
{
anchors = (
{
name = _top_vedic;
pos = (0,692);
}
);
background = {
anchors = (
{
name = _top_vedic;
pos = (0,607);
}
);
shapes = (
{
closed = 1;
nodes = (
(184,-493,l),
(184,-467,l),
(-184,-467,l),
(-184,-493,l)
);
}
);
};
layerId = "28FB090A-653E-4199-B7BE-FAE23D31B682";
shapes = (
{
closed = 1;
nodes = (
(184,-408,l),
(184,-382,l),
(-184,-382,l),
(-184,-408,l)
);
}
);
width = 0;
},
{
anchors = (
{
name = _top_vedic;
pos = (1,733);
}
);
background = {
anchors = (
{
name = _top_vedic;
pos = (1,635);
}
);
shapes = (
{
closed = 1;
nodes = (
(213,-506,l),
(213,-399,l),
(-213,-399,l),
(-213,-506,l)
);
}
);
};
layerId = "F455777D-7EDD-47E2-866A-D8A5173CE243";
shapes = (
{
closed = 1;
nodes = (
(213,-408,l),
(213,-301,l),
(-213,-301,l),
(-213,-408,l)
);
}
);
width = 0;
},
{
anchors = (
{
name = _top_vedic;
pos = (0,686);
}
);
background = {
anchors = (
{
name = _top_vedic;
pos = (0,607);
}
);
shapes = (
{
closed = 1;
nodes = (
(128,-487,l),
(128,-468,l),
(-128,-468,l),
(-128,-487,l)
);
}
);
};
layerId = "ADAF9463-560A-4353-9B5A-2FAD12EBF6B5";
shapes = (
{
closed = 1;
nodes = (
(128,-408,l),
(128,-389,l),
(-128,-389,l),
(-128,-408,l)
);
}
);
width = 0;
},
{
anchors = (
{
name = _top_vedic;
pos = (0,711);
}
);
background = {
anchors = (
{
name = _top_vedic;
pos = (0,620);
}
);
shapes = (
{
closed = 1;
nodes = (
(144,-499,l),
(144,-435,l),
(-144,-435,l),
(-144,-499,l)
);
}
);
};
layerId = "D7742CE6-1B18-47A0-AEB5-463D77EA217C";
shapes = (
{
closed = 1;
nodes = (
(144,-408,l),
(144,-344,l),
(-144,-344,l),
(-144,-408,l)
);
}
);
width = 0;
},
{
anchors = (
{
name = _top_vedic;
pos = (1,727);
}
);
background = {
anchors = (
{
name = _top_vedic;
pos = (1,633);
}
);
shapes = (
{
closed = 1;
nodes = (
(171,-502,l),
(171,-404,l),
(-171,-404,l),
(-171,-502,l)
);
}
);
};
layerId = "F138D99C-4E28-42C5-9F3E-22494052B08F";
shapes = (
{
closed = 1;
nodes = (
(171,-408,l),
(171,-310,l),
(-171,-310,l),
(-171,-408,l)
);
}
);
width = 0;
}
);
subCategory = Nonspacing;
unicode = 2386;
}
{
glyphname = "anusvara-beng";
layers = (
{
anchors = (
{
name = top_vedic;
pos = (219,622);
}
);
background = {
anchors = (
{
name = top_vedic;
pos = (219,622);
}
);
shapes = (
{
closed = 1;
nodes = (
(424,-8,l),
(359,110,o),
(249,238,o),
(123,314,c),
(73,250,l),
(206,168,o),
(276,85,o),
(359,-41,c)
);
},
{
closed = 1;
nodes = (
(299,349,o),
(360,403,o),
(360,486,cs),
(360,569,o),
(299,622,o),
(219,622,cs),
(139,622,o),
(78,568,o),
(78,486,cs),
(78,403,o),
(139,349,o),
(219,349,cs)
);
},
{
closed = 1;
nodes = (
(177,414,o),
(147,442,o),
(147,486,cs),
(147,529,o),
(177,557,o),
(219,557,cs),
(261,557,o),
(291,530,o),
(291,486,cs),
(291,442,o),
(261,414,o),
(219,414,cs)
);
}
);
};
layerId = UUID0;
shapes = (
{
closed = 1;
nodes = (
(424,-8,l),
(359,110,o),
(249,238,o),
(123,314,c),
(73,250,l),
(206,168,o),
(276,85,o),
(359,-41,c)
);
},
{
closed = 1;
nodes = (
(299,349,o),
(360,403,o),
(360,486,cs),
(360,569,o),
(299,622,o),
(219,622,cs),
(139,622,o),
(78,568,o),
(78,486,cs),
(78,403,o),
(139,349,o),
(219,349,cs)
);
},
{
closed = 1;
nodes = (
(177,414,o),
(147,442,o),
(147,486,cs),
(147,529,o),
(177,557,o),
(219,557,cs),
(261,557,o),
(291,530,o),
(291,486,cs),
(291,442,o),
(261,414,o),
(219,414,cs)
);
}
);
width = 438;
},
{
anchors = (
{
name = top_vedic;
pos = (211,607);
}
);
background = {
anchors = (
{
name = top_vedic;
pos = (211,607);
}
);
shapes = (
{
closed = 1;
nodes = (
(403,-24,l),
(318,116,o),
(214,229,o),
(84,310,c),
(72,291,l),
(201,210,o),
(289,116,o),
(386,-33,c)
);
},
{
closed = 1;
nodes = (
(285,359,o),
(336,407,o),
(336,483,cs),
(336,559,o),
(285,607,o),
(210,607,cs),
(135,607,o),
(84,559,o),
(84,483,cs),
(84,407,o),
(135,359,o),
(210,359,cs)
);
},
{
closed = 1;
nodes = (
(149,380,o),
(105,418,o),
(105,483,cs),
(105,548,o),
(149,586,o),
(210,586,cs),
(271,586,o),
(315,548,o),
(315,483,cs),
(315,418,o),
(271,380,o),
(210,380,cs)
);
}
);
};
layerId = "28FB090A-653E-4199-B7BE-FAE23D31B682";
shapes = (
{
closed = 1;
nodes = (
(403,-24,l),
(318,116,o),
(214,229,o),
(84,310,c),
(72,291,l),
(201,210,o),
(289,116,o),
(386,-33,c)
);
},
{
closed = 1;
nodes = (
(285,359,o),
(336,407,o),
(336,483,cs),
(336,559,o),
(285,607,o),
(210,607,cs),
(135,607,o),
(84,559,o),
(84,483,cs),
(84,407,o),
(135,359,o),
(210,359,cs)
);
},
{
closed = 1;
nodes = (
(149,380,o),
(105,418,o),
(105,483,cs),
(105,548,o),
(149,586,o),
(210,586,cs),
(271,586,o),
(315,548,o),
(315,483,cs),
(315,418,o),
(271,380,o),
(210,380,cs)
);
}
);
width = 422;
},
{
anchors = (
{
name = top_vedic;
pos = (225,635);
}
);
background = {
anchors = (
{
name = top_vedic;
pos = (225,635);
}
);
shapes = (
{
closed = 1;
nodes = (
(119,635,o),
(50,571,o),
(50,480,cs),
(50,385,o),
(122,326,o),
(226,326,cs),
(329,326,o),
(401,381,o),
(401,480,cs),
(401,567,o),
(326,635,o),
(223,635,cs)
);
},
{
closed = 1;
nodes = (
(247,520,o),
(264,505,o),
(264,480,cs),
(264,457,o),
(247,442,o),
(226,442,cs),
(204,442,o),
(186,457,o),
(186,480,cs),
(186,505,o),
(204,520,o),
(226,520,cs)
);
}
);
};
layerId = "F455777D-7EDD-47E2-866A-D8A5173CE243";
shapes = (
{
closed = 1;
nodes = (
(437,19,l),
(366,142,o),
(235,255,o),
(129,321,c),
(25,186,l),
(131,121,o),
(244,27,o),
(314,-70,c)
);
},
{
closed = 1;
nodes = (
(328,327,o),
(400,382,o),
(400,481,cs),
(400,580,o),
(328,635,o),
(225,635,cs),
(122,635,o),
(50,580,o),
(50,481,cs),
(50,382,o),
(122,327,o),
(225,327,cs)
);
},
{
closed = 1;
nodes = (
(204,443,o),
(187,458,o),
(187,481,cs),
(187,504,o),
(204,519,o),
(225,519,cs),
(246,519,o),
(263,504,o),
(263,481,cs),
(263,458,o),
(246,443,o),
(225,443,cs)
);
}
);
width = 451;
},
{
anchors = (
{
name = top_vedic;
pos = (147,607);
}
);
background = {
anchors = (
{
name = top_vedic;
pos = (147,607);
}
);
shapes = (
{
closed = 1;
nodes = (
(282,-24,l),
(226,120,o),
(153,230,o),
(64,311,c),
(49,295,l),
(144,210,o),
(210,106,o),
(267,-31,c)
);
},
{
closed = 1;
nodes = (
(201,359,o),
(238,405,o),
(238,483,cs),
(238,561,o),
(201,607,o),
(148,607,cs),
(95,607,o),
(58,561,o),
(58,483,cs),
(58,405,o),
(95,359,o),
(148,359,cs)
);
},
{
closed = 1;
nodes = (
(107,377,o),
(77,416,o),
(77,483,cs),
(77,550,o),
(107,589,o),
(148,589,cs),
(189,589,o),
(219,550,o),
(219,483,cs),
(219,416,o),
(189,377,o),
(148,377,cs)
);
}
);
};
layerId = "ADAF9463-560A-4353-9B5A-2FAD12EBF6B5";
shapes = (
{
closed = 1;
nodes = (
(282,-24,l),
(226,120,o),
(153,230,o),
(64,311,c),
(49,295,l),
(144,210,o),
(210,106,o),
(267,-31,c)
);
},
{
closed = 1;
nodes = (
(201,359,o),
(238,405,o),
(238,483,cs),
(238,561,o),
(201,607,o),
(148,607,cs),
(95,607,o),
(58,561,o),
(58,483,cs),
(58,405,o),
(95,359,o),
(148,359,cs)
);
},
{
closed = 1;
nodes = (
(107,377,o),
(77,416,o),
(77,483,cs),
(77,550,o),
(107,589,o),
(148,589,cs),
(189,589,o),
(219,550,o),
(219,483,cs),
(219,416,o),
(189,377,o),
(148,377,cs)
);
}
);
width = 295;
},
{
anchors = (
{
name = top_vedic;
pos = (163,621);
}
);
background = {
anchors = (
{
name = top_vedic;
pos = (163,621);
}
);
shapes = (
{
closed = 1;
nodes = (
(317,-10,l),
(265,115,o),
(195,228,o),
(95,313,c),
(44,263,l),
(144,179,o),
(208,88,o),
(263,-37,c)
);
},
{
closed = 1;
nodes = (
(227,352,o),
(274,402,o),
(274,487,cs),
(274,570,o),
(227,621,o),
(164,621,cs),
(100,621,o),
(53,570,o),
(53,487,cs),
(53,402,o),
(100,352,o),
(164,352,cs)
);
},
{
closed = 1;
nodes = (
(134,410,o),
(114,438,o),
(114,487,cs),
(114,534,o),
(134,562,o),
(164,562,cs),
(193,562,o),
(213,534,o),
(213,487,cs),
(213,438,o),
(193,410,o),
(164,410,cs)
);
}
);
};
layerId = "D7742CE6-1B18-47A0-AEB5-463D77EA217C";
shapes = (
{
closed = 1;
nodes = (
(317,-10,l),
(265,115,o),
(195,228,o),
(95,313,c),
(44,263,l),
(144,179,o),
(208,88,o),
(263,-37,c)
);
},
{
closed = 1;
nodes = (
(227,352,o),
(274,402,o),
(274,487,cs),
(274,570,o),
(227,621,o),
(164,621,cs),
(100,621,o),
(53,570,o),
(53,487,cs),
(53,402,o),
(100,352,o),
(164,352,cs)
);
},
{
closed = 1;
nodes = (
(134,410,o),
(114,438,o),
(114,487,cs),
(114,534,o),
(134,562,o),
(164,562,cs),
(193,562,o),
(213,534,o),
(213,487,cs),
(213,438,o),
(193,410,o),
(164,410,cs)
);
}
);
width = 327;
},
{
anchors = (
{
name = top_vedic;
pos = (175,634);
}
);
background = {
anchors = (
{
name = top_vedic;
pos = (175,634);
}
);
shapes = (
{
closed = 1;
nodes = (
(340,12,l),
(283,136,o),
(199,249,o),
(124,316,c),
(27,223,l),
(112,149,o),
(188,55,o),
(241,-49,c)
);
},
{
closed = 1;
nodes = (
(251,338,o),
(310,396,o),
(310,486,cs),
(310,576,o),
(251,634,o),
(175,634,cs),
(99,634,o),
(41,576,o),
(41,486,cs),
(41,396,o),
(99,338,o),
(175,338,cs)
);
},
{
closed = 1;
nodes = (
(158,436,o),
(148,457,o),
(148,486,cs),
(148,515,o),
(158,536,o),
(175,536,cs),
(192,536,o),
(203,515,o),
(203,486,cs),
(203,457,o),
(192,436,o),
(175,436,cs)
);
}
);
};
layerId = "F138D99C-4E28-42C5-9F3E-22494052B08F";
shapes = (
{
closed = 1;
nodes = (
(346,12,l),
(279,136,o),
(189,254,o),
(114,321,c),
(7,213,l),
(86,144,o),
(170,45,o),
(237,-59,c)
);
},
{
closed = 1;
nodes = (
(255,330,o),
(324,387,o),
(324,481,cs),
(324,576,o),
(255,632,o),
(175,632,cs),
(95,632,o),
(27,576,o),
(27,481,cs),
(27,387,o),
(95,330,o),
(175,330,cs)
);
},
{
closed = 1;
nodes = (
(158,446,o),
(148,462,o),
(148,481,cs),
(148,500,o),
(158,516,o),
(175,516,cs),
(192,516,o),
(203,500,o),
(203,481,cs),
(203,462,o),
(192,446,o),
(175,446,cs)
);
}
);
width = 351;
}
);
script = bengali;
unicode = 2434;
}
{
glyphname = "visarga-beng";
layers = (
{
anchors = (
{
name = top_vedic;
pos = (219,622);
}
);
background = {
anchors = (
{
name = top_vedic;
pos = (219,622);
}
);
shapes = (
{
closed = 1;
nodes = (
(299,349,o),
(360,403,o),
(360,486,cs),
(360,569,o),
(299,622,o),
(219,622,cs),
(139,622,o),
(78,568,o),
(78,486,cs),
(78,403,o),
(139,349,o),
(219,349,cs)
);
},
{
closed = 1;
nodes = (
(177,414,o),
(147,442,o),
(147,486,cs),
(147,529,o),
(177,557,o),
(219,557,cs),
(261,557,o),
(291,530,o),
(291,486,cs),
(291,442,o),
(261,414,o),
(219,414,cs)
);
},
{
closed = 1;
nodes = (
(299,0,o),
(360,54,o),
(360,137,cs),
(360,220,o),
(299,273,o),
(219,273,cs),
(139,273,o),
(78,219,o),
(78,137,cs),
(78,54,o),
(139,0,o),
(219,0,cs)
);
},
{
closed = 1;
nodes = (
(177,65,o),
(147,93,o),
(147,137,cs),
(147,180,o),
(177,208,o),
(219,208,cs),
(261,208,o),
(291,181,o),
(291,137,cs),
(291,93,o),
(261,65,o),
(219,65,cs)
);
}
);
};
layerId = UUID0;
shapes = (
{
closed = 1;
nodes = (
(299,349,o),
(360,403,o),
(360,486,cs),
(360,569,o),
(299,622,o),
(219,622,cs),
(139,622,o),
(78,568,o),
(78,486,cs),
(78,403,o),
(139,349,o),
(219,349,cs)
);
},
{
closed = 1;
nodes = (
(177,414,o),
(147,442,o),
(147,486,cs),
(147,529,o),
(177,557,o),
(219,557,cs),
(261,557,o),
(291,530,o),
(291,486,cs),
(291,442,o),
(261,414,o),
(219,414,cs)
);
},
{
closed = 1;
nodes = (
(299,0,o),
(360,54,o),
(360,137,cs),
(360,220,o),
(299,273,o),
(219,273,cs),
(139,273,o),
(78,219,o),
(78,137,cs),
(78,54,o),
(139,0,o),
(219,0,cs)
);
},
{
closed = 1;
nodes = (
(177,65,o),
(147,93,o),
(147,137,cs),
(147,180,o),
(177,208,o),
(219,208,cs),
(261,208,o),
(291,181,o),
(291,137,cs),
(291,93,o),
(261,65,o),
(219,65,cs)
);
}
);
width = 438;
},
{
anchors = (
{
name = top_vedic;
pos = (211,607);
}
);
background = {
anchors = (
{
name = top_vedic;
pos = (211,607);
}
);
shapes = (
{
closed = 1;
nodes = (
(285,359,o),
(336,407,o),
(336,483,cs),
(336,559,o),
(285,607,o),
(210,607,cs),
(135,607,o),
(84,559,o),
(84,483,cs),
(84,407,o),
(135,359,o),
(210,359,cs)
);
},
{
closed = 1;
nodes = (
(149,380,o),
(105,418,o),
(105,483,cs),
(105,548,o),
(149,586,o),
(210,586,cs),
(271,586,o),
(315,548,o),
(315,483,cs),
(315,418,o),
(271,380,o),
(210,380,cs)
);
},
{
closed = 1;
nodes = (
(285,0,o),
(336,48,o),
(336,124,cs),
(336,200,o),
(285,248,o),
(210,248,cs),
(135,248,o),
(84,200,o),
(84,124,cs),
(84,48,o),
(135,0,o),
(210,0,cs)
);
},
{
closed = 1;
nodes = (
(149,21,o),
(105,59,o),
(105,124,cs),
(105,189,o),
(149,227,o),
(210,227,cs),
(271,227,o),
(315,189,o),
(315,124,cs),
(315,59,o),
(271,21,o),
(210,21,cs)
);
}
);
};
layerId = "28FB090A-653E-4199-B7BE-FAE23D31B682";
shapes = (
{
closed = 1;
nodes = (
(285,359,o),
(336,407,o),
(336,483,cs),
(336,559,o),
(285,607,o),
(210,607,cs),
(135,607,o),
(84,559,o),
(84,483,cs),
(84,407,o),
(135,359,o),
(210,359,cs)
);
},
{
closed = 1;
nodes = (
(149,380,o),
(105,418,o),
(105,483,cs),
(105,548,o),
(149,586,o),
(210,586,cs),
(271,586,o),
(315,548,o),
(315,483,cs),
(315,418,o),
(271,380,o),
(210,380,cs)
);
},
{
closed = 1;
nodes = (
(285,0,o),
(336,48,o),
(336,124,cs),
(336,200,o),
(285,248,o),
(210,248,cs),
(135,248,o),
(84,200,o),
(84,124,cs),
(84,48,o),
(135,0,o),
(210,0,cs)
);
},
{
closed = 1;
nodes = (
(149,21,o),
(105,59,o),
(105,124,cs),
(105,189,o),
(149,227,o),
(210,227,cs),
(271,227,o),
(315,189,o),
(315,124,cs),
(315,59,o),
(271,21,o),
(210,21,cs)
);
}
);
width = 422;
},
{
anchors = (
{
name = top_vedic;
pos = (225,635);
}
);
background = {
anchors = (
{
name = top_vedic;
pos = (225,635);
}
);
shapes = (
{
closed = 1;
nodes = (
(319,336,o),
(391,394,o),
(391,486,cs),
(391,576,o),
(319,635,o),
(225,635,cs),
(132,635,o),
(60,575,o),
(60,486,cs),
(60,394,o),
(132,336,o),
(225,336,cs)
);
},
{
closed = 1;
nodes = (
(199,440,o),
(180,459,o),
(180,486,cs),
(180,511,o),
(199,530,o),
(225,530,cs),
(252,530,o),
(272,511,o),
(272,486,cs),
(272,459,o),
(252,440,o),
(225,440,cs)
);
},
{
closed = 1;
nodes = (
(319,0,o),
(391,58,o),
(391,150,cs),
(391,240,o),
(319,299,o),
(225,299,cs),
(132,299,o),
(60,239,o),
(60,150,cs),
(60,58,o),
(132,0,o),
(225,0,cs)
);
},
{
closed = 1;
nodes = (
(199,105,o),
(180,123,o),
(180,150,cs),
(180,175,o),
(199,194,o),
(225,194,cs),
(252,194,o),
(272,175,o),
(272,150,cs),
(272,123,o),
(252,105,o),
(225,105,cs)
);
}
);
};
layerId = "F455777D-7EDD-47E2-866A-D8A5173CE243";
shapes = (
{
closed = 1;
nodes = (
(328,327,o),
(400,382,o),
(400,481,cs),
(400,580,o),
(328,635,o),
(225,635,cs),
(122,635,o),
(50,580,o),
(50,481,cs),
(50,382,o),
(122,327,o),
(225,327,cs)
);
},
{
closed = 1;
nodes = (
(204,443,o),
(187,458,o),
(187,481,cs),
(187,504,o),
(204,519,o),
(225,519,cs),
(246,519,o),
(263,504,o),
(263,481,cs),
(263,458,o),
(246,443,o),
(225,443,cs)
);
},
{
closed = 1;
nodes = (
(328,-10,o),
(400,45,o),
(400,144,cs),
(400,243,o),
(328,298,o),
(225,298,cs),
(122,298,o),
(50,243,o),
(50,144,cs),
(50,45,o),
(122,-10,o),
(225,-10,cs)
);
},
{
closed = 1;
nodes = (
(204,106,o),
(187,121,o),
(187,144,cs),
(187,167,o),
(204,182,o),
(225,182,cs),
(246,182,o),
(263,167,o),
(263,144,cs),
(263,121,o),
(246,106,o),
(225,106,cs)
);
}
);
width = 451;
},
{
anchors = (
{
name = top_vedic;
pos = (148,607);
}
);
background = {
anchors = (
{
name = top_vedic;
pos = (148,607);
}
);
shapes = (
{
closed = 1;
nodes = (
(201,359,o),
(238,405,o),
(238,483,cs),
(238,561,o),
(201,607,o),
(148,607,cs),
(95,607,o),
(58,561,o),
(58,483,cs),
(58,405,o),
(95,359,o),
(148,359,cs)
);
},
{
closed = 1;
nodes = (
(107,377,o),
(77,416,o),
(77,483,cs),
(77,550,o),
(107,589,o),
(148,589,cs),
(189,589,o),
(219,550,o),
(219,483,cs),
(219,416,o),
(189,377,o),
(148,377,cs)
);
},
{
closed = 1;
nodes = (
(201,-3,o),
(238,43,o),
(238,121,cs),
(238,199,o),
(201,245,o),
(148,245,cs),
(95,245,o),
(58,199,o),
(58,121,cs),
(58,43,o),
(95,-3,o),
(148,-3,cs)
);
},
{
closed = 1;
nodes = (
(107,15,o),
(77,54,o),
(77,121,cs),
(77,188,o),
(107,227,o),
(148,227,cs),
(189,227,o),
(219,188,o),
(219,121,cs),
(219,54,o),
(189,15,o),
(148,15,cs)
);
}
);
};
layerId = "ADAF9463-560A-4353-9B5A-2FAD12EBF6B5";
shapes = (
{
closed = 1;
nodes = (
(201,359,o),
(238,405,o),
(238,483,cs),
(238,561,o),
(201,607,o),
(148,607,cs),
(95,607,o),
(58,561,o),
(58,483,cs),
(58,405,o),
(95,359,o),
(148,359,cs)
);
},
{
closed = 1;
nodes = (
(107,377,o),
(77,416,o),
(77,483,cs),
(77,550,o),
(107,589,o),
(148,589,cs),
(189,589,o),
(219,550,o),
(219,483,cs),
(219,416,o),
(189,377,o),
(148,377,cs)
);
},
{
closed = 1;
nodes = (
(201,-3,o),
(238,43,o),
(238,121,cs),
(238,199,o),
(201,245,o),
(148,245,cs),
(95,245,o),
(58,199,o),
(58,121,cs),
(58,43,o),
(95,-3,o),
(148,-3,cs)
);
},
{
closed = 1;
nodes = (
(107,15,o),
(77,54,o),
(77,121,cs),
(77,188,o),
(107,227,o),
(148,227,cs),
(189,227,o),
(219,188,o),
(219,121,cs),
(219,54,o),
(189,15,o),
(148,15,cs)
);
}
);
width = 296;
},
{
anchors = (
{
name = top_vedic;
pos = (164,621);
}
);
background = {
anchors = (
{
name = top_vedic;
pos = (164,621);
}
);
shapes = (
{
closed = 1;
nodes = (
(227,352,o),
(274,402,o),
(274,487,cs),
(274,570,o),
(227,621,o),
(164,621,cs),
(100,621,o),
(53,570,o),
(53,487,cs),
(53,402,o),
(100,352,o),
(164,352,cs)
);
},
{
closed = 1;
nodes = (
(134,410,o),
(114,438,o),
(114,487,cs),
(114,534,o),
(134,562,o),
(164,562,cs),
(193,562,o),
(213,534,o),
(213,487,cs),
(213,438,o),
(193,410,o),
(164,410,cs)
);
},
{
closed = 1;
nodes = (
(227,0,o),
(274,50,o),
(274,135,cs),
(274,218,o),
(227,269,o),
(164,269,cs),
(100,269,o),
(53,218,o),
(53,135,cs),
(53,50,o),
(100,0,o),
(164,0,cs)
);
},
{
closed = 1;
nodes = (
(134,58,o),
(114,86,o),
(114,135,cs),
(114,183,o),
(134,211,o),
(164,211,cs),
(193,211,o),
(213,183,o),
(213,135,cs),
(213,86,o),
(193,58,o),
(164,58,cs)
);
}
);
};
layerId = "D7742CE6-1B18-47A0-AEB5-463D77EA217C";
shapes = (
{
closed = 1;
nodes = (
(227,352,o),
(274,402,o),
(274,487,cs),
(274,570,o),
(227,621,o),
(164,621,cs),
(100,621,o),
(53,570,o),
(53,487,cs),
(53,402,o),
(100,352,o),
(164,352,cs)
);
},
{
closed = 1;
nodes = (
(134,410,o),
(114,438,o),
(114,487,cs),
(114,534,o),
(134,562,o),
(164,562,cs),
(193,562,o),
(213,534,o),
(213,487,cs),
(213,438,o),
(193,410,o),
(164,410,cs)
);
},
{
closed = 1;
nodes = (
(227,0,o),
(274,50,o),
(274,135,cs),
(274,218,o),
(227,269,o),
(164,269,cs),
(100,269,o),
(53,218,o),
(53,135,cs),
(53,50,o),
(100,0,o),
(164,0,cs)
);
},
{
closed = 1;
nodes = (
(134,58,o),
(114,86,o),
(114,135,cs),
(114,183,o),
(134,211,o),
(164,211,cs),
(193,211,o),
(213,183,o),
(213,135,cs),
(213,86,o),
(193,58,o),
(164,58,cs)
);
}
);
width = 327;
},
{
anchors = (
{
name = top_vedic;
pos = (175,634);
}
);
background = {
anchors = (
{
name = top_vedic;
pos = (175,634);
}
);
shapes = (
{
closed = 1;
nodes = (
(251,338,o),
(310,396,o),
(310,486,cs),
(310,576,o),
(251,634,o),
(175,634,cs),
(99,634,o),
(41,576,o),
(41,486,cs),
(41,396,o),
(99,338,o),
(175,338,cs)
);
},
{
closed = 1;
nodes = (
(158,436,o),
(148,457,o),
(148,486,cs),
(148,515,o),
(158,536,o),
(175,536,cs),
(192,536,o),
(203,515,o),
(203,486,cs),
(203,457,o),
(192,436,o),
(175,436,cs)
);
},
{
closed = 1;
nodes = (
(251,0,o),
(310,58,o),
(310,148,cs),
(310,238,o),
(251,296,o),
(175,296,cs),
(99,296,o),
(41,238,o),
(41,148,cs),
(41,58,o),
(99,0,o),
(175,0,cs)
);
},
{
closed = 1;
nodes = (
(158,98,o),
(148,119,o),
(148,148,cs),
(148,177,o),
(158,198,o),
(175,198,cs),
(192,198,o),
(203,177,o),
(203,148,cs),
(203,119,o),
(192,98,o),
(175,98,cs)
);
}
);
};
layerId = "F138D99C-4E28-42C5-9F3E-22494052B08F";
shapes = (
{
closed = 1;
nodes = (
(255,330,o),
(324,387,o),
(324,481,cs),
(324,576,o),
(255,632,o),
(175,632,cs),
(95,632,o),
(27,576,o),
(27,481,cs),
(27,387,o),
(95,330,o),
(175,330,cs)
);
},
{
closed = 1;
nodes = (
(158,446,o),
(148,462,o),
(148,481,cs),
(148,500,o),
(158,516,o),
(175,516,cs),
(192,516,o),
(203,500,o),
(203,481,cs),
(203,462,o),
(192,446,o),
(175,446,cs)
);
},
{
closed = 1;
nodes = (
(255,-10,o),
(324,47,o),
(324,141,cs),
(324,236,o),
(255,292,o),
(175,292,cs),
(95,292,o),
(27,236,o),
(27,141,cs),
(27,47,o),
(95,-10,o),
(175,-10,cs)
);
},
{
closed = 1;
nodes = (
(158,106,o),
(148,122,o),
(148,141,cs),
(148,160,o),
(158,176,o),
(175,176,cs),
(192,176,o),
(203,160,o),
(203,141,cs),
(203,122,o),
(192,106,o),
(175,106,cs)
);
}
);
width = 351;
}
);
script = bengali;
unicode = 2435;
}
{
category = Letter;
glyphname = "kha-beng";
layers = (
{
anchors = (
{
name = bottom_mark;
pos = (531,0);
},
{
name = top_candrabindu;
pos = (470,622);
},
{
name = top_vedic;
pos = (374,622);
}
);
associatedMasterId = UUID0;
background = {
shapes = (
{
closed = 1;
nodes = (
(675.64,622,l),
(651.42,690.44,l),
(539.25,690.44,l),
(539.25,241.8,ls),
(539.25,206.41,o),
(539.25,175.8,o),
(541.25,145.8,c),
(478.93,207.77,o),
(401.84,265.83,o),
(244.29,289.9,c),
(151.76,332.22,l),
(187.35,205.06,l),
(359.18,171.4,o),
(449.83,108.17,o),
(539.25,0,c),
(676.03,0,l),
(676.03,510.13,l),
(768.83,510.13,l),
(768.83,622,l)
);
},
{
closed = 1;
nodes = (
(485.38,525.73,o),
(451.99,584.83,o),
(410.65,625,c),
(286.11,541.72,l),
(322.23,517.65,o),
(352.43,485.04,o),
(352.43,449.53,cs),
(352.43,385.51,o),
(279.21,350.32,o),
(151.76,332.22,c),
(172.98,277.07,l),
(246.82,255.26,l),
(413.49,276.14,o),
(485.38,353,o),
(485.38,461.46,cs)
);
},
{
closed = 1;
nodes = (
(300.72,417.8,o),
(354.96,478.46,o),
(412.65,570.12,c),
(410.65,625,l),
(312.34,603.46,l),
(279.98,543.62,o),
(246.62,527.84,o),
(216.77,527.84,cs),
(191.87,527.84,o),
(180.02,540.79,o),
(180.02,564.2,cs),
(180.02,577.88,o),
(184.36,590.56,o),
(190.92,602.73,c),
(66.73,628,l),
(54.73,603.73,o),
(45.95,574.73,o),
(45.95,545.56,cs),
(45.95,466.68,o),
(101.61,417.8,o),
(196.64,417.8,cs)
);
}
);
};
layerId = "ee322904-704e-4b14-a107-9895239ba1a9";
name = "Bold Semi (intermediate)";
shapes = (
{
closed = 1;
nodes = (
(662,622,l),
(639,688,l),
(531,688,l),
(531,242,ls),
(531,207,o),
(531,176,o),
(533,146,c),
(461,208,o),
(386,271,o),
(192,291,c),
(133,315,l),
(166,199,l),
(333,172,o),
(437,113,o),
(531,0,c),
(663,0,l),
(663,512,l),
(759,512,l),
(759,622,l)
);
},
{
closed = 1;
nodes = (
(475,526,o),
(446,583,o),
(407,625,c),
(282,542,l),
(315,517,o),
(346,489,o),
(346,449,cs),
(346,381,o),
(278,342,o),
(133,315,c),
(153,268,l),
(236,248,l),
(401,268,o),
(475,353,o),
(475,462,cs)
);
},
{
closed = 1;
nodes = (
(303,421,o),
(360,483,o),
(420,587,c),
(407,625,l),
(314,604,l),
(275,548,o),
(251,532,o),
(213,532,cs),
(190,532,o),
(174,542,o),
(174,566,cs),
(174,578,o),
(177,588,o),
(183,600,c),
(65,628,l),
(53,604,o),
(44,575,o),
(44,543,cs),
(44,467,o),
(101,421,o),
(191,421,cs)
);
}
);
width = 749;
},
{
anchors = (
{
name = bottom_mark;
pos = (489,0);
},
{
name = nukta;
pos = (245,54);
},
{
name = top_candrabindu;
pos = (515,622);
},
{
name = top_vedic;
pos = (330,622);
}
);
background = {
anchors = (
{
name = bottom_mark;
pos = (489,0);
},
{
name = nukta;
pos = (245,54);
},
{
name = top_candrabindu;
pos = (515,622);
},
{
name = top_vedic;
pos = (330,622);
}
);
shapes = (
{
closed = 1;
nodes = (
(566,0,l),
(566,551,l),
(671,551,l),
(671,622,l),
(565,622,l),
(542,688,l),
(489,688,l),
(489,193,ls),
(489,146,o),
(489,109,o),
(496,69,c),
(504,78,l),
(451,170,o),
(352,264,o),
(155,298,c),
(174,276,l),
(312,292,o),
(415,353,o),
(415,470,cs),
(415,530,o),
(389,583,o),
(361,625,c),
(299,612,l),
(260,522,o),
(213,501,o),
(181,501,cs),
(152,501,o),
(131,517,o),
(131,552,c),
(70,536,l),
(70,517,o),
(95,497,o),
(119,497,cs),
(146,497,o),
(185,518,o),
(185,569,cs),
(185,602,o),
(167,632,o),
(124,632,cs),
(75,632,o),
(50,592,o),
(50,550,cs),
(50,478,o),
(102,430,o),
(179,430,cs),
(262,430,o),
(327,474,o),
(354,575,c),
(297,571,l),
(327,540,o),
(340,510,o),
(340,473,cs),
(340,401,o),
(278,355,o),
(103,331,c),
(141,232,l),
(301,210,o),
(419,120,o),
(489,0,c)
);
}
);
};
layerId = UUID0;
shapes = (
{
closed = 1;
nodes = (
(566,0,l),
(566,551,l),
(671,551,l),
(671,622,l),
(565,622,l),
(542,688,l),
(489,688,l),
(489,193,ls),
(489,146,o),
(489,109,o),
(496,69,c),
(504,78,l),
(451,170,o),
(352,264,o),
(155,298,c),
(174,276,l),
(312,292,o),
(415,353,o),
(415,470,cs),
(415,530,o),
(389,583,o),
(361,625,c),
(299,612,l),
(260,522,o),
(213,501,o),
(181,501,cs),
(152,501,o),
(131,517,o),
(131,552,c),
(70,536,l),
(70,517,o),
(95,497,o),
(119,497,cs),
(146,497,o),
(185,518,o),
(185,569,cs),
(185,602,o),
(167,632,o),
(124,632,cs),
(75,632,o),
(50,592,o),
(50,550,cs),
(50,478,o),
(102,430,o),
(179,430,cs),
(262,430,o),
(327,474,o),
(354,575,c),
(297,571,l),
(327,540,o),
(340,510,o),
(340,473,cs),
(340,401,o),
(278,355,o),
(103,331,c),
(141,232,l),
(301,210,o),
(419,120,o),
(489,0,c)
);
}
);
width = 661;
},
{
anchors = (
{
name = bottom_mark;
pos = (524,0);
},
{
name = top_candrabindu;
pos = (463,622);
},
{
name = top_vedic;
pos = (348,622);
}
);
associatedMasterId = UUID0;
background = {
anchors = (
{
name = Anchor4;
pos = (463,622);
},
{
name = Anchor6;
pos = (524,0);
},
{
name = Anchor8;
pos = (348,622);
}
);
shapes = (
{
closed = 1;
nodes = (
(600,622,l),
(577,688,l),
(524,688,l),
(524,193,ls),
(524,157,o),
(524,127,o),
(526,97,c),
(471,173,o),
(375,264,o),
(190,296,c),
(142,331,l),
(166,238,l),
(336,208,o),
(448,110,o),
(524,0,c),
(601,0,l),
(601,551,l),
(706,551,l),
(706,622,l)
);
},
{
closed = 1;
nodes = (
(450,530,o),
(416,583,o),
(371,625,cs),
(316,571,l),
(357,539,o),
(375,507,o),
(375,466,cs),
(375,391,o),
(303,343,o),
(142,331,c),
(162,285,l),
(209,276,l),
(347,292,o),
(450,353,o),
(450,470,cs)
);
},
{
closed = 1;
nodes = (
(269,430,o),
(333,487,o),
(373,575,c),
(371,625,l),
(316,612,l),
(269,518,o),
(221,501,o),
(182,501,cs),
(151,501,o),
(130,517,o),
(130,552,cs),
(130,573,o),
(138,593,o),
(147,607,c),
(71,628,l),
(59,608,o),
(49,579,o),
(49,548,cs),
(49,474,o),
(101,430,o),
(182,430,cs)
);
}
);
};
layerId = "23AADFD3-A603-49FF-8A6D-EDCBD502F98E";
name = "6 May 24 at 21:46";
shapes = (
{
closed = 1;
nodes = (
(600,622,l),
(577,688,l),
(524,688,l),
(524,193,ls),
(524,157,o),
(524,127,o),
(526,97,c),
(471,173,o),
(375,264,o),
(190,296,c),
(142,331,l),
(166,238,l),
(336,208,o),
(448,110,o),
(524,0,c),
(601,0,l),
(601,551,l),
(706,551,l),
(706,622,l)
);
},
{
closed = 1;
nodes = (
(450,530,o),
(416,583,o),
(371,625,cs),
(316,571,l),
(357,539,o),
(375,507,o),
(375,466,cs),
(375,391,o),
(303,343,o),
(142,331,c),
(162,285,l),
(209,276,l),
(347,292,o),
(450,353,o),
(450,470,cs)
);
},
{
closed = 1;
nodes = (
(269,430,o),
(333,487,o),
(373,575,c),
(371,625,l),
(316,612,l),
(269,518,o),
(221,501,o),
(182,501,cs),
(151,501,o),
(130,517,o),
(130,552,cs),
(130,573,o),
(138,593,o),
(147,607,c),
(71,628,l),
(59,608,o),
(49,579,o),
(49,548,cs),
(49,474,o),
(101,430,o),
(182,430,cs)
);
}
);
width = 696;
},
{
anchors = (
{
name = bottom_mark;
pos = (490,0);
},
{
name = nukta;
pos = (245,79);
},
{
name = top_candrabindu;
pos = (499,607);
},
{
name = top_vedic;
pos = (309,607);
}
);
background = {
anchors = (
{
name = bottom_mark;
pos = (490,0);
},
{
name = nukta;
pos = (245,79);
},
{
name = top_candrabindu;
pos = (499,607);
},
{
name = top_vedic;
pos = (308,607);
}
);
shapes = (
{
closed = 1;
nodes = (
(511,0,l),
(511,586,l),
(627,586,l),
(627,607,l),
(511,607,l),
(505,660,l),
(490,660,l),
(490,131,ls),
(490,83,o),
(490,57,o),
(497,8,c),
(502,11,l),
(460,119,o),
(344,245,o),
(144,295,c),
(147,291,l),
(290,315,o),
(379,361,o),
(379,460,cs),
(379,515,o),
(355,561,o),
(320,610,c),
(304,605,l),
(260,500,o),
(206,469,o),
(158,469,cs),
(114,469,o),
(78,488,o),
(78,549,c),
(64,560,l),
(64,540,o),
(78,525,o),
(103,525,cs),
(124,525,o),
(138,540,o),
(138,563,cs),
(138,584,o),
(123,600,o),
(100,600,cs),
(73,600,o),
(56,576,o),
(56,546,cs),
(56,483,o),
(102,448,o),
(158,448,cs),
(217,448,o),
(271,479,o),
(323,588,c),
(309,588,l),
(334,556,o),
(357,514,o),
(357,463,cs),
(357,386,o),
(297,336,o),
(126,309,c),
(139,274,l),
(321,235,o),
(434,114,o),
(490,0,c)
);
}
);
};
layerId = "28FB090A-653E-4199-B7BE-FAE23D31B682";
shapes = (
{
closed = 1;
nodes = (
(511,0,l),
(511,586,l),
(627,586,l),
(627,607,l),
(511,607,l),
(505,660,l),
(490,660,l),
(490,131,ls),
(490,83,o),
(490,57,o),
(497,8,c),
(502,11,l),
(460,119,o),
(344,245,o),
(144,295,c),
(147,291,l),
(290,315,o),
(379,361,o),
(379,460,cs),
(379,515,o),
(355,561,o),
(320,610,c),
(304,605,l),
(260,500,o),
(206,469,o),
(158,469,cs),
(114,469,o),
(78,488,o),
(78,549,c),
(64,560,l),
(64,540,o),
(78,525,o),
(103,525,cs),
(124,525,o),
(138,540,o),
(138,563,cs),
(138,584,o),
(123,600,o),
(100,600,cs),
(73,600,o),
(56,576,o),
(56,546,cs),
(56,483,o),
(102,448,o),
(158,448,cs),
(217,448,o),
(271,479,o),
(323,588,c),
(309,588,l),
(334,556,o),
(357,514,o),
(357,463,cs),
(357,386,o),
(297,336,o),
(126,309,c),
(139,274,l),
(321,235,o),
(434,114,o),
(490,0,c)
);
}
);
width = 617;
},
{
anchors = (
{
name = bottom_mark;
pos = (506,0);
},
{
name = nukta;
pos = (276,15);
},
{
name = top_candrabindu;
pos = (568,635);
},
{
name = top_vedic;
pos = (366,635);
}
);
background = {
anchors = (
{
name = bottom_mark;
pos = (506,0);
},
{
name = nukta;
pos = (276,15);
},
{
name = top_candrabindu;
pos = (568,635);
},
{
name = top_vedic;
pos = (366,635);
}
);
shapes = (
{
closed = 1;
nodes = (
(670,0,l),
(670,505,l),
(743,505,l),
(743,635,l),
(669,635,l),
(645,709,l),
(507,709,l),
(507,255,ls),
(507,208,o),
(507,171,o),
(514,129,c),
(526,140,l),
(466,211,o),
(388,262,o),
(229,285,c),
(229,213,l),
(408,239,o),
(466,337,o),
(466,458,cs),
(466,524,o),
(438,602,o),
(409,643,c),
(295,617,l),
(279,560,o),
(246,531,o),
(206,531,cs),
(182,531,o),
(157,538,o),
(157,565,c),
(82,532,l),
(82,502,o),
(111,470,o),
(144,470,cs),
(182,470,o),
(222,492,o),
(222,546,cs),
(222,597,o),
(188,641,o),
(128,641,cs),
(68,641,o),
(27,597,o),
(27,536,cs),
(27,456,o),
(84,404,o),
(175,404,cs),
(285,404,o),
(342,464,o),
(371,586,c),
(295,555,l),
(303,535,o),
(312,502,o),
(312,461,cs),
(312,386,o),
(230,351,o),
(108,332,c),
(167,174,l),
(334,148,o),
(427,109,o),
(512,0,c)
);
}
);
};
layerId = "F455777D-7EDD-47E2-866A-D8A5173CE243";
shapes = (
{
closed = 1;
nodes = (
(670,0,l),
(670,505,l),
(743,505,l),
(743,635,l),
(669,635,l),
(645,709,l),
(507,709,l),
(507,255,ls),
(507,208,o),
(507,171,o),
(514,129,c),
(526,140,l),
(466,211,o),
(388,262,o),
(229,285,c),
(229,213,l),
(408,239,o),
(466,337,o),
(466,458,cs),
(466,524,o),
(438,602,o),
(409,643,c),
(295,617,l),
(279,560,o),
(246,531,o),
(206,531,cs),
(182,531,o),
(157,538,o),
(157,565,c),
(82,532,l),
(82,502,o),
(111,470,o),
(144,470,cs),
(182,470,o),
(222,492,o),
(222,546,cs),
(222,597,o),
(188,641,o),
(128,641,cs),
(68,641,o),
(27,597,o),
(27,536,cs),
(27,456,o),
(84,404,o),
(175,404,cs),
(285,404,o),
(342,464,o),
(371,586,c),
(295,555,l),
(303,535,o),
(312,502,o),
(312,461,cs),
(312,386,o),
(230,351,o),
(108,332,c),
(167,174,l),
(334,148,o),
(427,109,o),
(512,0,c)
);
}
);
width = 733;
},
{
anchors = (
{
name = bottom_mark;
pos = (339,0);
},
{
name = nukta;
pos = (171,80);
},
{
name = top_candrabindu;
pos = (348,607);
},
{
name = top_vedic;
pos = (215,607);
}
);
background = {
anchors = (
{
name = bottom_mark;
pos = (339,0);
},
{
name = nukta;
pos = (171,80);
},
{
name = top_candrabindu;
pos = (348,607);
},
{
name = top_vedic;
pos = (215,607);
}
);
shapes = (
{
closed = 1;
nodes = (
(359,0,l),
(359,589,l),
(439,589,l),
(439,607,l),
(359,607,l),
(353,660,l),
(339,660,l),
(339,151,ls),
(339,99,o),
(341,49,o),
(344,14,c),
(349,14,l),
(301,189,o),
(196,263,o),
(95,303,c),
(97,294,l),
(211,333,o),
(266,375,o),
(266,468,cs),
(266,518,o),
(250,559,o),
(225,610,c),
(208,607,l),
(186,498,o),
(151,467,o),
(110,467,cs),
(81,467,o),
(57,488,o),
(57,558,c),
(49,554,l),
(49,541,o),
(57,526,o),
(74,526,cs),
(90,526,o),
(100,541,o),
(100,563,cs),
(100,579,o),
(93,599,o),
(72,599,cs),
(51,599,o),
(38,576,o),
(38,543,cs),
(38,482,o),
(71,448,o),
(113,448,cs),
(157,448,o),
(202,478,o),
(225,589,c),
(215,587,l),
(234,549,o),
(246,517,o),
(246,470,cs),
(246,389,o),
(200,349,o),
(78,310,c),
(88,284,l),
(200,245,o),
(285,168,o),
(339,0,c)
);
}
);
};
layerId = "ADAF9463-560A-4353-9B5A-2FAD12EBF6B5";
shapes = (
{
closed = 1;
nodes = (
(359,0,l),
(359,589,l),
(439,589,l),
(439,607,l),
(359,607,l),
(353,660,l),
(339,660,l),
(339,151,ls),
(339,99,o),
(341,49,o),
(344,14,c),
(349,14,l),
(301,189,o),
(196,263,o),
(95,303,c),
(97,294,l),
(211,333,o),
(266,375,o),
(266,468,cs),
(266,518,o),
(250,559,o),
(225,610,c),
(208,607,l),
(186,498,o),
(151,467,o),
(110,467,cs),
(81,467,o),
(57,488,o),
(57,558,c),
(49,554,l),
(49,541,o),
(57,526,o),
(74,526,cs),
(90,526,o),
(100,541,o),
(100,563,cs),
(100,579,o),
(93,599,o),
(72,599,cs),
(51,599,o),
(38,576,o),
(38,543,cs),
(38,482,o),
(71,448,o),
(113,448,cs),
(157,448,o),
(202,478,o),
(225,589,c),
(215,587,l),
(234,549,o),
(246,517,o),
(246,470,cs),
(246,389,o),
(200,349,o),
(78,310,c),
(88,284,l),
(200,245,o),
(285,168,o),
(339,0,c)
);
}
);
width = 431;
},
{
anchors = (
{
name = bottom_mark;
pos = (366,0);
},
{
name = nukta;
pos = (186,58);
},
{
name = top_candrabindu;
pos = (390,621);
},
{
name = top_vedic;
pos = (251,621);
}
);
background = {
anchors = (
{
name = bottom_mark;
pos = (366,0);
},
{
name = nukta;
pos = (186,58);
},
{
name = top_candrabindu;
pos = (390,621);
},
{
name = top_vedic;
pos = (251,621);
}
);
shapes = (
{
closed = 1;
nodes = (
(436,0,l),
(436,558,l),
(509,558,l),
(509,621,l),
(435,621,l),
(418,685,l),
(366,685,l),
(366,171,ls),
(366,124,o),
(367,97,o),
(370,64,c),
(381,77,l),
(342,205,o),
(224,273,o),
(135,296,c),
(149,274,l),
(255,306,o),
(314,359,o),
(314,469,cs),
(314,527,o),
(295,578,o),
(273,623,c),
(219,612,l),
(195,518,o),
(167,496,o),
(140,496,cs),
(117,496,o),
(99,513,o),
(99,553,c),
(51,561,l),
(51,535,o),
(68,514,o),
(91,514,cs),
(120,514,o),
(140,535,o),
(140,572,cs),
(140,601,o),
(127,627,o),
(91,627,cs),
(54,627,o),
(31,593,o),
(31,548,cs),
(31,481,o),
(69,432,o),
(137,432,cs),
(204,432,o),
(245,484,o),
(265,577,c),
(216,573,l),
(236,540,o),
(244,509,o),
(244,472,cs),
(244,398,o),
(191,361,o),
(71,323,c),
(103,237,l),
(226,210,o),
(323,122,o),
(366,0,c)
);
}
);
};
layerId = "D7742CE6-1B18-47A0-AEB5-463D77EA217C";
shapes = (
{
closed = 1;
nodes = (
(436,0,l),
(436,558,l),
(510,558,l),
(510,621,l),
(435,621,l),
(418,685,l),
(366,685,l),
(366,171,ls),
(366,124,o),
(367,97,o),
(370,64,c),
(381,77,l),
(342,205,o),
(224,273,o),
(135,296,c),
(149,274,l),
(255,306,o),
(314,359,o),
(314,469,cs),
(314,527,o),
(295,578,o),
(273,623,c),
(219,612,l),
(195,518,o),
(167,496,o),
(140,496,cs),
(117,496,o),
(99,513,o),
(99,553,c),
(51,561,l),
(51,535,o),
(68,514,o),
(91,514,cs),
(120,514,o),
(140,535,o),
(140,572,cs),
(140,601,o),
(127,627,o),
(91,627,cs),
(54,627,o),
(31,593,o),
(31,548,cs),
(31,481,o),
(69,432,o),
(137,432,cs),
(204,432,o),
(245,484,o),
(265,577,c),
(216,573,l),
(236,540,o),
(244,509,o),
(244,472,cs),
(244,398,o),
(191,361,o),
(71,323,c),
(103,237,l),
(226,210,o),
(323,122,o),
(366,0,c)
);
}
);
width = 502;
},
{
anchors = (
{
name = bottom_mark;
pos = (392,0);
},
{
name = nukta;
pos = (217,22);
},
{
name = top_candrabindu;
pos = (447,634);
},
{
name = top_vedic;
pos = (294,634);
}
);
background = {
anchors = (
{
name = bottom_mark;
pos = (392,0);
},
{
name = nukta;
pos = (217,22);
},
{
name = top_candrabindu;
pos = (447,634);
},
{
name = top_vedic;
pos = (294,634);
}
);
shapes = (
{
closed = 1;
nodes = (
(541,0,l),
(541,514,l),
(596,514,l),
(596,634,l),
(540,634,l),
(521,707,l),
(395,707,l),
(395,242,ls),
(395,208,o),
(397,172,o),
(403,132,c),
(417,125,l),
(386,203,o),
(297,263,o),
(209,268,c),
(179,220,l),
(321,245,o),
(368,341,o),
(368,441,cs),
(368,526,o),
(346,600,o),
(328,640,c),
(231,628,l),
(223,567,o),
(202,550,o),
(176,550,cs),
(164,550,o),
(154,559,o),
(154,573,c),
(46,558,l),
(46,511,o),
(82,491,o),
(100,491,cs),
(162,491,o),
(172,538,o),
(172,563,cs),
(172,595,o),
(153,638,o),
(101,638,cs),
(47,638,o),
(21,596,o),
(21,542,cs),
(21,477,o),
(61,421,o),
(141,421,cs),
(213,421,o),
(271,468,o),
(300,565,c),
(225,558,l),
(229,536,o),
(234,494,o),
(234,453,cs),
(234,379,o),
(153,342,o),
(79,321,c),
(132,176,l),
(270,152,o),
(348,98,o),
(395,0,c)
);
}
);
};
layerId = "F138D99C-4E28-42C5-9F3E-22494052B08F";
shapes = (
{
closed = 1;
nodes = (
(541,0,l),
(541,514,l),
(596,514,l),
(596,634,l),
(540,634,l),
(521,707,l),
(395,707,l),
(395,242,ls),
(395,208,o),
(397,172,o),
(403,132,c),
(417,125,l),
(386,203,o),
(297,263,o),
(209,268,c),
(179,220,l),
(321,245,o),
(368,341,o),
(368,441,cs),
(368,526,o),
(346,600,o),
(328,640,c),
(231,628,l),
(223,567,o),
(202,550,o),
(176,550,cs),
(164,550,o),
(154,559,o),
(154,573,c),
(46,558,l),
(46,511,o),
(82,491,o),
(100,491,cs),
(162,491,o),
(172,538,o),
(172,563,cs),
(172,595,o),
(153,638,o),
(101,638,cs),
(47,638,o),
(21,596,o),
(21,542,cs),
(21,477,o),
(61,421,o),
(141,421,cs),
(213,421,o),
(271,468,o),
(300,565,c),
(225,558,l),
(229,536,o),
(234,494,o),
(234,453,cs),
(234,379,o),
(153,342,o),
(79,321,c),
(132,176,l),
(270,152,o),
(348,98,o),
(395,0,c)
);
}
);
width = 588;
}
);
script = bengali;
subCategory = Spacing;
unicode = 2454;
}
{
category = Letter;
glyphname = "jha-beng";
kernLeft = BNG_L_ba;
layers = (
{
anchors = (
{
name = bottom_mark;
pos = (424,0);
},
{
name = nukta;
pos = (195,54);
},
{
name = top_candrabindu;
pos = (448,622);
},
{
name = top_vedic;
pos = (398,622);
}
);
background = {
anchors = (
{
name = bottom_mark;
pos = (424,0);
},
{
name = nukta;
pos = (195,54);
},
{
name = top_candrabindu;
pos = (448,622);
},
{
name = top_vedic;
pos = (398,622);
}
);
shapes = (
{
closed = 1;
nodes = (
(501,0,l),
(501,622,l),
(-10,622,l),
(-10,551,l),
(424,551,l),
(424,482,l),
(447,524,l),
(301,480,o),
(165,412,o),
(37,335,c),
(76,239,l),
(230,214,o),
(363,115,o),
(424,0,c)
);
},
{
closed = 1;
nodes = (
(438,88,l),
(379,207,o),
(221,285,o),
(111,304,c),
(111,288,l),
(209,351,o),
(337,411,o),
(445,446,c),
(424,474,l),
(424,189,ls),
(424,146,o),
(426,119,o),
(429,88,c)
);
},
{
closed = 1;
nodes = (
(702,72,l),
(702,551,l),
(807,551,l),
(807,622,l),
(701,622,l),
(678,688,l),
(625,688,l),
(625,256,ls),
(625,213,o),
(626,187,o),
(629,156,c),
(637,159,l),
(613,216,o),
(543,287,o),
(485,316,c),
(452,248,l),
(521,215,o),
(589,148,o),
(625,72,c)
);
}
);
};
layerId = UUID0;
shapes = (
{
closed = 1;
nodes = (
(501,0,l),
(501,622,l),
(-10,622,l),
(-10,551,l),
(424,551,l),
(424,482,l),
(447,524,l),
(301,480,o),
(165,412,o),
(37,335,c),
(76,239,l),
(230,214,o),
(363,115,o),
(424,0,c)
);
},
{
closed = 1;
nodes = (
(438,88,l),
(379,207,o),
(221,285,o),
(111,304,c),
(111,288,l),
(209,351,o),
(337,411,o),
(445,446,c),
(424,474,l),
(424,189,ls),
(424,146,o),
(426,119,o),
(429,88,c)
);
},
{
closed = 1;
nodes = (
(702,72,l),
(702,551,l),
(807,551,l),
(807,622,l),
(701,622,l),
(678,688,l),
(625,688,l),
(625,256,ls),
(625,213,o),
(626,187,o),
(629,156,c),
(637,159,l),
(613,216,o),
(543,287,o),
(485,316,c),
(452,248,l),
(521,215,o),
(589,148,o),
(625,72,c)
);
}
);
width = 797;
},
{
anchors = (
{
name = bottom_mark;
pos = (445,0);
},
{
name = nukta;
pos = (195,79);
},
{
name = top_candrabindu;
pos = (454,607);
},
{
name = top_vedic;
pos = (376,607);
}
);
background = {
anchors = (
{
name = bottom_mark;
pos = (445,0);
},
{
name = nukta;
pos = (195,79);
},
{
name = top_candrabindu;
pos = (454,607);
},
{
name = top_vedic;
pos = (376,607);
}
);
shapes = (
{
closed = 1;
nodes = (
(466,0,l),
(466,607,l),
(-10,607,l),
(-10,586,l),
(445,586,l),
(445,514,l),
(454,528,l),
(310,475,o),
(174,398,o),
(57,318,c),
(68,289,l),
(239,249,o),
(376,154,o),
(445,0,c)
);
},
{
closed = 1;
nodes = (
(456,15,l),
(389,190,o),
(218,274,o),
(73,310,c),
(75,304,l),
(186,380,o),
(334,461,o),
(461,506,c),
(445,510,l),
(445,165,ls),
(445,109,o),
(447,50,o),
(451,16,c)
);
},
{
closed = 1;
nodes = (
(647,72,l),
(647,586,l),
(763,586,l),
(763,607,l),
(647,607,l),
(641,660,l),
(626,660,l),
(626,238,ls),
(626,177,o),
(628,128,o),
(632,90,c),
(635,90,l),
(599,186,o),
(538,266,o),
(459,310,c),
(451,291,l),
(533,247,o),
(588,168,o),
(626,72,c)
);
}
);
};
layerId = "28FB090A-653E-4199-B7BE-FAE23D31B682";
shapes = (
{
closed = 1;
nodes = (
(466,0,l),
(466,607,l),
(-10,607,l),
(-10,586,l),
(445,586,l),
(445,514,l),
(454,528,l),
(310,475,o),
(174,398,o),
(57,318,c),
(68,289,l),
(239,249,o),
(376,154,o),
(445,0,c)
);
},
{
closed = 1;
nodes = (
(456,15,l),
(389,190,o),
(218,274,o),
(73,310,c),
(75,304,l),
(186,380,o),
(334,461,o),
(461,506,c),
(445,510,l),
(445,165,ls),
(445,109,o),
(447,50,o),
(451,16,c)
);
},
{
closed = 1;
nodes = (
(647,72,l),
(647,586,l),
(763,586,l),
(763,607,l),
(647,607,l),
(641,660,l),
(626,660,l),
(626,238,ls),
(626,177,o),
(628,128,o),
(632,90,c),
(635,90,l),
(599,186,o),
(538,266,o),
(459,310,c),
(451,291,l),
(533,247,o),
(588,168,o),
(626,72,c)
);
}
);
width = 753;
},
{
anchors = (
{
name = bottom_mark;
pos = (378,0);
},
{
name = nukta;
pos = (182,15);
},
{
name = top_candrabindu;
pos = (445,635);
},
{
name = top_vedic;
pos = (421,635);
}
);
background = {
anchors = (
{
name = bottom_mark;
pos = (378,0);
},
{
name = nukta;
pos = (182,15);
},
{
name = top_candrabindu;
pos = (445,635);
},
{
name = top_vedic;
pos = (421,635);
}
);
shapes = (
{
closed = 1;
nodes = (
(542,0,l),
(542,635,l),
(-10,635,l),
(-10,505,l),
(385,505,l),
(385,460,l),
(401,497,l),
(278,465,o),
(142,403,o),
(18,331,c),
(78,179,l),
(222,155,o),
(313,97,o),
(384,0,c)
);
},
{
closed = 1;
nodes = (
(408,133,l),
(352,210,o),
(247,274,o),
(160,277,c),
(160,226,l),
(240,278,o),
(316,314,o),
(400,338,c),
(383,366,l),
(383,228,ls),
(383,196,o),
(386,159,o),
(389,133,c)
);
},
{
closed = 1;
nodes = (
(780,72,l),
(780,505,l),
(853,505,l),
(853,635,l),
(779,635,l),
(755,709,l),
(617,709,l),
(617,302,ls),
(617,272,o),
(619,235,o),
(622,209,c),
(642,207,l),
(612,266,o),
(542,322,o),
(462,349,c),
(432,231,l),
(520,190,o),
(571,148,o),
(617,72,c)
);
}
);
};
layerId = "F455777D-7EDD-47E2-866A-D8A5173CE243";
shapes = (
{
closed = 1;
nodes = (
(542,0,l),
(542,635,l),
(-10,635,l),
(-10,505,l),
(385,505,l),
(385,460,l),
(401,497,l),
(278,465,o),
(142,403,o),
(18,331,c),
(78,179,l),
(222,155,o),
(313,97,o),
(384,0,c)
);
},
{
closed = 1;
nodes = (
(408,133,l),
(352,210,o),
(247,274,o),
(160,277,c),
(160,226,l),
(240,278,o),
(316,314,o),
(400,338,c),
(383,366,l),
(383,228,ls),
(383,196,o),
(386,159,o),
(389,133,c)
);
},
{
closed = 1;
nodes = (
(780,72,l),
(780,505,l),
(853,505,l),
(853,635,l),
(779,635,l),
(755,709,l),
(617,709,l),
(617,302,ls),
(617,272,o),
(619,235,o),
(622,209,c),
(642,207,l),
(612,266,o),
(542,322,o),
(462,349,c),
(432,231,l),
(520,190,o),
(571,148,o),
(617,72,c)
);
}
);
width = 843;
},
{
anchors = (
{
name = bottom_mark;
pos = (293,0);
},
{
name = nukta;
pos = (130,80);
},
{
name = top_candrabindu;
pos = (309,607);
},
{
name = top_vedic;
pos = (256,607);
}
);
background = {
anchors = (
{
name = bottom_mark;
pos = (293,0);
},
{
name = nukta;
pos = (130,80);
},
{
name = top_candrabindu;
pos = (309,607);
},
{
name = top_vedic;
pos = (256,607);
}
);
shapes = (
{
closed = 1;
nodes = (
(313,0,l),
(313,607,l),
(-8,607,l),
(-8,589,l),
(293,589,l),
(293,509,l),
(300,521,l),
(201,468,o),
(119,402,o),
(33,320,c),
(43,294,l),
(154,255,o),
(245,159,o),
(294,0,c)
);
},
{
closed = 1;
nodes = (
(304,14,l),
(257,188,o),
(151,273,o),
(50,313,c),
(50,307,l),
(129,383,o),
(216,454,o),
(303,498,c),
(293,507,l),
(293,151,ls),
(293,99,o),
(295,49,o),
(298,14,c)
);
},
{
closed = 1;
nodes = (
(440,72,l),
(440,589,l),
(520,589,l),
(520,607,l),
(440,607,l),
(434,660,l),
(420,660,l),
(420,223,ls),
(420,171,o),
(422,121,o),
(425,86,c),
(429,86,l),
(404,190,o),
(360,265,o),
(308,313,c),
(301,293,l),
(351,249,o),
(394,167,o),
(421,72,c)
);
}
);
};
layerId = "ADAF9463-560A-4353-9B5A-2FAD12EBF6B5";
shapes = (
{
closed = 1;
nodes = (
(313,0,l),
(313,607,l),
(-8,607,l),
(-8,589,l),
(293,589,l),
(293,509,l),
(300,521,l),
(201,468,o),
(119,402,o),
(33,320,c),
(43,294,l),
(154,255,o),
(245,159,o),
(294,0,c)
);
},
{
closed = 1;
nodes = (
(304,14,l),
(257,188,o),
(151,273,o),
(50,313,c),
(50,307,l),
(129,383,o),
(216,454,o),
(303,498,c),
(293,507,l),
(293,151,ls),
(293,99,o),
(295,49,o),
(298,14,c)
);
},
{
closed = 1;
nodes = (
(440,72,l),
(440,589,l),
(520,589,l),
(520,607,l),
(440,607,l),
(434,660,l),
(420,660,l),
(420,223,ls),
(420,171,o),
(422,121,o),
(425,86,c),
(429,86,l),
(404,190,o),
(360,265,o),
(308,313,c),
(301,293,l),
(351,249,o),
(394,167,o),
(421,72,c)
);
}
);
width = 512;
},
{
anchors = (
{
name = bottom_mark;
pos = (305,0);
},
{
name = nukta;
pos = (142,58);
},
{
name = top_candrabindu;
pos = (333,621);
},
{
name = top_vedic;
pos = (299,621);
}
);
background = {
anchors = (
{
name = bottom_mark;
pos = (305,0);
},
{
name = nukta;
pos = (142,58);
},
{
name = top_candrabindu;
pos = (333,621);
},
{
name = top_vedic;
pos = (299,621);
}
);
shapes = (
{
closed = 1;
nodes = (
(375,0,l),
(375,621,l),
(-8,621,l),
(-8,558,l),
(306,558,l),
(306,486,l),
(321,521,l),
(222,475,o),
(119,409,o),
(24,333,c),
(56,247,l),
(170,220,o),
(263,122,o),
(306,0,c)
);
},
{
closed = 1;
nodes = (
(320,77,l),
(282,204,o),
(168,283,o),
(88,306,c),
(85,289,l),
(156,351,o),
(251,408,o),
(320,442,c),
(305,480,l),
(305,184,ls),
(305,137,o),
(307,105,o),
(309,77,c)
);
},
{
closed = 1;
nodes = (
(531,72,l),
(531,558,l),
(605,558,l),
(605,621,l),
(531,621,l),
(514,685,l),
(461,685,l),
(461,252,ls),
(461,205,o),
(462,178,o),
(465,145,c),
(477,148,l),
(459,214,o),
(405,283,o),
(353,313,c),
(330,252,l),
(388,223,o),
(432,160,o),
(461,72,c)
);
}
);
};
layerId = "D7742CE6-1B18-47A0-AEB5-463D77EA217C";
shapes = (
{
closed = 1;
nodes = (
(375,0,l),
(375,621,l),
(-8,621,l),
(-8,558,l),
(306,558,l),
(306,486,l),
(321,521,l),
(222,475,o),
(119,409,o),
(24,333,c),
(56,247,l),
(170,220,o),
(263,122,o),
(306,0,c)
);
},
{
closed = 1;
nodes = (
(320,77,l),
(282,204,o),
(168,283,o),
(88,306,c),
(85,289,l),
(156,351,o),
(251,408,o),
(320,442,c),
(305,480,l),
(305,184,ls),
(305,137,o),
(307,105,o),
(309,77,c)
);
},
{
closed = 1;
nodes = (
(531,72,l),
(531,558,l),
(605,558,l),
(605,621,l),
(531,621,l),
(514,685,l),
(461,685,l),
(461,252,ls),
(461,205,o),
(462,178,o),
(465,145,c),
(477,148,l),
(459,214,o),
(405,283,o),
(353,313,c),
(330,252,l),
(388,223,o),
(432,160,o),
(461,72,c)
);
}
);
width = 597;
},
{
anchors = (
{
name = bottom_mark;
pos = (266,0);
},
{
name = nukta;
pos = (131,22);
},
{
name = top_candrabindu;
pos = (336,634);
},
{
name = top_vedic;
pos = (337,634);
}
);
background = {
anchors = (
{
name = bottom_mark;
pos = (266,0);
},
{
name = nukta;
pos = (131,22);
},
{
name = top_candrabindu;
pos = (336,634);
},
{
name = top_vedic;
pos = (337,634);
}
);
shapes = (
{
closed = 1;
nodes = (
(415,0,l),
(415,634,l),
(-8,634,l),
(-8,514,l),
(271,514,l),
(271,464,l),
(281,492,l),
(179,453,o),
(87,395,o),
(3,331,c),
(51,186,l),
(159,162,o),
(217,98,o),
(270,0,c)
);
},
{
closed = 1;
nodes = (
(291,125,l),
(261,203,o),
(187,275,o),
(128,278,c),
(123,233,l),
(175,285,o),
(237,320,o),
(290,340,c),
(270,385,l),
(270,221,ls),
(270,185,o),
(273,148,o),
(275,125,c)
);
},
{
closed = 1;
nodes = (
(627,72,l),
(627,514,l),
(682,514,l),
(682,634,l),
(627,634,l),
(608,707,l),
(477,707,l),
(477,285,ls),
(477,251,o),
(480,215,o),
(482,190,c),
(509,191,l),
(478,250,o),
(422,316,o),
(353,343,c),
(331,221,l),
(405,182,o),
(441,151,o),
(487,72,c)
);
}
);
};
guides = (
{
angle = 180;
pos = (682,634);
}
);
layerId = "F138D99C-4E28-42C5-9F3E-22494052B08F";
shapes = (
{
closed = 1;
nodes = (
(415,0,l),
(415,634,l),
(-8,634,l),
(-8,514,l),
(271,514,l),
(271,474,l),
(281,492,l),
(179,453,o),
(87,395,o),
(3,331,c),
(51,186,l),
(159,162,o),
(217,98,o),
(270,0,c)
);
},
{
closed = 1;
nodes = (
(291,125,l),
(261,203,o),
(187,275,o),
(128,278,c),
(123,233,l),
(175,285,o),
(237,320,o),
(290,340,c),
(270,375,l),
(270,221,ls),
(270,185,o),
(273,148,o),
(275,125,c)
);
},
{
closed = 1;
nodes = (
(627,72,l),
(627,514,l),
(682,514,l),
(682,634,l),
(627,634,l),
(608,707,l),
(477,707,l),
(477,285,ls),
(477,251,o),
(479,214,o),
(482,190,c),
(509,191,l),
(478,250,o),
(422,316,o),
(353,343,c),
(331,221,l),
(405,182,o),
(441,151,o),
(487,72,c)
);
}
);
width = 674;
}
);
script = bengali;
subCategory = Spacing;
unicode = 2461;
}
{
category = Letter;
glyphname = "pha-beng";
layers = (
{
anchors = (
{
name = bottom_mark;
pos = (440,0);
},
{
name = nukta;
pos = (209,46);
},
{
name = top_candrabindu;
pos = (483,622);
},
{
name = top_vedic;
pos = (416,622);
}
);
background = {
anchors = (
{
name = bottom_mark;
pos = (440,0);
},
{
name = nukta;
pos = (209,46);
},
{
name = top_candrabindu;
pos = (483,622);
},
{
name = top_vedic;
pos = (416,622);
}
);
shapes = (
{
closed = 1;
nodes = (
(517,0,l),
(517,469,l),
(463,435,l),
(623,435,o),
(709,369,o),
(709,288,cs),
(709,259,o),
(691,232,o),
(653,232,c),
(653,173,l),
(701,173,o),
(723,202,o),
(723,233,cs),
(723,274,o),
(696,295,o),
(660,295,cs),
(621,295,o),
(594,268,o),
(594,229,cs),
(594,184,o),
(630,158,o),
(677,158,cs),
(753,158,o),
(787,222,o),
(787,290,cs),
(787,432,o),
(634,510,o),
(463,510,cs),
(440,510,l),
(440,171,ls),
(440,138,o),
(441,105,o),
(444,79,c),
(456,79,l),
(380,174,o),
(285,236,o),
(129,276,c),
(141,261,l),
(201,304,o),
(274,340,o),
(347,367,c),
(342,426,l),
(276,480,o),
(190,534,o),
(110,560,c),
(131,551,l),
(843,551,l),
(843,622,l),
(-10,622,l),
(-10,551,l),
(77,551,l),
(71,570,l),
(46,505,l),
(144,469,o),
(203,443,o),
(274,397,c),
(280,418,l),
(194,384,o),
(127,343,o),
(64,299,c),
(100,208,l),
(268,166,o),
(351,111,o),
(440,0,c)
);
}
);
};
layerId = UUID0;
shapes = (
{
closed = 1;
nodes = (
(517,0,l),
(517,469,l),
(463,435,l),
(623,435,o),
(709,369,o),
(709,288,cs),
(709,259,o),
(691,232,o),
(653,232,c),
(653,173,l),
(701,173,o),
(723,202,o),
(723,233,cs),
(723,274,o),
(696,295,o),
(660,295,cs),
(621,295,o),
(594,268,o),
(594,229,cs),
(594,184,o),
(630,158,o),
(677,158,cs),
(753,158,o),
(787,222,o),
(787,290,cs),
(787,432,o),
(634,510,o),
(463,510,cs),
(440,510,l),
(440,171,ls),
(440,138,o),
(441,105,o),
(444,79,c),
(456,79,l),
(380,174,o),
(285,236,o),
(129,276,c),
(141,261,l),
(201,304,o),
(274,340,o),
(347,367,c),
(342,426,l),
(276,480,o),
(190,534,o),
(110,560,c),
(131,551,l),
(843,551,l),
(843,622,l),
(-10,622,l),
(-10,551,l),
(77,551,l),
(71,570,l),
(46,505,l),
(144,469,o),
(203,443,o),
(274,397,c),
(280,418,l),
(194,384,o),
(127,343,o),
(64,299,c),
(100,208,l),
(268,166,o),
(351,111,o),
(440,0,c)
);
}
);
width = 833;
},
{
anchors = (
{
name = bottom_mark;
pos = (453,0);
},
{
name = nukta;
pos = (205,72);
},
{
name = top_candrabindu;
pos = (466,607);
},
{
name = top_vedic;
pos = (392,607);
}
);
background = {
anchors = (
{
name = bottom_mark;
pos = (453,0);
},
{
name = nukta;
pos = (205,72);
},
{
name = top_candrabindu;
pos = (466,607);
},
{
name = top_vedic;
pos = (392,607);
}
);
shapes = (
{
closed = 1;
nodes = (
(474,0,l),
(474,498,l),
(459,489,l),
(608,489,o),
(710,414,o),
(710,302,cs),
(710,258,o),
(696,218,o),
(654,218,c),
(648,209,l),
(677,209,o),
(686,225,o),
(686,238,cs),
(686,253,o),
(673,272,o),
(647,272,cs),
(622,272,o),
(609,254,o),
(609,235,cs),
(609,214,o),
(623,196,o),
(657,196,cs),
(697,196,o),
(732,233,o),
(732,305,cs),
(732,428,o),
(614,510,o),
(454,510,cs),
(453,510,l),
(453,116,ls),
(453,90,o),
(454,49,o),
(458,17,c),
(465,17,l),
(391,137,o),
(276,222,o),
(92,268,c),
(92,261,l),
(154,308,o),
(239,360,o),
(329,399,c),
(328,421,l),
(255,488,o),
(179,536,o),
(71,587,c),
(71,586,l),
(794,586,l),
(794,607,l),
(-10,607,l),
(-10,586,l),
(70,586,l),
(69,587,l),
(61,569,l),
(169,520,o),
(247,469,o),
(317,409,c),
(318,419,l),
(229,379,o),
(143,326,o),
(72,274,c),
(85,248,l),
(263,205,o),
(377,124,o),
(453,0,c)
);
}
);
};
layerId = "28FB090A-653E-4199-B7BE-FAE23D31B682";
shapes = (
{
closed = 1;
nodes = (
(474,0,l),
(474,498,l),
(459,489,l),
(608,489,o),
(710,414,o),
(710,302,cs),
(710,258,o),
(696,218,o),
(654,218,c),
(648,209,l),
(677,209,o),
(686,225,o),
(686,238,cs),
(686,253,o),
(673,272,o),
(647,272,cs),
(622,272,o),
(609,254,o),
(609,235,cs),
(609,214,o),
(623,196,o),
(657,196,cs),
(697,196,o),
(732,233,o),
(732,305,cs),
(732,428,o),
(614,510,o),
(454,510,cs),
(453,510,l),
(453,116,ls),
(453,90,o),
(454,49,o),
(458,17,c),
(465,17,l),
(391,137,o),
(276,222,o),
(92,268,c),
(92,261,l),
(154,308,o),
(239,360,o),
(329,399,c),
(328,421,l),
(255,488,o),
(179,536,o),
(71,587,c),
(71,586,l),
(794,586,l),
(794,607,l),
(-10,607,l),
(-10,586,l),
(70,586,l),
(69,587,l),
(61,569,l),
(169,520,o),
(247,469,o),
(317,409,c),
(318,419,l),
(229,379,o),
(143,326,o),
(72,274,c),
(85,248,l),
(263,205,o),
(377,124,o),
(453,0,c)
);
}
);
width = 784;
},
{
anchors = (
{
name = bottom_mark;
pos = (373,0);
},
{
name = nukta;
pos = (183,15);
},
{
name = top_candrabindu;
pos = (448,635);
},
{
name = top_vedic;
pos = (411,635);
}
);
background = {
anchors = (
{
name = bottom_mark;
pos = (373,0);
},
{
name = nukta;
pos = (183,15);
},
{
name = top_candrabindu;
pos = (448,635);
},
{
name = top_vedic;
pos = (411,635);
}
);
shapes = (
{
closed = 1;
nodes = (
(537,0,l),
(537,425,l),
(449,343,l),
(588,343,o),
(670,315,o),
(670,267,cs),
(670,252,o),
(641,245,o),
(616,245,c),
(634,114,l),
(712,114,o),
(738,143,o),
(738,196,cs),
(738,247,o),
(694,273,o),
(652,273,cs),
(608,273,o),
(568,241,o),
(568,188,cs),
(568,128,o),
(614,92,o),
(675,92,cs),
(763,92,o),
(806,158,o),
(806,241,cs),
(806,422,o),
(626,482,o),
(438,482,cs),
(378,482,l),
(378,211,ls),
(378,171,o),
(379,139,o),
(389,90,c),
(401,105,l),
(371,186,o),
(286,248,o),
(191,267,c),
(204,242,l),
(247,271,o),
(294,293,o),
(338,307,c),
(327,418,l),
(290,453,o),
(228,494,o),
(187,510,c),
(156,505,l),
(833,505,l),
(833,635,l),
(-10,635,l),
(-10,505,l),
(88,505,l),
(36,537,l),
(13,438,l),
(83,421,o),
(159,395,o),
(220,360,c),
(236,420,l),
(154,388,o),
(87,352,o),
(30,316,c),
(89,165,l),
(226,143,o),
(304,94,o),
(379,0,c)
);
}
);
};
layerId = "F455777D-7EDD-47E2-866A-D8A5173CE243";
shapes = (
{
closed = 1;
nodes = (
(537,0,l),
(537,425,l),
(449,343,l),
(588,343,o),
(670,315,o),
(670,267,cs),
(670,252,o),
(641,245,o),
(616,245,c),
(634,114,l),
(712,114,o),
(738,143,o),
(738,196,cs),
(738,247,o),
(694,273,o),
(652,273,cs),
(608,273,o),
(568,241,o),
(568,188,cs),
(568,128,o),
(614,92,o),
(675,92,cs),
(763,92,o),
(806,158,o),
(806,241,cs),
(806,422,o),
(626,482,o),
(438,482,cs),
(378,482,l),
(378,211,ls),
(378,171,o),
(379,139,o),
(389,90,c),
(401,105,l),
(371,186,o),
(286,248,o),
(191,267,c),
(204,242,l),
(247,271,o),
(294,293,o),
(338,307,c),
(327,418,l),
(290,453,o),
(228,494,o),
(187,510,c),
(156,505,l),
(833,505,l),
(833,635,l),
(-10,635,l),
(-10,505,l),
(88,505,l),
(36,537,l),
(13,438,l),
(83,421,o),
(159,395,o),
(220,360,c),
(236,420,l),
(154,388,o),
(87,352,o),
(30,316,c),
(89,165,l),
(226,143,o),
(304,94,o),
(379,0,c)
);
}
);
width = 823;
},
{
anchors = (
{
name = bottom_mark;
pos = (312,0);
},
{
name = nukta;
pos = (142,73);
},
{
name = top_candrabindu;
pos = (324,607);
},
{
name = top_vedic;
pos = (277,607);
}
);
background = {
anchors = (
{
name = bottom_mark;
pos = (312,0);
},
{
name = nukta;
pos = (142,73);
},
{
name = top_candrabindu;
pos = (324,607);
},
{
name = top_vedic;
pos = (277,607);
}
);
shapes = (
{
closed = 1;
nodes = (
(332,0,l),
(332,502,l),
(319,491,l),
(423,491,o),
(493,418,o),
(493,309,cs),
(493,259,o),
(481,218,o),
(453,218,c),
(450,205,l),
(471,205,o),
(479,221,o),
(479,238,cs),
(479,254,o),
(471,272,o),
(450,272,cs),
(432,272,o),
(422,256,o),
(422,237,cs),
(422,215,o),
(434,197,o),
(457,197,cs),
(488,197,o),
(512,234,o),
(512,308,cs),
(512,430,o),
(428,510,o),
(317,510,cs),
(312,510,l),
(312,151,ls),
(312,99,o),
(314,49,o),
(317,14,c),
(323,14,l),
(270,169,o),
(181,231,o),
(70,273,c),
(71,270,l),
(117,317,o),
(174,364,o),
(229,399,c),
(228,419,l),
(180,484,o),
(125,538,o),
(54,591,c),
(54,589,l),
(562,589,l),
(562,607,l),
(-8,607,l),
(-8,589,l),
(51,589,l),
(50,592,l),
(40,577,l),
(115,525,o),
(168,467,o),
(217,405,c),
(218,417,l),
(154,375,o),
(102,330,o),
(53,280,c),
(63,254,l),
(178,219,o),
(258,146,o),
(313,0,c)
);
}
);
};
layerId = "ADAF9463-560A-4353-9B5A-2FAD12EBF6B5";
shapes = (
{
closed = 1;
nodes = (
(332,0,l),
(332,502,l),
(319,491,l),
(423,491,o),
(493,418,o),
(493,309,cs),
(493,259,o),
(481,218,o),
(453,218,c),
(450,205,l),
(471,205,o),
(479,221,o),
(479,238,cs),
(479,254,o),
(471,272,o),
(450,272,cs),
(432,272,o),
(422,256,o),
(422,237,cs),
(422,215,o),
(434,197,o),
(457,197,cs),
(488,197,o),
(512,234,o),
(512,308,cs),
(512,430,o),
(428,510,o),
(317,510,cs),
(312,510,l),
(312,151,ls),
(312,99,o),
(314,49,o),
(317,14,c),
(323,14,l),
(270,169,o),
(181,231,o),
(70,273,c),
(71,270,l),
(117,317,o),
(174,364,o),
(229,399,c),
(228,419,l),
(180,484,o),
(125,538,o),
(54,591,c),
(54,589,l),
(562,589,l),
(562,607,l),
(-8,607,l),
(-8,589,l),
(51,589,l),
(50,592,l),
(40,577,l),
(115,525,o),
(168,467,o),
(217,405,c),
(218,417,l),
(154,375,o),
(102,330,o),
(53,280,c),
(63,254,l),
(178,219,o),
(258,146,o),
(313,0,c)
);
}
);
width = 554;
},
{
anchors = (
{
name = bottom_mark;
pos = (320,0);
},
{
name = nukta;
pos = (158,50);
},
{
name = top_candrabindu;
pos = (360,621);
},
{
name = top_vedic;
pos = (312,621);
}
);
background = {
anchors = (
{
name = bottom_mark;
pos = (320,0);
},
{
name = nukta;
pos = (158,50);
},
{
name = top_candrabindu;
pos = (360,621);
},
{
name = top_vedic;
pos = (312,621);
}
);
shapes = (
{
closed = 1;
nodes = (
(390,0,l),
(390,474,l),
(346,443,l),
(461,443,o),
(528,376,o),
(528,291,cs),
(528,259,o),
(513,230,o),
(489,230,c),
(489,178,l),
(530,178,o),
(547,205,o),
(547,233,cs),
(547,270,o),
(529,291,o),
(497,291,cs),
(468,291,o),
(446,268,o),
(446,232,cs),
(446,189,o),
(473,164,o),
(512,164,cs),
(568,164,o),
(594,221,o),
(594,287,cs),
(594,432,o),
(475,510,o),
(344,510,cs),
(320,510,l),
(320,166,ls),
(320,130,o),
(321,96,o),
(323,77,c),
(336,73,l),
(299,188,o),
(193,249,o),
(112,272,c),
(112,263,l),
(163,306,o),
(211,341,o),
(266,373,c),
(254,434,l),
(207,489,o),
(145,541,o),
(100,567,c),
(106,558,l),
(637,558,l),
(637,621,l),
(-8,621,l),
(-8,558,l),
(66,558,l),
(53,576,l),
(26,523,l),
(99,481,o),
(152,449,o),
(202,400,c),
(213,422,l),
(152,384,o),
(91,338,o),
(48,299,c),
(79,214,l),
(194,187,o),
(279,111,o),
(320,0,c)
);
}
);
};
layerId = "D7742CE6-1B18-47A0-AEB5-463D77EA217C";
shapes = (
{
closed = 1;
nodes = (
(390,0,l),
(390,474,l),
(346,443,l),
(461,443,o),
(528,376,o),
(528,291,cs),
(528,259,o),
(513,230,o),
(489,230,c),
(489,178,l),
(530,178,o),
(547,205,o),
(547,233,cs),
(547,270,o),
(529,291,o),
(497,291,cs),
(468,291,o),
(446,268,o),
(446,232,cs),
(446,189,o),
(473,164,o),
(512,164,cs),
(568,164,o),
(594,221,o),
(594,287,cs),
(594,432,o),
(475,510,o),
(344,510,cs),
(320,510,l),
(320,166,ls),
(320,130,o),
(321,96,o),
(323,77,c),
(336,73,l),
(299,188,o),
(193,249,o),
(112,272,c),
(112,263,l),
(163,306,o),
(211,341,o),
(266,373,c),
(254,434,l),
(207,489,o),
(145,541,o),
(100,567,c),
(106,558,l),
(637,558,l),
(637,621,l),
(-8,621,l),
(-8,558,l),
(66,558,l),
(53,576,l),
(26,523,l),
(99,481,o),
(152,449,o),
(202,400,c),
(213,422,l),
(152,384,o),
(91,338,o),
(48,299,c),
(79,214,l),
(194,187,o),
(279,111,o),
(320,0,c)
);
}
);
width = 629;
},
{
anchors = (
{
name = bottom_mark;
pos = (287,0);
},
{
name = nukta;
pos = (147,21);
},
{
name = top_candrabindu;
pos = (348,634);
},
{
name = top_vedic;
pos = (323,634);
}
);
background = {
anchors = (
{
name = bottom_mark;
pos = (287,0);
},
{
name = nukta;
pos = (147,21);
},
{
name = top_candrabindu;
pos = (348,634);
},
{
name = top_vedic;
pos = (323,634);
}
);
shapes = (
{
closed = 1;
nodes = (
(436,0,l),
(436,433,l),
(377,355,l),
(469,355,o),
(519,322,o),
(519,265,cs),
(519,247,o),
(507,229,o),
(478,229,c),
(498,121,l),
(567,121,o),
(597,150,o),
(597,199,cs),
(597,247,o),
(560,273,o),
(523,273,cs),
(490,273,o),
(454,244,o),
(454,191,cs),
(454,134,o),
(489,100,o),
(539,100,cs),
(606,100,o),
(640,156,o),
(640,238,cs),
(640,418,o),
(492,487,o),
(349,487,cs),
(296,487,l),
(296,220,ls),
(296,184,o),
(299,148,o),
(301,125,c),
(315,125,l),
(284,202,o),
(215,254,o),
(157,257,c),
(148,224,l),
(191,259,o),
(238,284,o),
(276,299,c),
(257,417,l),
(221,470,o),
(171,511,o),
(129,531,c),
(134,514,l),
(663,514,l),
(663,634,l),
(-8,634,l),
(-8,514,l),
(55,514,l),
(51,544,l),
(11,451,l),
(62,429,o),
(122,394,o),
(166,347,c),
(170,391,l),
(109,359,o),
(73,337,o),
(21,300,c),
(71,164,l),
(188,140,o),
(249,98,o),
(301,0,c)
);
}
);
};
layerId = "F138D99C-4E28-42C5-9F3E-22494052B08F";
shapes = (
{
closed = 1;
nodes = (
(436,0,l),
(436,433,l),
(377,355,l),
(469,355,o),
(519,322,o),
(519,265,cs),
(519,247,o),
(507,229,o),
(478,229,c),
(498,121,l),
(567,121,o),
(597,150,o),
(597,199,cs),
(597,247,o),
(560,273,o),
(523,273,cs),
(490,273,o),
(454,244,o),
(454,191,cs),
(454,134,o),
(489,100,o),
(539,100,cs),
(606,100,o),
(640,156,o),
(640,238,cs),
(640,418,o),
(492,487,o),
(349,487,cs),
(296,487,l),
(296,220,ls),
(296,184,o),
(299,148,o),
(301,125,c),
(315,125,l),
(284,202,o),
(215,254,o),
(157,257,c),
(148,224,l),
(191,259,o),
(238,284,o),
(276,299,c),
(257,417,l),
(221,470,o),
(171,511,o),
(129,531,c),
(134,514,l),
(663,514,l),
(663,634,l),
(-8,634,l),
(-8,514,l),
(55,514,l),
(51,544,l),
(11,451,l),
(62,429,o),
(122,394,o),
(166,347,c),
(170,391,l),
(109,359,o),
(73,337,o),
(21,300,c),
(71,164,l),
(188,140,o),
(249,98,o),
(301,0,c)
);
}
);
width = 655;
}
);
script = bengali;
subCategory = Spacing;
unicode = 2475;
}
{
category = Letter;
glyphname = "ma-beng";
layers = (
{
anchors = (
{
name = bottom_mark;
pos = (427,0);
},
{
name = top_vedic;
pos = (322,622);
}
);
associatedMasterId = UUID0;
background = {
shapes = (
{
closed = 1;
nodes = (
(-10,622,l),
(-10,510.13,l),
(434.75,510.13,l),
(434.75,312.11,ls),
(434.75,283.38,o),
(436.36,245.89,o),
(438.14,215.89,c),
(453.92,221.33,l),
(389.99,302.57,o),
(318.6,346.9,o),
(219.95,346.9,cs),
(135.19,346.9,o),
(47.09,304.83,o),
(47.09,197.63,cs),
(47.09,108.55,o),
(107.56,48.21,o),
(221.05,13.87,c),
(260.08,126.25,l),
(212.94,142.37,o),
(188.26,161.61,o),
(188.26,190.36,cs),
(188.26,220.01,o),
(211.4,234.64,o),
(242.1,234.64,cs),
(316.58,234.64,o),
(388.24,165.65,o),
(453.36,74.07,c),
(434.75,125.85,l),
(434.75,0,l),
(571.53,0,l),
(571.53,510.13,l),
(664.33,510.13,l),
(664.33,622,l)
);
},
{
closed = 1;
nodes = (
(329.5,454.92,o),
(256.11,508.23,o),
(117.74,528.6,c),
(51.61,542.21,l),
(29.46,443.37,l),
(157.36,431.81,o),
(188.55,394.91,o),
(192.33,306.14,c),
(325.06,272.77,l),
(327.89,285.65,o),
(329.5,300.36,o),
(329.5,313.24,cs)
);
}
);
};
layerId = "ada47c07-9d1c-466b-9bfd-dfa7927f2a5a";
name = "Bold Semi (intermediate)";
shapes = (
{
closed = 1;
nodes = (
(-10,622,l),
(-10,512,l),
(427,512,l),
(427,306,ls),
(427,274,o),
(427,241,o),
(429,209,c),
(449,224,l),
(381,311,o),
(309,349,o),
(211,349,cs),
(126,349,o),
(40,302,o),
(40,196,cs),
(40,120,o),
(91,44,o),
(211,10,c),
(249,125,l),
(203,141,o),
(176,157,o),
(176,192,cs),
(176,224,o),
(202,240,o),
(233,240,cs),
(308,240,o),
(369,179,o),
(444,77,c),
(427,130,l),
(427,0,l),
(559,0,l),
(559,512,l),
(655,512,l),
(655,622,l)
);
},
{
closed = 1;
nodes = (
(321,454,o),
(263,521,o),
(104,541,c),
(48,557,l),
(22,456,l),
(151,443,o),
(184,415,o),
(189,321,c),
(318,288,l),
(320,300,o),
(321,314,o),
(321,321,cs)
);
}
);
width = 645;
},
{
anchors = (
{
name = bottom_mark;
pos = (440,0);
},
{
name = nukta;
pos = (252,16);
},
{
name = top_candrabindu;
pos = (484,622);
},
{
name = top_vedic;
pos = (306,622);
}
);
background = {
anchors = (
{
name = bottom_mark;
pos = (440,0);
},
{
name = nukta;
pos = (252,16);
},
{
name = top_candrabindu;
pos = (484,622);
},
{
name = top_vedic;
pos = (306,622);
}
);
shapes = (
{
closed = 1;
nodes = (
(517,0,l),
(517,551,l),
(622,551,l),
(622,622,l),
(-10,622,l),
(-10,551,l),
(440,551,l),
(440,266,ls),
(440,233,o),
(441,201,o),
(444,171,c),
(461,169,l),
(428,255,o),
(333,332,o),
(208,332,cs),
(148,332,o),
(99,298,o),
(99,243,cs),
(99,190,o),
(137,157,o),
(188,157,cs),
(248,157,o),
(289,200,o),
(289,293,cs),
(289,458,o),
(216,544,o),
(97,553,c),
(51,566,l),
(38,494,l),
(166,485,o),
(211,419,o),
(211,322,cs),
(211,302,o),
(205,287,o),
(196,277,c),
(231,250,l),
(337,245,o),
(429,169,o),
(458,62,c),
(458,140,l),
(440,140,l),
(440,0,l)
);
}
);
};
layerId = UUID0;
shapes = (
{
closed = 1;
nodes = (
(517,0,l),
(517,551,l),
(622,551,l),
(622,622,l),
(-10,622,l),
(-10,551,l),
(440,551,l),
(440,266,ls),
(440,233,o),
(441,201,o),
(444,171,c),
(461,169,l),
(428,255,o),
(333,332,o),
(208,332,cs),
(148,332,o),
(99,298,o),
(99,243,cs),
(99,190,o),
(137,157,o),
(188,157,cs),
(248,157,o),
(289,200,o),
(289,293,cs),
(289,458,o),
(216,544,o),
(97,553,c),
(51,566,l),
(38,494,l),
(166,485,o),
(211,419,o),
(211,322,cs),
(211,302,o),
(205,287,o),
(196,277,c),
(231,250,l),
(337,245,o),
(429,169,o),
(458,62,c),
(458,140,l),
(440,140,l),
(440,0,l)
);
}
);
width = 612;
},
{
anchors = (
{
name = bottom_mark;
pos = (450,0);
},
{
name = top_vedic;
pos = (311,622);
}
);
associatedMasterId = UUID0;
background = {
anchors = (
{
name = Anchor6;
pos = (450,0);
},
{
name = Anchor8;
pos = (311,622);
}
);
shapes = (
{
closed = 1;
nodes = (
(-10,622,l),
(-10,551,l),
(450,551,l),
(450,281,ls),
(450,248,o),
(451,216,o),
(454,186,c),
(471,189,l),
(415,280,o),
(343,353,o),
(223,353,cs),
(148,353,o),
(66,303,o),
(66,208,cs),
(66,136,o),
(110,72,o),
(218,34,c),
(243,111,l),
(180,132,o),
(148,161,o),
(148,205,cs),
(148,256,o),
(187,281,o),
(236,281,cs),
(330,281,o),
(398,187,o),
(468,82,c),
(450,135,l),
(450,0,l),
(527,0,l),
(527,551,l),
(632,551,l),
(632,622,l)
);
},
{
closed = 1;
nodes = (
(299,472,o),
(225,543,o),
(97,553,c),
(51,566,l),
(38,494,l),
(172,480,o),
(216,437,o),
(221,322,c),
(297,299,l),
(298,307,o),
(299,315,o),
(299,323,cs)
);
}
);
};
layerId = "22388D21-EA84-4700-9B6B-1996D68BE90D";
name = "6 May 24 at 20:32";
shapes = (
{
closed = 1;
nodes = (
(-10,622,l),
(-10,551,l),
(450,551,l),
(450,281,ls),
(450,248,o),
(451,216,o),
(454,186,c),
(471,189,l),
(415,280,o),
(343,353,o),
(223,353,cs),
(148,353,o),
(66,303,o),
(66,208,cs),
(66,136,o),
(110,72,o),
(218,34,c),
(243,111,l),
(180,132,o),
(148,161,o),
(148,205,cs),
(148,256,o),
(187,281,o),
(236,281,cs),
(330,281,o),
(398,187,o),
(468,82,c),
(450,135,l),
(450,0,l),
(527,0,l),
(527,551,l),
(632,551,l),
(632,622,l)
);
},
{
closed = 1;
nodes = (
(299,472,o),
(225,543,o),
(97,553,c),
(51,566,l),
(38,494,l),
(172,480,o),
(216,437,o),
(221,322,c),
(297,299,l),
(298,307,o),
(299,315,o),
(299,323,cs)
);
}
);
width = 622;
},
{
anchors = (
{
name = bottom_mark;
pos = (450,0);
},
{
name = nukta;
pos = (205,26);
},
{
name = top_candrabindu;
pos = (460,607);
},
{
name = top_vedic;
pos = (288,607);
}
);
background = {
anchors = (
{
name = bottom_mark;
pos = (450,0);
},
{
name = nukta;
pos = (205,26);
},
{
name = top_candrabindu;
pos = (460,607);
},
{
name = top_vedic;
pos = (288,607);
}
);
shapes = (
{
closed = 1;
nodes = (
(471,0,l),
(471,586,l),
(587,586,l),
(587,607,l),
(-10,607,l),
(-10,586,l),
(450,586,l),
(450,193,ls),
(450,174,o),
(450,147,o),
(452,120,c),
(458,120,l),
(409,222,o),
(287,299,o),
(190,299,cs),
(139,299,o),
(121,276,o),
(121,252,cs),
(121,223,o),
(145,207,o),
(172,207,cs),
(213,207,o),
(251,244,o),
(251,352,cs),
(251,451,o),
(207,553,o),
(45,587,c),
(44,587,l),
(39,569,l),
(182,537,o),
(230,457,o),
(230,355,cs),
(230,316,o),
(223,292,o),
(221,286,c),
(223,276,l),
(323,260,o),
(429,176,o),
(466,62,c),
(466,117,l),
(450,117,l),
(450,0,l)
);
}
);
};
layerId = "28FB090A-653E-4199-B7BE-FAE23D31B682";
shapes = (
{
closed = 1;
nodes = (
(471,0,l),
(471,586,l),
(587,586,l),
(587,607,l),
(-10,607,l),
(-10,586,l),
(450,586,l),
(450,193,ls),
(450,174,o),
(450,147,o),
(452,120,c),
(458,120,l),
(409,222,o),
(287,299,o),
(190,299,cs),
(139,299,o),
(121,276,o),
(121,252,cs),
(121,223,o),
(145,207,o),
(172,207,cs),
(213,207,o),
(251,244,o),
(251,352,cs),
(251,451,o),
(207,553,o),
(45,587,c),
(44,587,l),
(39,569,l),
(182,537,o),
(230,457,o),
(230,355,cs),
(230,316,o),
(223,292,o),
(221,286,c),
(223,276,l),
(323,260,o),
(429,176,o),
(466,62,c),
(466,117,l),
(450,117,l),
(450,0,l)
);
}
);
width = 577;
},
{
anchors = (
{
name = bottom_mark;
pos = (400,0);
},
{
name = nukta;
pos = (257,-13);
},
{
name = top_candrabindu;
pos = (490,635);
},
{
name = top_vedic;
pos = (313,635);
}
);
annotations = (
{
pos = (291,417);
type = Text;
}
);
background = {
anchors = (
{
name = bottom_mark;
pos = (400,0);
},
{
name = nukta;
pos = (257,-13);
},
{
name = top_candrabindu;
pos = (490,635);
},
{
name = top_vedic;
pos = (313,635);
}
);
shapes = (
{
closed = 1;
nodes = (
(564,0,l),
(564,505,l),
(637,505,l),
(637,635,l),
(-10,635,l),
(-10,505,l),
(400,505,l),
(400,320,ls),
(400,293,o),
(401,253,o),
(404,223,c),
(419,211,l),
(369,296,o),
(289,324,o),
(190,324,cs),
(119,324,o),
(61,277,o),
(61,210,cs),
(61,140,o),
(114,96,o),
(181,96,cs),
(255,96,o),
(311,145,o),
(311,267,cs),
(311,405,o),
(249,535,o),
(83,535,c),
(43,545,l),
(17,434,l),
(117,426,o),
(165,370,o),
(165,299,cs),
(165,275,o),
(161,255,o),
(155,241,c),
(237,171,l),
(326,168,o),
(389,129,o),
(419,46,c),
(419,118,l),
(400,118,l),
(400,0,l)
);
}
);
};
layerId = "F455777D-7EDD-47E2-866A-D8A5173CE243";
shapes = (
{
closed = 1;
nodes = (
(564,0,l),
(564,505,l),
(637,505,l),
(637,635,l),
(-10,635,l),
(-10,505,l),
(400,505,l),
(400,320,ls),
(400,293,o),
(401,253,o),
(404,223,c),
(419,211,l),
(369,296,o),
(289,324,o),
(190,324,cs),
(119,324,o),
(61,277,o),
(61,210,cs),
(61,140,o),
(114,96,o),
(181,96,cs),
(255,96,o),
(311,145,o),
(311,267,cs),
(311,405,o),
(249,535,o),
(83,535,c),
(43,545,l),
(17,434,l),
(117,426,o),
(165,370,o),
(165,299,cs),
(165,275,o),
(161,255,o),
(155,241,c),
(237,171,l),
(326,168,o),
(389,129,o),
(419,46,c),
(419,118,l),
(400,118,l),
(400,0,l)
);
}
);
width = 627;
},
{
anchors = (
{
name = bottom_mark;
pos = (309,0);
},
{
name = nukta;
pos = (145,26);
},
{
name = top_candrabindu;
pos = (321,607);
},
{
name = top_vedic;
pos = (200,607);
}
);
background = {
anchors = (
{
name = bottom_mark;
pos = (309,0);
},
{
name = nukta;
pos = (145,26);
},
{
name = top_candrabindu;
pos = (321,607);
},
{
name = top_vedic;
pos = (200,607);
}
);
shapes = (
{
closed = 1;
nodes = (
(329,0,l),
(329,589,l),
(409,589,l),
(409,607,l),
(-8,607,l),
(-8,589,l),
(309,589,l),
(309,202,ls),
(309,178,o),
(310,152,o),
(311,127,c),
(316,127,l),
(282,240,o),
(206,299,o),
(134,299,cs),
(100,299,o),
(81,280,o),
(81,254,cs),
(81,229,o),
(98,214,o),
(119,214,cs),
(154,214,o),
(177,247,o),
(177,350,cs),
(177,456,o),
(142,552,o),
(34,592,c),
(32,591,l),
(26,575,l),
(129,535,o),
(157,447,o),
(157,353,cs),
(157,317,o),
(153,292,o),
(151,285,c),
(156,276,l),
(217,266,o),
(286,208,o),
(316,71,c),
(316,118,l),
(309,118,l),
(309,0,l)
);
}
);
};
layerId = "ADAF9463-560A-4353-9B5A-2FAD12EBF6B5";
shapes = (
{
closed = 1;
nodes = (
(329,0,l),
(329,589,l),
(409,589,l),
(409,607,l),
(-8,607,l),
(-8,589,l),
(309,589,l),
(309,202,ls),
(309,178,o),
(310,152,o),
(311,127,c),
(316,127,l),
(282,240,o),
(206,299,o),
(134,299,cs),
(100,299,o),
(81,280,o),
(81,254,cs),
(81,229,o),
(98,214,o),
(119,214,cs),
(154,214,o),
(177,247,o),
(177,350,cs),
(177,456,o),
(142,552,o),
(34,592,c),
(32,591,l),
(26,575,l),
(129,535,o),
(157,447,o),
(157,353,cs),
(157,317,o),
(153,292,o),
(151,285,c),
(156,276,l),
(217,266,o),
(286,208,o),
(316,71,c),
(316,118,l),
(309,118,l),
(309,0,l)
);
}
);
width = 401;
},
{
anchors = (
{
name = bottom_mark;
pos = (320,0);
},
{
name = nukta;
pos = (185,18);
},
{
name = top_candrabindu;
pos = (360,621);
},
{
name = top_vedic;
pos = (227,621);
}
);
background = {
anchors = (
{
name = bottom_mark;
pos = (320,0);
},
{
name = nukta;
pos = (185,18);
},
{
name = top_candrabindu;
pos = (360,621);
},
{
name = top_vedic;
pos = (227,621);
}
);
shapes = (
{
closed = 1;
nodes = (
(390,0,l),
(390,558,l),
(464,558,l),
(464,621,l),
(-8,621,l),
(-8,558,l),
(320,558,l),
(320,257,ls),
(320,220,o),
(321,191,o),
(323,164,c),
(339,176,l),
(300,272,o),
(231,326,o),
(155,326,cs),
(101,326,o),
(65,296,o),
(65,244,cs),
(65,198,o),
(94,166,o),
(135,166,cs),
(201,166,o),
(217,239,o),
(217,337,cs),
(217,455,o),
(158,541,o),
(67,569,c),
(46,575,l),
(21,519,l),
(114,487,o),
(152,424,o),
(152,345,cs),
(152,306,o),
(146,288,o),
(139,279,c),
(157,260,l),
(221,260,o),
(291,195,o),
(332,80,c),
(332,137,l),
(320,137,l),
(320,0,l)
);
}
);
};
layerId = "D7742CE6-1B18-47A0-AEB5-463D77EA217C";
shapes = (
{
closed = 1;
nodes = (
(390,0,l),
(390,558,l),
(464,558,l),
(464,621,l),
(-8,621,l),
(-8,558,l),
(320,558,l),
(320,257,ls),
(320,220,o),
(321,191,o),
(323,164,c),
(339,176,l),
(300,272,o),
(231,326,o),
(155,326,cs),
(101,326,o),
(65,296,o),
(65,244,cs),
(65,198,o),
(94,166,o),
(135,166,cs),
(201,166,o),
(217,239,o),
(217,337,cs),
(217,455,o),
(158,541,o),
(67,569,c),
(46,575,l),
(21,519,l),
(114,487,o),
(152,424,o),
(152,345,cs),
(152,306,o),
(146,288,o),
(139,279,c),
(157,260,l),
(221,260,o),
(291,195,o),
(332,80,c),
(332,137,l),
(320,137,l),
(320,0,l)
);
}
);
width = 456;
},
{
anchors = (
{
name = bottom_mark;
pos = (296,0);
},
{
name = nukta;
pos = (198,-8);
},
{
name = top_candrabindu;
pos = (378,634);
},
{
name = top_vedic;
pos = (246,634);
}
);
background = {
anchors = (
{
name = bottom_mark;
pos = (296,0);
},
{
name = nukta;
pos = (198,-8);
},
{
name = top_candrabindu;
pos = (378,634);
},
{
name = top_vedic;
pos = (246,634);
}
);
shapes = (
{
closed = 1;
nodes = (
(445,0,l),
(445,514,l),
(501,514,l),
(501,634,l),
(-8,634,l),
(-8,514,l),
(296,514,l),
(296,310,ls),
(296,278,o),
(299,240,o),
(304,214,c),
(324,186,l),
(298,281,o),
(239,329,o),
(159,329,cs),
(74,329,o),
(33,278,o),
(33,214,cs),
(33,153,o),
(71,107,o),
(131,107,cs),
(207,107,o),
(245,172,o),
(245,275,cs),
(245,402,o),
(200,524,o),
(67,546,c),
(40,550,l),
(2,450,l),
(73,431,o),
(114,377,o),
(114,305,cs),
(114,282,o),
(111,262,o),
(107,247,c),
(167,200,l),
(218,200,o),
(281,175,o),
(308,53,c),
(308,122,l),
(296,122,l),
(296,0,l)
);
}
);
};
layerId = "F138D99C-4E28-42C5-9F3E-22494052B08F";
shapes = (
{
closed = 1;
nodes = (
(445,0,l),
(445,514,l),
(501,514,l),
(501,634,l),
(-8,634,l),
(-8,514,l),
(296,514,l),
(296,310,ls),
(296,278,o),
(299,240,o),
(304,214,c),
(324,186,l),
(298,281,o),
(239,329,o),
(159,329,cs),
(74,329,o),
(33,278,o),
(33,214,cs),
(33,153,o),
(71,107,o),
(131,107,cs),
(207,107,o),
(245,172,o),
(245,275,cs),
(245,402,o),
(200,524,o),
(67,546,c),
(40,550,l),
(2,450,l),
(73,431,o),
(114,377,o),
(114,305,cs),
(114,282,o),
(111,262,o),
(107,247,c),
(167,200,l),
(218,200,o),
(281,175,o),
(308,53,c),
(308,122,l),
(296,122,l),
(296,0,l)
);
}
);
width = 493;
}
);
script = bengali;
subCategory = Spacing;
unicode = 2478;
}
